<?xml version="1.0" encoding="utf-8"?>
<!-- Generator: Adobe Illustrator 16.0.0, SVG Export Plug-In . SVG Version: 6.00 Build 0)  -->
<!DOCTYPE svg PUBLIC "-//W3C//DTD SVG 1.1//EN" "http://www.w3.org/Graphics/SVG/1.1/DTD/svg11.dtd">
<svg version="1.1" id="Layer_1" xmlns="http://www.w3.org/2000/svg" xmlns:xlink="http://www.w3.org/1999/xlink" x="0px" y="0px"
	 width="80px" height="80px" viewBox="0 0 80 80" enable-background="new 0 0 80 80" xml:space="preserve">
<path fill="#FF7A34" d="M-90.822,73.339c-0.254-0.191-0.309-0.633-0.309-0.97c0,0.337,0.055,0.8,0.309,0.991
	c0.259,0.195,0.733,0.208,1.058,0.155l9.372-10.353l-9.373,10.353C-90.091,73.568-90.563,73.534-90.822,73.339z"/>
<polygon fill="#FF7A34" points="-97.636,17.581 -97.646,18.51 -97.645,18.51 "/>
<path fill="#FF7A34" d="M-33.525,11h-60.394C-96.212,11-98,12.458-98,14.75v1.901l-4.462-0.042c-2.501,0-3.538,1.216-3.538,3.717
	v40.857c0,0.925,0.028,2.119,0.776,2.895c0.755,0.782,1.915,0.922,2.947,0.922H-93v7.367c0,1.385,0.582,2.104,1.066,2.465
	c0.561,0.418,1.223,0.531,1.774,0.531c0.592,0,1.063-0.131,1.154-0.159l0.25-0.042L-79.565,65h28.361l4.182,4.605l0.276,0.051
	c0.044,0.012,0.44,0.098,0.957,0.098c0.896,0,1.557-0.282,2.08-0.809c0.535-0.536,0.709-1.292,0.709-2.23V59h9.525
	C-31.071,59-30,57.901-30,55.562V14.866C-30,12.323-31.084,11-33.525,11z M-80.393,63l-9.372,10.434
	c-0.325,0.053-0.734,0.081-0.993-0.114C-91.011,73.128-91,72.706-91,72.369V63h-11.277c-0.861,0-1.333-0.07-1.539-0.283
	c-0.196-0.203-0.185-0.672-0.185-1.5V20.326c0-1.459,0.332-1.858,1.783-1.858l4.425,0.042L-98,17.581v38.06
	C-98,57.938-96.246,59-93.906,59h37.676l3.351,4H-80.393z M-32,54.588C-32,55.924-32.169,57-33.513,57H-45v9.721
	c0,0.43,0.076,0.758-0.096,0.931c-0.287,0.289-0.749,0.503-1.04,0.472L-55.402,57h-38.492C-95.214,57-96,55.926-96,54.641V14.75
	c0-1.268,0.813-1.75,2.081-1.75h60.394C-32.291,13-32,13.187-32,14.866V54.588z"/>
<polygon fill="#FF7A34" points="-97.646,18.51 -102.288,18.468 -97.646,18.51 "/>
<path fill="#FF7A34" d="M-74.42,32.33c-2.041,0-3.7,1.659-3.7,3.698c0,2.04,1.66,3.699,3.7,3.699c2.041,0,3.7-1.659,3.7-3.699
	C-70.72,33.989-72.379,32.33-74.42,32.33z M-74.42,37.869c-1.017,0-1.842-0.824-1.842-1.84c0-1.016,0.825-1.839,1.842-1.839
	c1.018,0,1.842,0.824,1.842,1.839C-72.578,37.045-73.402,37.869-74.42,37.869z"/>
<path fill="#FF7A34" d="M-64.188,32.33c-2.041,0-3.701,1.659-3.701,3.698c0,2.04,1.66,3.699,3.701,3.699
	c2.04,0,3.701-1.659,3.701-3.699C-60.486,33.989-62.147,32.33-64.188,32.33z M-64.188,37.869c-1.018,0-1.843-0.824-1.843-1.84
	c0-1.016,0.825-1.839,1.843-1.839s1.842,0.824,1.842,1.839C-62.346,37.045-63.17,37.869-64.188,37.869z"/>
<path fill="#FF7A34" d="M-53.941,32.33c-2.04,0-3.7,1.659-3.7,3.698c0,2.04,1.66,3.699,3.7,3.699c2.041,0,3.701-1.659,3.701-3.699
	C-50.24,33.989-51.9,32.33-53.941,32.33z M-53.941,37.869c-1.017,0-1.842-0.824-1.842-1.84c0-1.016,0.825-1.839,1.842-1.839
	c1.018,0,1.842,0.824,1.842,1.839C-52.1,37.045-52.924,37.869-53.941,37.869z"/>
<polygon fill="#FF7A34" points="4,12 19,12 19,38 21,38 21,10 2,10 2,46 4,46 "/>
<polygon fill="#FF7A34" points="21,61 19,61 19,74 4,74 4,61 2,61 2,76 21,76 "/>
<path fill="#FF7A34" d="M58,76h20V39H58V76z M60,41h16v33H60V41z"/>
<path fill="#FF7A34" d="M138.23,43.484l-3.131-3.117L113.166,62.21c-1.59,1.582-2.501,3.745-2.501,5.936
	c0,2.049,0.789,3.962,2.221,5.389c1.687,1.679,3.896,2.643,6.062,2.643h0.001c1.912,0,3.646-0.721,5.016-2.085l22.501-22.406
	l-3.001-2.987l26.771-28.062c1.42,0.413,2.642,0.083,3.282-0.924l4.998-8.206L175.83,8.82l-8.279,5.051
	c-0.954,0.72-1.279,1.926-0.906,3.243L138.23,43.484z M143.91,51.686l-21.217,21.129c-1.024,1.02-2.319,1.559-3.744,1.559h-0.001
	c-1.693,0-3.439-0.771-4.79-2.117c-1.091-1.085-1.689-2.545-1.689-4.11c0-1.714,0.718-3.413,1.97-4.659L135.1,42.91L143.91,51.686z
	 M168.777,17.594l-0.259-0.587c-0.159-0.362-0.468-1.253,0.046-1.646l6.994-4.263l0.68,0.681l-4.253,6.98
	c-0.239,0.381-1.001,0.275-1.646,0.001l-0.574-0.242l-27.577,28.906l-2.68-2.666L168.777,17.594z"/>
<path fill="#FF7A34" d="M126.303,29.229l-4.161-4.161l3.399-3.403l11.522,14.163l7.411-7.418l-13.254-10.444
	c-1.076-1.116-0.33-2.269-0.107-2.562l3.836-3.837l-0.133-9.736l-8.335,8.383l-4.095-1.299l-4.101,4.104l1.297,4.134l-2.671,2.685
	l-3.603-3.604l-5.783,5.783l12.994,12.994L126.303,29.229z M122.887,10.964l2.164,0.688l-4.031,4.057l-0.687-2.188L122.887,10.964z
	 M120.192,19.097l0.034,0.108l8.284-8.346l-0.098-0.031l4.66-4.687l0.063,4.689l-3.396,3.401c-0.75,0.911-1.667,3.138,0.237,5.043
	l11.787,9.296l-4.565,4.57l-11.523-14.165l-4.812,4.816l-2.678-2.678L120.192,19.097z M113.31,18.784l10.443,10.445l-3.232,3.233
	l-10.445-10.445L113.31,18.784z"/>
<path fill="#FF7A34" d="M158.42,42.251l-8.417,8.417l19.843,22.901c1.521,1.515,3.601,2.384,5.704,2.385l0,0
	c1.97,0,3.811-0.753,5.183-2.119c1.616-1.612,2.543-3.725,2.541-5.796c0-1.829-0.694-3.488-2.035-4.822L158.42,42.251z
	 M179.459,72.558c-1.031,1.027-2.419,1.594-3.909,1.594l0,0c-1.631-0.001-3.246-0.678-4.387-1.812l-18.699-21.584l6.008-6.007
	l21.521,19.771c0.966,0.964,1.478,2.181,1.478,3.52C181.472,69.635,180.737,71.281,179.459,72.558z"/>
<path fill="#FF7A34" d="M16.28,48.305c-1.243-1.156-2.902-1.87-4.729-1.87c-3.839,0-6.962,3.13-6.962,6.974
	c0,3.847,3.123,6.975,6.962,6.975c3.84,0,6.963-3.128,6.963-6.975c0-1.343-0.388-2.596-1.048-3.662l17.304-11.722
	c1.27,1.716,3.3,2.835,5.591,2.835c3.84,0,6.962-3.13,6.962-6.975c0-0.414-0.042-0.817-0.112-1.211l14.362-3.351
	c0.843,2.902,3.517,5.031,6.682,5.031c3.839,0,6.963-3.128,6.963-6.974c0-3.846-3.124-6.974-6.963-6.974s-6.962,3.128-6.962,6.974
	c0,0.033,0.004,0.065,0.005,0.098l-14.655,3.42c-1.119-2.353-3.51-3.987-6.281-3.987c-3.839,0-6.963,3.128-6.963,6.974
	c0,0.883,0.172,1.726,0.472,2.504L16.28,48.305z M11.552,58.524c-2.814,0-5.104-2.295-5.104-5.116c0-2.82,2.289-5.114,5.104-5.114
	c2.815,0,5.104,2.294,5.104,5.114C16.656,56.229,14.367,58.524,11.552,58.524z M68.255,22.264c2.814,0,5.104,2.295,5.104,5.116
	c0,2.82-2.29,5.115-5.104,5.115c-2.813,0-5.104-2.295-5.104-5.115C63.151,24.559,65.441,22.264,68.255,22.264z M40.361,28.77
	c2.814,0,5.104,2.295,5.104,5.115c0,2.821-2.289,5.116-5.104,5.116s-5.104-2.295-5.104-5.116
	C35.257,31.064,37.547,28.77,40.361,28.77z"/>
<path fill="#FF7A34" d="M30,76h20V45H30V76z M32,47h16v27H32V47z"/>
</svg>
