<?xml version="1.0" encoding="UTF-8" standalone="no"?>
<svg width="1320px" height="524px" viewBox="0 0 1320 524" version="1.1" xmlns="http://www.w3.org/2000/svg" xmlns:xlink="http://www.w3.org/1999/xlink" xmlns:sketch="http://www.bohemiancoding.com/sketch/ns">
    <!-- Generator: Sketch 3.0.4 (8053) - http://www.bohemiancoding.com/sketch -->
    <title>Image Computer</title>
    <desc>Created with Sketch.</desc>
    <defs></defs>
    <g id="Website" stroke="none" stroke-width="1" fill="none" fill-rule="evenodd" sketch:type="MSPage">
        <g id="Image-Computer" sketch:type="MSArtboardGroup">
            <g id="ORDI-+-BUBBLES" sketch:type="MSLayerGroup" transform="translate(48.000000, 0.000000)">
                <g id="ORDI" transform="translate(141.000000, 0.000000)">
                    <g id="Back">
                        <path d="M851,24.993 C851,11.19 839.816,0 825.997,0 L116.003,0 C102.194,0 91,11.189 91,24.993 L91,504 L851,504 L851,24.993" id="Imported-Layers" fill="#0B0B0A" sketch:type="MSShapeGroup"></path>
                        <rect id="Rectangle-83" fill="#2D3542" sketch:type="MSShapeGroup" x="112" y="30" width="716" height="450"></rect>
                        <path d="M2.71050543e-20,504 C2.71050543e-20,504 2.71050543e-20,524 10.8984375,524 L930,524 C940,524 940,504 940,504 L2.71050543e-20,504 Z" id="Rectangle-81" fill="#DCDEE0" sketch:type="MSShapeGroup"></path>
                        <path d="M405,504 L407.117128,509.822102 C408.157009,512.681776 411.465787,515 414.497795,515 L530.502205,515 C533.538554,515 536.838531,512.69404 537.882872,509.822102 L540,504 L405,504 Z" id="Rectangle-82" fill="#B4B9BC" sketch:type="MSShapeGroup"></path>
                        <g id="Imported-EPS" transform="translate(91.000000, 0.000000)"></g>
                    </g>
                    <g id="App" transform="translate(141.000000, 45.000000)" sketch:type="MSShapeGroup">
                        <g id="inbox-test-+-Rectangle-11">
                            <rect id="Rectangle-12" fill="#FFFFFF" x="0" y="32" width="660" height="403" rx="4"></rect>
                            <path d="M7.60028845,8.99183099 C7.60028845,9.34187062 7.87895686,9.6256338 8.24103771,9.6256338 L14.7893864,9.6256338 C15.1432625,9.6256338 15.4301357,9.34431103 15.4301357,8.99183099 L15.4301357,8.99183099 C15.4301357,8.64179136 15.1514673,8.35802817 14.7893864,8.35802817 L8.24103771,8.35802817 C7.88716166,8.35802817 7.60028845,8.63935094 7.60028845,8.99183099 L7.60028845,8.99183099 Z M7.60028845,5.64859155 C7.60028845,5.99863118 7.87895686,6.28239437 8.24103771,6.28239437 L14.7893864,6.28239437 C15.1432625,6.28239437 15.4301357,6.00107159 15.4301357,5.64859155 L15.4301357,5.64859155 C15.4301357,5.29855192 15.1514673,5.01478873 14.7893864,5.01478873 L8.24103771,5.01478873 C7.88716166,5.01478873 7.60028845,5.29611151 7.60028845,5.64859155 L7.60028845,5.64859155 Z M17.4701287,2.4943662 L18.4793718,12.55 C18.5250246,13.0043662 18.2145593,13.3723944 17.7790107,13.371831 C17.7790107,13.371831 14.6465176,13.3677465 14.6470454,13.3728169 C14.7663232,14.5139437 14.6470454,17.5159155 14.6470454,17.5159155 L10.523348,13.3728169 L5.2441565,13.3728169 C4.81560095,13.3728169 4.50605928,12.9967606 4.55092039,12.55 L5.56016345,2.4943662 C5.60581623,2.04 5.99426067,1.6715493 6.4316565,1.6715493 L16.5986357,1.6715493 C17.0343162,1.6715493 17.4252676,2.04760563 17.4701287,2.4943662 Z M17.3895107,0 C18.253219,0 19.0398718,0.737746479 19.1476704,1.65859155 L21.0120454,17.5794366 C21.1723579,18.9488732 20.2499343,20.0591549 18.9607051,20.0591549 L4.06958706,20.0591549 C2.77626761,20.0591549 1.85753845,18.9521127 2.01824678,17.5794366 L3.88262178,1.65859155 C3.98989261,0.742535211 4.77443428,0 5.6407815,0 L17.3895107,0 L17.3895107,0 Z" id="Imported-Layers-2" fill="#FFFFFF"></path>
                            <path d="M132.5,32.5 L132.5,434.560638" id="Path" stroke="#D1D7E0" fill="#636B76"></path>
                            <path d="M133.5,73.5 L659.503784,73.5" id="Line" stroke="#D1D7E0" stroke-linecap="square"></path>
                            <path d="M133.5,153.5 L659.503784,153.5" id="Line-3" stroke="#D1D7E0" stroke-linecap="square"></path>
                            <path d="M133.5,233.5 L659.503784,233.5" id="Line-4" stroke="#D1D7E0" stroke-linecap="square"></path>
                            <path d="M133.5,313.5 L659.503784,313.5" id="Line-5" stroke="#D1D7E0" stroke-linecap="square"></path>
                            <g id="Group" transform="translate(26.000000, 46.000000)">
                                <g transform="translate(0.000000, 13.000000)">
                                    <circle id="Oval-2" stroke="#5CB0E7" cx="5" cy="5" r="5"></circle>
                                    <circle id="Oval-3" stroke="#D1D7E0" cx="5" cy="25" r="5"></circle>
                                    <circle id="Oval-4" stroke="#D1D7E0" cx="5" cy="45" r="5"></circle>
                                    <circle id="Oval-6" stroke="#D1D7E0" cx="5" cy="85" r="5"></circle>
                                    <circle id="Oval-7" stroke="#D1D7E0" cx="5" cy="105" r="5"></circle>
                                    <circle id="Oval-8" stroke="#D1D7E0" cx="5" cy="145" r="5"></circle>
                                    <circle id="Oval-9" stroke="#D1D7E0" cx="5" cy="165" r="5"></circle>
                                    <rect id="Rectangle-18" opacity="0.499358675" fill="#5CB0E7" x="19" y="2" width="38" height="6"></rect>
                                    <rect id="Rectangle-19" opacity="0.499358675" fill="#D1D7E0" x="19" y="22" width="58" height="6"></rect>
                                    <rect id="Rectangle-20" opacity="0.499358675" fill="#D1D7E0" x="19" y="42" width="28" height="6"></rect>
                                    <rect id="Rectangle-22" opacity="0.499358675" fill="#D1D7E0" x="19" y="82" width="38" height="6"></rect>
                                    <rect id="Rectangle-23" opacity="0.499358675" fill="#D1D7E0" x="19" y="102" width="18" height="6"></rect>
                                    <rect id="Rectangle-25" opacity="0.499358675" fill="#D1D7E0" x="19" y="142" width="28" height="6"></rect>
                                    <rect id="Rectangle-26" opacity="0.499358675" fill="#D1D7E0" x="19" y="162" width="18" height="6"></rect>
                                </g>
                                <rect id="Rectangle-17" stroke="#D1D7E0" x="120" y="0" width="11" height="11" rx="2"></rect>
                                <rect id="Rectangle-24" stroke="#D1D7E0" x="120" y="40" width="11" height="11" rx="2"></rect>
                                <rect id="Rectangle-27" stroke="#D1D7E0" x="120" y="120" width="11" height="11" rx="2"></rect>
                                <rect id="Rectangle-28" stroke="#D1D7E0" x="120" y="200" width="11" height="11" rx="2"></rect>
                                <rect id="Rectangle-29" stroke="#D1D7E0" x="120" y="280" width="11" height="11" rx="2"></rect>
                            </g>
                            <g id="Group" transform="translate(171.000000, 84.000000)">
                                <g>
                                    <rect id="Rectangle-21" opacity="0.499358675" fill="#D1D7E0" x="0" y="25" width="363" height="8"></rect>
                                    <rect id="Rectangle-32" opacity="0.232509328" fill="#45759D" x="23" y="4" width="20" height="8"></rect>
                                    <rect id="Rectangle-40" opacity="0.232509328" fill="#45759D" x="48" y="4" width="40" height="8"></rect>
                                    <rect id="Rectangle-33" opacity="0.499358675" fill="#D1D7E0" x="470" y="3" width="8" height="7"></rect>
                                    <rect id="Rectangle-31" opacity="0.499358675" fill="#D1D7E0" x="0" y="39" width="213" height="8"></rect>
                                    <rect id="Rectangle-35" opacity="0.499358675" fill="#D1D7E0" x="0" y="106" width="363" height="8"></rect>
                                    <rect id="Rectangle-34" opacity="0.499358675" fill="#D1D7E0" x="0" y="120" width="163" height="8"></rect>
                                    <rect id="Rectangle-37" opacity="0.499358675" fill="#D1D7E0" x="0" y="183" width="363" height="8"></rect>
                                    <rect id="Rectangle-36" opacity="0.499358675" fill="#D1D7E0" x="0" y="197" width="233" height="8"></rect>
                                    <rect id="Rectangle-39" opacity="0.499358675" fill="#D1D7E0" x="0" y="263" width="363" height="8"></rect>
                                    <rect id="Rectangle-38" opacity="0.499358675" fill="#D1D7E0" x="0" y="277" width="313" height="8"></rect>
                                    <path d="M13.6805054,14.488626 C15.6914304,13.0355262 17,10.6705795 17,8 C17,3.581722 13.418278,0 9,0 C4.581722,0 1,3.581722 1,8 C1,10.6705795 2.30856957,13.0355262 4.31949461,14.488626 C5.63287031,13.5092742 7.43616087,12.4285714 9,12.4285714 C10.5638391,12.4285714 12.3671297,13.5092742 13.6805054,14.488626 L13.6805054,14.488626 Z M5.5,8.14285714 L5.5,6.42857143 C5.5,4.53857143 7.07007813,3 9,3 C10.9299219,3 12.5,4.53857143 12.5,6.42857143 L12.5,8.14285714 C12.5,10.0328571 10.9299219,11.5714286 9,11.5714286 C7.07007813,11.5714286 5.5,10.0328571 5.5,8.14285714 Z" id="Oval-9" fill="#C3CED7"></path>
                                    <circle id="Oval-10" fill="#D1D7E0" cx="461" cy="7" r="3"></circle>
                                </g>
                                <g id="Group-2" transform="translate(1.000000, 79.000000)">
                                    <rect id="Rectangle-32" opacity="0.232509328" fill="#45759D" x="23" y="3" width="33" height="8"></rect>
                                    <rect id="Rectangle-41" opacity="0.232509328" fill="#45759D" x="61" y="3" width="23" height="8"></rect>
                                    <rect id="Rectangle-33" opacity="0.499358675" fill="#D1D7E0" x="469" y="3" width="8" height="7"></rect>
                                    <circle id="Oval-9" fill="#C3CED7" cx="8" cy="8" r="8"></circle>
                                    <path d="M14.5163437,16.0371429 C14.3659531,15.8914286 10.7993438,12.4285714 8,12.4285714 C5.20065625,12.4285714 1.63404688,15.8914286 1.48365625,16.0371429 C1.18714063,16.3285714 1,16.9221429 1,17.5714286 L1,19.2857143 C1,20.2328571 1.39178125,21 1.875,21 L14.125,21 C14.6082188,21 15,20.2328571 15,19.2857143 L15,17.5714286 C15,16.9221429 14.8128594,16.3285714 14.5163437,16.0371429 L14.5163437,16.0371429 Z M4.5,8.14285714 L4.5,6.42857143 C4.5,4.53857143 6.07007813,3 8,3 C9.92992187,3 11.5,4.53857143 11.5,6.42857143 L11.5,8.14285714 C11.5,10.0328571 9.92992187,11.5714286 8,11.5714286 C6.07007813,11.5714286 4.5,10.0328571 4.5,8.14285714 L4.5,8.14285714 Z" id="Fill-18" fill="#FFFFFF"></path>
                                    <path d="M14.5163437,16.0371429 C14.3659531,15.8914286 10.7993438,12.4285714 8,12.4285714 C5.20065625,12.4285714 1.63404688,15.8914286 1.48365625,16.0371429 C1.18714063,16.3285714 1,16.9221429 1,17.5714286 L1,19.2857143 C1,20.2328571 1.39178125,21 1.875,21 L14.125,21 C14.6082188,21 15,20.2328571 15,19.2857143 L15,17.5714286 C15,16.9221429 14.8128594,16.3285714 14.5163437,16.0371429 L14.5163437,16.0371429 Z M4.5,8.14285714 L4.5,6.42857143 C4.5,4.53857143 6.07007813,3 8,3 C9.92992187,3 11.5,4.53857143 11.5,6.42857143 L11.5,8.14285714 C11.5,10.0328571 9.92992187,11.5714286 8,11.5714286 C6.07007813,11.5714286 4.5,10.0328571 4.5,8.14285714 L4.5,8.14285714 Z" id="Fill-19" fill="#FFFFFF"></path>
                                    <circle id="Oval-12" fill="#51C47D" cx="460" cy="7" r="3"></circle>
                                </g>
                                <g id="Group-3" transform="translate(1.000000, 159.000000)">
                                    <rect id="Rectangle-32" opacity="0.232509328" fill="#45759D" x="23" y="3" width="53" height="8"></rect>
                                    <rect id="Rectangle-42" opacity="0.232509328" fill="#45759D" x="81" y="3" width="33" height="8"></rect>
                                    <rect id="Rectangle-33" opacity="0.499358675" fill="#D1D7E0" x="469" y="3" width="8" height="7"></rect>
                                    <circle id="Oval-9" fill="#C3CED7" cx="8" cy="8" r="8"></circle>
                                    <circle id="Oval-11" fill="#D1D7E0" cx="460" cy="7" r="3"></circle>
                                </g>
                                <g id="Group-4" transform="translate(1.000000, 240.000000)">
                                    <rect id="Rectangle-32" opacity="0.232509328" fill="#45759D" x="23" y="3" width="23" height="8"></rect>
                                    <rect id="Rectangle-43" opacity="0.232509328" fill="#45759D" x="51" y="3" width="43" height="8"></rect>
                                    <rect id="Rectangle-33" opacity="0.499358675" fill="#D1D7E0" x="469" y="3" width="8" height="7"></rect>
                                    <rect id="Rectangle-46" opacity="0.499358675" fill="#D1D7E0" x="21" y="99" width="46" height="4"></rect>
                                    <rect id="Rectangle-48" opacity="0.499358675" fill="#D1D7E0" x="71" y="99" width="6" height="4"></rect>
                                    <circle id="Oval-9" fill="#C3CED7" cx="8" cy="8" r="8"></circle>
                                    <circle id="Oval-13" fill="#F2561A" cx="460" cy="7" r="3"></circle>
                                </g>
                                <g id="Group-5" transform="translate(1.000000, 320.000000)">
                                    <g id="Oval-9-+-Fill-22">
                                        <circle id="Oval-9" fill="#C3CED7" cx="8" cy="8" r="8"></circle>
                                        <path d="M14.5163437,16.0371429 C14.3659531,15.8914286 10.7993438,12.4285714 8,12.4285714 C5.20065625,12.4285714 1.63404688,15.8914286 1.48365625,16.0371429 C1.18714063,16.3285714 1,16.9221429 1,17.5714286 L1,19.2857143 C1,20.2328571 1.39178125,21 1.875,21 L14.125,21 C14.6082188,21 15,20.2328571 15,19.2857143 L15,17.5714286 C15,16.9221429 14.8128594,16.3285714 14.5163437,16.0371429 L14.5163437,16.0371429 Z M4.5,8.14285714 L4.5,6.42857143 C4.5,4.53857143 6.07007813,3 8,3 C9.92992187,3 11.5,4.53857143 11.5,6.42857143 L11.5,8.14285714 C11.5,10.0328571 9.92992187,11.5714286 8,11.5714286 C6.07007813,11.5714286 4.5,10.0328571 4.5,8.14285714 L4.5,8.14285714 Z" id="Fill-22" fill="#FFFFFF"></path>
                                    </g>
                                </g>
                                <path d="M15.5163437,175.037143 C15.3659531,174.891429 11.7993438,171.428571 9,171.428571 C6.20065625,171.428571 2.63404688,174.891429 2.48365625,175.037143 C2.18714063,175.328571 2,175.922143 2,176.571429 L2,178.285714 C2,179.232857 2.39178125,180 2.875,180 L15.125,180 C15.6082188,180 16,179.232857 16,178.285714 L16,176.571429 C16,175.922143 15.8128594,175.328571 15.5163437,175.037143 L15.5163437,175.037143 Z M5.5,167.142857 L5.5,165.428571 C5.5,163.538571 7.07007813,162 9,162 C10.9299219,162 12.5,163.538571 12.5,165.428571 L12.5,167.142857 C12.5,169.032857 10.9299219,170.571429 9,170.571429 C7.07007813,170.571429 5.5,169.032857 5.5,167.142857 L5.5,167.142857 Z" id="Fill-20" fill="#FFFFFF"></path>
                                <path d="M15.5163437,256.037143 C15.3659531,255.891429 11.7993438,252.428571 9,252.428571 C6.20065625,252.428571 2.63404688,255.891429 2.48365625,256.037143 C2.18714063,256.328571 2,256.922143 2,257.571429 L2,259.285714 C2,260.232857 2.39178125,261 2.875,261 L15.125,261 C15.6082188,261 16,260.232857 16,259.285714 L16,257.571429 C16,256.922143 15.8128594,256.328571 15.5163437,256.037143 L15.5163437,256.037143 Z M5.5,248.142857 L5.5,246.428571 C5.5,244.538571 7.07007813,243 9,243 C10.9299219,243 12.5,244.538571 12.5,246.428571 L12.5,248.142857 C12.5,250.032857 10.9299219,251.571429 9,251.571429 C7.07007813,251.571429 5.5,250.032857 5.5,248.142857 L5.5,248.142857 Z" id="Fill-21" fill="#FFFFFF"></path>
                                <rect id="Rectangle-45" opacity="0.499358675" fill="#D1D7E0" x="22" y="320" width="455" height="15"></rect>
                                <path d="M9,307.5 L9,317.439955" id="Line" stroke="#D1D7E0" stroke-linecap="square"></path>
                                <path d="M9,339.5 L9,349.439955" id="Line-6" stroke="#D1D7E0" stroke-linecap="square"></path>
                            </g>
                            <path d="M646.273438,234.220117 L660.155859,248.112109 L660.155859,233.897432 L646.273438,234.220117 Z" id="Path-70" fill="#51C47D"></path>
                            <g id="Group" transform="translate(530.000000, 2.000000)">
                                <rect id="Rectangle-13" fill="#636B76" x="28" y="2" width="55" height="10"></rect>
                                <circle id="Oval-5" stroke="#616772" cx="101" cy="7" r="5"></circle>
                                <circle id="Oval-15" stroke="#616772" cx="121" cy="7" r="5"></circle>
                                <path d="M12.6805054,14.488626 C14.6914304,13.0355262 16,10.6705795 16,8 C16,3.581722 12.418278,0 8,0 C3.581722,0 0,3.581722 0,8 C0,10.6705795 1.30856957,13.0355262 3.31949461,14.488626 C4.63287031,13.5092742 6.43616087,12.4285714 8,12.4285714 C9.56383913,12.4285714 11.3671297,13.5092742 12.6805054,14.488626 L12.6805054,14.488626 Z M4.5,8.14285714 L4.5,6.42857143 C4.5,4.53857143 6.07007813,3 8,3 C9.92992187,3 11.5,4.53857143 11.5,6.42857143 L11.5,8.14285714 C11.5,10.0328571 9.92992187,11.5714286 8,11.5714286 C6.07007813,11.5714286 4.5,10.0328571 4.5,8.14285714 Z" id="Oval-14" fill="#606772"></path>
                            </g>
                            <path d="M170.586914,57 L170.586914,48.4335938 L171.18457,48.4335938 L171.18457,57 L170.586914,57 Z M177.905273,57 L177.905273,52.8691406 C177.905273,52.2285124 177.770509,51.7626968 177.500977,51.4716797 C177.231444,51.1806626 176.813479,51.0351562 176.24707,51.0351562 C175.485348,51.0351562 174.927736,51.2275371 174.574219,51.6123047 C174.220701,51.9970722 174.043945,52.6210894 174.043945,53.484375 L174.043945,57 L173.463867,57 L173.463867,50.6308594 L173.956055,50.6308594 L174.067383,51.5039062 L174.102539,51.5039062 C174.516604,50.8398404 175.252924,50.5078125 176.311523,50.5078125 C177.756843,50.5078125 178.479492,51.2831954 178.479492,52.8339844 L178.479492,57 L177.905273,57 Z M183.231445,50.5078125 C184.122075,50.5078125 184.792966,50.7880831 185.244141,51.3486328 C185.695315,51.9091825 185.920898,52.7285102 185.920898,53.8066406 C185.920898,54.8652397 185.683596,55.6816378 185.208984,56.2558594 C184.734373,56.830081 184.067387,57.1171875 183.208008,57.1171875 C182.754881,57.1171875 182.346682,57.0234384 181.983398,56.8359375 C181.620115,56.6484366 181.333009,56.3828142 181.12207,56.0390625 L181.069336,56.0390625 L180.905273,57 L180.541992,57 L180.541992,47.8828125 L181.12207,47.8828125 L181.12207,50.1738281 C181.12207,50.5175798 181.114258,50.8339829 181.098633,51.1230469 L181.081055,51.6210938 L181.12207,51.6210938 C181.364259,51.2382793 181.656248,50.9570321 181.998047,50.7773438 C182.339845,50.5976554 182.750974,50.5078125 183.231445,50.5078125 Z M183.219727,51.0351562 C182.469723,51.0351562 181.932619,51.2499979 181.608398,51.6796875 C181.284178,52.1093771 181.12207,52.8183544 181.12207,53.8066406 L181.12207,53.90625 C181.12207,54.8671923 181.291014,55.5566385 181.628906,55.9746094 C181.966799,56.3925802 182.49316,56.6015625 183.208008,56.6015625 C183.903324,56.6015625 184.426756,56.3584009 184.77832,55.8720703 C185.129885,55.3857398 185.305664,54.6933639 185.305664,53.7949219 C185.305664,51.9550689 184.610359,51.0351562 183.219727,51.0351562 Z M192.952148,53.8066406 C192.952148,54.8457083 192.700198,55.6572236 192.196289,56.2412109 C191.69238,56.8251982 190.997075,57.1171875 190.110352,57.1171875 C189.551755,57.1171875 189.059572,56.9824232 188.633789,56.7128906 C188.208006,56.443358 187.881837,56.0566431 187.655273,55.5527344 C187.42871,55.0488256 187.31543,54.4668002 187.31543,53.8066406 C187.31543,52.7675729 187.56738,51.9580107 188.071289,51.3779297 C188.575198,50.7978487 189.266597,50.5078125 190.145508,50.5078125 C191.020512,50.5078125 191.707029,50.8017549 192.205078,51.3896484 C192.703127,51.977542 192.952148,52.783198 192.952148,53.8066406 Z M187.924805,53.8066406 C187.924805,54.681645 188.117186,55.3642554 188.501953,55.8544922 C188.886721,56.344729 189.430661,56.5898438 190.133789,56.5898438 C190.836918,56.5898438 191.380857,56.344729 191.765625,55.8544922 C192.150393,55.3642554 192.342773,54.681645 192.342773,53.8066406 C192.342773,52.92773 192.148439,52.2460962 191.759766,51.7617188 C191.371092,51.2773413 190.825199,51.0351562 190.12207,51.0351562 C189.418942,51.0351562 188.876955,51.2763648 188.496094,51.7587891 C188.115232,52.2412133 187.924805,52.9238237 187.924805,53.8066406 Z M196.280273,53.7246094 L194.05957,50.6308594 L194.727539,50.6308594 L196.625977,53.3144531 L198.506836,50.6308594 L199.145508,50.6308594 L196.959961,53.7246094 L199.303711,57 L198.629883,57 L196.625977,54.1582031 L194.610352,57 L193.97168,57 L196.280273,53.7246094 Z" id="Inbox" fill-opacity="0.735309103" fill="#636B76"></path>
                        </g>
                        <g id="Rectangle-55-+-Rectangle-61" transform="translate(532.000000, 42.000000)">
                            <rect id="Rectangle-55" stroke="#D1D7E0" x="0" y="0" width="117" height="20"></rect>
                            <rect id="Rectangle-61" fill="#51C47D" x="96" y="0" width="21" height="20"></rect>
                        </g>
                        <g id="loupe" transform="translate(635.000000, 48.000000)" stroke="#FFFFFF">
                            <ellipse id="Oval-16" cx="3.2" cy="3.27272727" rx="3.2" ry="3.27272727"></ellipse>
                            <path d="M5.2,6.13636364 L7.6,8.59090909" id="Line" stroke-linecap="square"></path>
                        </g>
                        <g id="Group" transform="translate(132.000000, 138.000000)">
                            <rect id="Rectangle-56" fill="#5767A6" x="39" y="0" width="6" height="6"></rect>
                            <rect id="Rectangle-57" fill="#00AFF0" x="39" y="80" width="6" height="6"></rect>
                            <rect id="Rectangle-58" fill="#5767A6" x="39" y="160" width="6" height="6"></rect>
                            <rect id="Rectangle-59" fill="#00AFF0" x="39" y="240" width="6" height="6"></rect>
                            <path d="M52.5,3.5 L100.789855,3.5" id="Line" stroke="#D1D7E0" stroke-width="3" stroke-linecap="square" opacity="0.507462687"></path>
                            <path d="M52.5,83.5 L100.789855,83.5" id="Line-7" stroke="#D1D7E0" stroke-width="3" stroke-linecap="square" opacity="0.507462687"></path>
                            <path d="M52.5,163.5 L100.789855,163.5" id="Line-8" stroke="#D1D7E0" stroke-width="3" stroke-linecap="square" opacity="0.507462687"></path>
                            <path d="M52.5,243.5 L100.789855,243.5" id="Line-9" stroke="#D1D7E0" stroke-width="3" stroke-linecap="square" opacity="0.507462687"></path>
                            <rect id="Rectangle-60" fill="#79528E" x="0" y="95" width="2" height="80"></rect>
                        </g>
                    </g>
                </g>
                <g id="BUBBLES" transform="translate(0.000000, 37.000000)" sketch:type="MSShapeGroup">
                    <g id="BB-Line" transform="translate(1147.000000, 0.000000)">
                        <path d="M5.48864764,40.6449702 C2.05435713,36.3626774 0,30.9261491 0,25.0098038 C0,11.1972706 11.1973585,0 25.0100002,0 C38.8226419,0 50.0200005,11.1972706 50.0200005,25.0098038 C50.0200005,38.822337 38.8226419,50.0196075 25.0100002,50.0196075 C20.5516166,50.0196075 16.3657039,48.8530302 12.7408608,46.8084719 C10.2505892,47.5941706 7.59269398,48.0188232 4.83267054,48.0188232 C4.19687842,48.0188232 3.5665057,47.9962892 2.94235297,47.9519987 C4.16007771,45.6981561 5.03170237,43.2402794 5.48864764,40.6449702 Z" id="Oval-48" fill="#BFCDE1"></path>
                        <path d="M25.4901961,0.00471177638 C39.0710697,0.26599776 50,11.361106 50,25.0098038 C50,38.822337 38.8071187,50.0196075 25,50.0196075 C24.6653841,50.0196075 24.3323036,50.013031 24.0008807,50 L25.4901961,50 L25.4901961,0.00471177638 Z" id="Oval-50" opacity="0.2" fill="#FFFFFF"></path>
                        <path d="M11.9999602,28 C11.4476974,28 11,28.4437166 11,28.9998075 L11,32.0001925 C11,32.5523709 11.4547089,33 11.9999602,33 L27.0000398,33 C27.5523026,33 28,32.5562834 28,32.0001925 L28,28.9998075 C28,28.4476291 27.5452911,28 27.0000398,28 L11.9999602,28 Z M11.9965348,16 C11.4461638,16 11,16.4437166 11,16.9998075 L11,20.0001925 C11,20.5523709 11.4398131,21 11.9965348,21 L38.0034652,21 C38.5538362,21 39,20.5562834 39,20.0001925 L39,16.9998075 C39,16.4476291 38.5601869,16 38.0034652,16 L11.9965348,16 Z" id="Rectangle-2" fill="#FFFFFF"></path>
                    </g>
                    <g id="BB-Line" transform="translate(126.000000, 356.000000)">
                        <path d="M5.48864764,40.6449702 C2.05435713,36.3626774 0,30.9261491 0,25.0098038 C0,11.1972706 11.1973585,0 25.0100002,0 C38.8226419,0 50.0200005,11.1972706 50.0200005,25.0098038 C50.0200005,38.822337 38.8226419,50.0196075 25.0100002,50.0196075 C20.5516166,50.0196075 16.3657039,48.8530302 12.7408608,46.8084719 C10.2505892,47.5941706 7.59269398,48.0188232 4.83267054,48.0188232 C4.19687842,48.0188232 3.5665057,47.9962892 2.94235297,47.9519987 C4.16007771,45.6981561 5.03170237,43.2402794 5.48864764,40.6449702 Z" id="Oval-48" fill="#BFCDE1"></path>
                        <path d="M25.4901961,0.00471177638 C39.0710697,0.26599776 50,11.361106 50,25.0098038 C50,38.822337 38.8071187,50.0196075 25,50.0196075 C24.6653841,50.0196075 24.3323036,50.013031 24.0008807,50 L25.4901961,50 L25.4901961,0.00471177638 Z" id="Oval-50" opacity="0.2" fill="#FFFFFF"></path>
                        <path d="M11.9999602,28 C11.4476974,28 11,28.4437166 11,28.9998075 L11,32.0001925 C11,32.5523709 11.4547089,33 11.9999602,33 L27.0000398,33 C27.5523026,33 28,32.5562834 28,32.0001925 L28,28.9998075 C28,28.4476291 27.5452911,28 27.0000398,28 L11.9999602,28 Z M11.9965348,16 C11.4461638,16 11,16.4437166 11,16.9998075 L11,20.0001925 C11,20.5523709 11.4398131,21 11.9965348,21 L38.0034652,21 C38.5538362,21 39,20.5562834 39,20.0001925 L39,16.9998075 C39,16.4476291 38.5601869,16 38.0034652,16 L11.9965348,16 Z" id="Rectangle-2" fill="#FFFFFF"></path>
                    </g>
                    <g id="BB-Line">
                        <path d="M5.48864764,40.6449702 C2.05435713,36.3626774 0,30.9261491 0,25.0098038 C0,11.1972706 11.1973585,0 25.0100002,0 C38.8226419,0 50.0200005,11.1972706 50.0200005,25.0098038 C50.0200005,38.822337 38.8226419,50.0196075 25.0100002,50.0196075 C20.5516166,50.0196075 16.3657039,48.8530302 12.7408608,46.8084719 C10.2505892,47.5941706 7.59269398,48.0188232 4.83267054,48.0188232 C4.19687842,48.0188232 3.5665057,47.9962892 2.94235297,47.9519987 C4.16007771,45.6981561 5.03170237,43.2402794 5.48864764,40.6449702 Z" id="Oval-48" fill="#677FE0"></path>
                        <path d="M25.4901961,0.00471177638 C39.0710697,0.26599776 50,11.361106 50,25.0098038 C50,38.822337 38.8071187,50.0196075 25,50.0196075 C24.6653841,50.0196075 24.3323036,50.013031 24.0008807,50 L25.4901961,50 L25.4901961,0.00471177638 Z" id="Oval-50" opacity="0.2" fill="#FFFFFF"></path>
                        <path d="M11.9999602,28 C11.4476974,28 11,28.4437166 11,28.9998075 L11,32.0001925 C11,32.5523709 11.4547089,33 11.9999602,33 L27.0000398,33 C27.5523026,33 28,32.5562834 28,32.0001925 L28,28.9998075 C28,28.4476291 27.5452911,28 27.0000398,28 L11.9999602,28 Z M11.9965348,16 C11.4461638,16 11,16.4437166 11,16.9998075 L11,20.0001925 C11,20.5523709 11.4398131,21 11.9965348,21 L38.0034652,21 C38.5538362,21 39,20.5562834 39,20.0001925 L39,16.9998075 C39,16.4476291 38.5601869,16 38.0034652,16 L11.9965348,16 Z" id="Rectangle-2" fill="#FFFFFF"></path>
                    </g>
                    <g id="BB-Facebook" transform="translate(1172.000000, 228.000000)">
                        <path d="M5.48864764,40.6449702 C2.05435713,36.3626774 0,30.9261491 0,25.0098038 C0,11.1972706 11.1973585,0 25.0100002,0 C38.8226419,0 50.0200005,11.1972706 50.0200005,25.0098038 C50.0200005,38.822337 38.8226419,50.0196075 25.0100002,50.0196075 C20.5516166,50.0196075 16.3657039,48.8530302 12.7408608,46.8084719 C10.2505892,47.5941706 7.59269398,48.0188232 4.83267054,48.0188232 C4.19687842,48.0188232 3.5665057,47.9962892 2.94235297,47.9519987 C4.16007771,45.6981561 5.03170237,43.2402794 5.48864764,40.6449702 Z" id="Oval-48" fill="#BFCDE1"></path>
                        <path d="M19,20.6644068 L21.7123995,20.6644068 L21.7123995,18.029108 C21.7123995,16.8664308 21.7416978,15.0746126 22.5851784,13.9643638 C23.4749195,12.7893505 24.6946512,11.9905882 26.7948719,11.9905882 C30.215055,11.9905882 31.6552944,12.4778641 31.6552944,12.4778641 L30.978351,16.4948058 C30.978351,16.4948058 29.8480561,16.1694413 28.7933197,16.1694413 C27.7385833,16.1694413 26.7948719,16.5472342 26.7948719,17.6004286 L26.7948719,20.6644068 L31.1186742,20.6644068 L30.8164398,24.5872858 L26.7948719,24.5872858 L26.7948719,38.2171315 L21.7123995,38.2171315 L21.7123995,24.5872858 L19,24.5872858 L19,20.6644068" id="Fill-173" fill="#FFFFFF"></path>
                        <path d="M25.4901961,0.00471177638 C39.0710697,0.26599776 50,11.361106 50,25.0098038 C50,38.822337 38.8071187,50.0196075 25,50.0196075 C24.6653841,50.0196075 24.3323036,50.013031 24.0008807,50 L25.4901961,50 L25.4901961,0.00471177638 Z" id="Oval-50" opacity="0.2" fill="#FFFFFF"></path>
                    </g>
                    <g id="BB-Facebook" transform="translate(126.000000, 125.000000)">
                        <path d="M5.48864764,40.6449702 C2.05435713,36.3626774 0,30.9261491 0,25.0098038 C0,11.1972706 11.1973585,0 25.0100002,0 C38.8226419,0 50.0200005,11.1972706 50.0200005,25.0098038 C50.0200005,38.822337 38.8226419,50.0196075 25.0100002,50.0196075 C20.5516166,50.0196075 16.3657039,48.8530302 12.7408608,46.8084719 C10.2505892,47.5941706 7.59269398,48.0188232 4.83267054,48.0188232 C4.19687842,48.0188232 3.5665057,47.9962892 2.94235297,47.9519987 C4.16007771,45.6981561 5.03170237,43.2402794 5.48864764,40.6449702 Z" id="Oval-48" fill="#BFCDE1"></path>
                        <path d="M19,20.6644068 L21.7123995,20.6644068 L21.7123995,18.029108 C21.7123995,16.8664308 21.7416978,15.0746126 22.5851784,13.9643638 C23.4749195,12.7893505 24.6946512,11.9905882 26.7948719,11.9905882 C30.215055,11.9905882 31.6552944,12.4778641 31.6552944,12.4778641 L30.978351,16.4948058 C30.978351,16.4948058 29.8480561,16.1694413 28.7933197,16.1694413 C27.7385833,16.1694413 26.7948719,16.5472342 26.7948719,17.6004286 L26.7948719,20.6644068 L31.1186742,20.6644068 L30.8164398,24.5872858 L26.7948719,24.5872858 L26.7948719,38.2171315 L21.7123995,38.2171315 L21.7123995,24.5872858 L19,24.5872858 L19,20.6644068" id="Fill-173" fill="#FFFFFF"></path>
                        <path d="M25.4901961,0.00471177638 C39.0710697,0.26599776 50,11.361106 50,25.0098038 C50,38.822337 38.8071187,50.0196075 25,50.0196075 C24.6653841,50.0196075 24.3323036,50.013031 24.0008807,50 L25.4901961,50 L25.4901961,0.00471177638 Z" id="Oval-50" opacity="0.2" fill="#FFFFFF"></path>
                    </g>
                    <g id="BB--Twitter" transform="translate(25.000000, 253.000000)">
                        <path d="M5.48864764,40.6449702 C2.05435713,36.3626774 0,30.9261491 0,25.0098038 C0,11.1972706 11.1973585,0 25.0100002,0 C38.8226419,0 50.0200005,11.1972706 50.0200005,25.0098038 C50.0200005,38.822337 38.8226419,50.0196075 25.0100002,50.0196075 C20.5516166,50.0196075 16.3657039,48.8530302 12.7408608,46.8084719 C10.2505892,47.5941706 7.59269398,48.0188232 4.83267054,48.0188232 C4.19687842,48.0188232 3.5665057,47.9962892 2.94235297,47.9519987 C4.16007771,45.6981561 5.03170237,43.2402794 5.48864764,40.6449702 Z" id="Oval-48" fill="#52CCCC"></path>
                        <path d="M39.0000001,17.0054496 C38.0430682,17.430413 37.0127612,17.7177983 35.932009,17.8462045 C37.0356909,17.1858297 37.8825604,16.1387077 38.2815368,14.8913332 C37.2481726,15.5027913 36.1062746,15.9476271 34.8864157,16.1860957 C33.9141973,15.1481456 32.5246587,14.5 30.9868416,14.5 C28.0380848,14.5 25.645755,16.8923299 25.645755,19.8426152 C25.645755,20.261464 25.6916144,20.6680837 25.7833331,21.0594169 C21.3426186,20.8362347 17.406357,18.7114177 14.7694439,15.4752757 C14.3093217,16.2671139 14.0463947,17.1858297 14.0463947,18.1641627 C14.0463947,20.0168808 14.9895688,21.6525312 16.4234381,22.6109918 C15.549053,22.5850048 14.7235845,22.3419502 14.002064,21.9445025 L14.002064,22.0102342 C14.002064,24.5997593 15.8440815,26.7597351 18.2899139,27.2489016 C17.8420209,27.3742505 17.3696695,27.4369249 16.8820316,27.4369249 C16.5380865,27.4369249 16.2017845,27.4048234 15.8761831,27.3421489 C16.5564302,29.4639086 18.5283826,31.0093689 20.8672099,31.0506424 C19.0389501,32.4845116 16.7337531,33.3390243 14.2313607,33.3390243 C13.8002828,33.3390243 13.3737907,33.314566 12.9564706,33.2656494 C15.3212848,34.7790082 18.1309348,35.6640938 21.146952,35.6640938 C30.9761411,35.6640938 36.3493292,27.5240577 36.3493292,20.4632452 C36.3493292,20.2308911 36.3447433,19.998537 36.3355714,19.7707689 C37.3796361,19.0171468 38.2861228,18.0770299 39.0000001,17.0054496" id="Fill-169" fill="#FFFFFF"></path>
                        <path d="M25.4901961,0.00471177638 C39.0710697,0.26599776 50,11.361106 50,25.0098038 C50,38.822337 38.8071187,50.0196075 25,50.0196075 C24.6653841,50.0196075 24.3323036,50.013031 24.0008807,50 L25.4901961,50 L25.4901961,0.00471177638 Z" id="Oval-50" opacity="0.2" fill="#FFFFFF"></path>
                    </g>
                    <g id="BB--Twitter" transform="translate(1049.000000, 150.000000)">
                        <path d="M5.48864764,40.6449702 C2.05435713,36.3626774 0,30.9261491 0,25.0098038 C0,11.1972706 11.1973585,0 25.0100002,0 C38.8226419,0 50.0200005,11.1972706 50.0200005,25.0098038 C50.0200005,38.822337 38.8226419,50.0196075 25.0100002,50.0196075 C20.5516166,50.0196075 16.3657039,48.8530302 12.7408608,46.8084719 C10.2505892,47.5941706 7.59269398,48.0188232 4.83267054,48.0188232 C4.19687842,48.0188232 3.5665057,47.9962892 2.94235297,47.9519987 C4.16007771,45.6981561 5.03170237,43.2402794 5.48864764,40.6449702 Z" id="Oval-48" fill="#52CCCC"></path>
                        <path d="M39.0000001,17.0054496 C38.0430682,17.430413 37.0127612,17.7177983 35.932009,17.8462045 C37.0356909,17.1858297 37.8825604,16.1387077 38.2815368,14.8913332 C37.2481726,15.5027913 36.1062746,15.9476271 34.8864157,16.1860957 C33.9141973,15.1481456 32.5246587,14.5 30.9868416,14.5 C28.0380848,14.5 25.645755,16.8923299 25.645755,19.8426152 C25.645755,20.261464 25.6916144,20.6680837 25.7833331,21.0594169 C21.3426186,20.8362347 17.406357,18.7114177 14.7694439,15.4752757 C14.3093217,16.2671139 14.0463947,17.1858297 14.0463947,18.1641627 C14.0463947,20.0168808 14.9895688,21.6525312 16.4234381,22.6109918 C15.549053,22.5850048 14.7235845,22.3419502 14.002064,21.9445025 L14.002064,22.0102342 C14.002064,24.5997593 15.8440815,26.7597351 18.2899139,27.2489016 C17.8420209,27.3742505 17.3696695,27.4369249 16.8820316,27.4369249 C16.5380865,27.4369249 16.2017845,27.4048234 15.8761831,27.3421489 C16.5564302,29.4639086 18.5283826,31.0093689 20.8672099,31.0506424 C19.0389501,32.4845116 16.7337531,33.3390243 14.2313607,33.3390243 C13.8002828,33.3390243 13.3737907,33.314566 12.9564706,33.2656494 C15.3212848,34.7790082 18.1309348,35.6640938 21.146952,35.6640938 C30.9761411,35.6640938 36.3493292,27.5240577 36.3493292,20.4632452 C36.3493292,20.2308911 36.3447433,19.998537 36.3355714,19.7707689 C37.3796361,19.0171468 38.2861228,18.0770299 39.0000001,17.0054496" id="Fill-169" fill="#FFFFFF"></path>
                        <path d="M25.4901961,0.00471177638 C39.0710697,0.26599776 50,11.361106 50,25.0098038 C50,38.822337 38.8071187,50.0196075 25,50.0196075 C24.6653841,50.0196075 24.3323036,50.013031 24.0008807,50 L25.4901961,50 L25.4901961,0.00471177638 Z" id="Oval-50" opacity="0.2" fill="#FFFFFF"></path>
                    </g>
                    <g id="BB--Twitter" transform="translate(1099.000000, 381.000000)">
                        <path d="M5.48864764,40.6449702 C2.05435713,36.3626774 0,30.9261491 0,25.0098038 C0,11.1972706 11.1973585,0 25.0100002,0 C38.8226419,0 50.0200005,11.1972706 50.0200005,25.0098038 C50.0200005,38.822337 38.8226419,50.0196075 25.0100002,50.0196075 C20.5516166,50.0196075 16.3657039,48.8530302 12.7408608,46.8084719 C10.2505892,47.5941706 7.59269398,48.0188232 4.83267054,48.0188232 C4.19687842,48.0188232 3.5665057,47.9962892 2.94235297,47.9519987 C4.16007771,45.6981561 5.03170237,43.2402794 5.48864764,40.6449702 Z" id="Oval-48" fill="#677FE0"></path>
                        <path d="M39.0000001,17.0054496 C38.0430682,17.430413 37.0127612,17.7177983 35.932009,17.8462045 C37.0356909,17.1858297 37.8825604,16.1387077 38.2815368,14.8913332 C37.2481726,15.5027913 36.1062746,15.9476271 34.8864157,16.1860957 C33.9141973,15.1481456 32.5246587,14.5 30.9868416,14.5 C28.0380848,14.5 25.645755,16.8923299 25.645755,19.8426152 C25.645755,20.261464 25.6916144,20.6680837 25.7833331,21.0594169 C21.3426186,20.8362347 17.406357,18.7114177 14.7694439,15.4752757 C14.3093217,16.2671139 14.0463947,17.1858297 14.0463947,18.1641627 C14.0463947,20.0168808 14.9895688,21.6525312 16.4234381,22.6109918 C15.549053,22.5850048 14.7235845,22.3419502 14.002064,21.9445025 L14.002064,22.0102342 C14.002064,24.5997593 15.8440815,26.7597351 18.2899139,27.2489016 C17.8420209,27.3742505 17.3696695,27.4369249 16.8820316,27.4369249 C16.5380865,27.4369249 16.2017845,27.4048234 15.8761831,27.3421489 C16.5564302,29.4639086 18.5283826,31.0093689 20.8672099,31.0506424 C19.0389501,32.4845116 16.7337531,33.3390243 14.2313607,33.3390243 C13.8002828,33.3390243 13.3737907,33.314566 12.9564706,33.2656494 C15.3212848,34.7790082 18.1309348,35.6640938 21.146952,35.6640938 C30.9761411,35.6640938 36.3493292,27.5240577 36.3493292,20.4632452 C36.3493292,20.2308911 36.3447433,19.998537 36.3355714,19.7707689 C37.3796361,19.0171468 38.2861228,18.0770299 39.0000001,17.0054496" id="Fill-169" fill="#FFFFFF"></path>
                        <path d="M25.4901961,0.00471177638 C39.0710697,0.26599776 50,11.361106 50,25.0098038 C50,38.822337 38.8071187,50.0196075 25,50.0196075 C24.6653841,50.0196075 24.3323036,50.013031 24.0008807,50 L25.4901961,50 L25.4901961,0.00471177638 Z" id="Oval-50" opacity="0.2" fill="#FFFFFF"></path>
                    </g>
                </g>
            </g>
            <path d="M365.063714,64.627451 C363.300584,64.627451 361.857163,64.1333355 360.521199,63.0725786 C360.437577,63.0060966 360.383648,62.908724 360.371398,62.80195 C360.359281,62.6953102 360.389773,62.5881332 360.456352,62.5041913 L360.844637,62.0146422 C360.911615,61.9300288 361.009619,61.8764403 361.116411,61.8655614 C361.223469,61.8538767 361.329861,61.8874535 361.412285,61.9567559 C362.387527,62.7765659 363.65012,63.2097061 365.063714,63.2097061 C366.571716,63.2097061 368.183048,62.5697331 368.183048,60.7732424 C368.183048,59.5933553 367.319126,58.9853474 364.881689,58.4499996 C362.19112,57.8309785 360.635714,57.0438051 360.635714,54.8496313 C360.635714,52.6421611 362.25943,51.2156863 364.7725,51.2156863 C366.188224,51.2156863 367.458541,51.6673608 368.656155,52.5964967 C368.829658,52.7310724 368.86348,52.9811521 368.732187,53.1577658 L368.368136,53.6473149 C368.303289,53.7344801 368.206217,53.7914263 368.098893,53.8052599 C367.991435,53.8190935 367.883445,53.7882029 367.799024,53.7201093 C366.867724,52.9685272 365.941884,52.6334312 364.796735,52.6334312 C363.767698,52.6334312 362.041319,52.9213854 362.041319,54.8496313 C362.041319,56.021863 362.720685,56.5003989 365.201798,57.0760388 C367.834443,57.6763912 369.588652,58.5351502 369.588652,60.7732424 C369.588652,63.0424938 367.727918,64.627451 365.063714,64.627451 M372.488558,64.627451 L371.851867,64.627451 C371.620305,64.627451 371.432624,64.4464528 371.432624,64.2231363 L371.432624,46.4043147 C371.432624,46.1809982 371.620305,46 371.851867,46 L372.488558,46 C372.72012,46 372.907801,46.1809982 372.907801,46.4043147 L372.907801,64.2231363 C372.907801,64.4464528 372.72012,64.627451 372.488558,64.627451 M376.22695,57.1764706 L385.078014,57.1764706 C384.843168,54.4463322 383.166627,52.7058824 380.721512,52.7058824 C378.277727,52.7058824 376.512387,54.4848431 376.22695,57.1764706 M381.067817,64.627451 C377.230912,64.627451 374.751773,62.0000027 374.751773,57.9338577 C374.751773,53.9783817 377.208251,51.2156863 380.725761,51.2156863 C384.211358,51.2156863 386.553191,53.8564309 386.553191,57.7869258 L386.553191,58.1541212 C386.553191,58.376668 386.373112,58.5570423 386.15093,58.5570423 L376.186909,58.5570423 C376.403459,61.4794287 378.203849,63.2097061 381.067817,63.2097061 C383.345423,63.2097061 384.620458,62.0462044 385.177725,61.3527772 C385.245573,61.2682981 385.344529,61.2148439 385.452335,61.204368 C385.560276,61.1941606 385.667411,61.2273345 385.750143,61.2971741 L386.214487,61.6888134 C386.38156,61.8298358 386.40583,62.0787067 386.269061,62.2494109 C385.03881,63.7829284 383.191491,64.627451 381.067817,64.627451 M389.87234,57.1764706 L398.723404,57.1764706 C398.488691,54.4463322 396.812151,52.7058824 394.366902,52.7058824 C391.923117,52.7058824 390.157777,54.4848431 389.87234,57.1764706 M394.713342,64.627451 C390.876302,64.627451 388.397163,62.0000027 388.397163,57.9338577 C388.397163,53.9783817 390.853641,51.2156863 394.371151,51.2156863 C397.856748,51.2156863 400.198582,53.8564309 400.198582,57.7869258 L400.198582,58.1541212 C400.198582,58.376668 400.018502,58.5570423 399.79632,58.5570423 L389.832299,58.5570423 C390.048849,61.4794287 391.849239,63.2097061 394.713342,63.2097061 C396.991081,63.2097061 398.265982,62.0463387 398.823115,61.3527772 C398.890963,61.2682981 398.989919,61.2148439 399.097725,61.204368 C399.205666,61.1941606 399.312801,61.2273345 399.395533,61.2971741 L399.859877,61.6888134 C400.027084,61.8298358 400.05122,62.0787067 399.914451,62.2494109 C398.684201,63.7829284 396.837015,64.627451 394.713342,64.627451 M411.604942,64.627451 L410.861099,64.627451 C410.735347,64.627451 410.617233,64.5662647 410.542835,64.4626254 L406.683117,59.0902267 L403.321928,64.4417358 C403.249242,64.5573698 403.124017,64.627451 402.989575,64.627451 L402.437584,64.627451 C402.219396,64.627451 402.042553,64.4464528 402.042553,64.2231363 L402.042553,46.4043147 C402.042553,46.1809982 402.219396,46 402.437584,46 L403.037637,46 C403.255826,46 403.432668,46.1809982 403.432668,46.4043147 L403.432668,61.6661155 L409.592785,51.8462554 C409.665471,51.7304867 409.790696,51.6604055 409.925138,51.6604055 L410.621051,51.6604055 C410.765764,51.6604055 410.89889,51.7414032 410.96802,51.8714577 C411.037151,52.0012427 411.031489,52.1595993 410.953009,52.2839935 L407.476866,57.7973632 L411.923206,63.9836472 C412.011429,64.1064241 412.024729,64.2696325 411.957442,64.405617 C411.890155,64.5416015 411.753869,64.627451 411.604942,64.627451" id="Logo-Sleek-2" fill="#FFFFFF" sketch:type="MSShapeGroup"></path>
        </g>
    </g>
</svg>