<?xml version="1.0" encoding="utf-8"?>
<!-- Generator: Adobe Illustrator 16.0.0, SVG Export Plug-In . SVG Version: 6.00 Build 0)  -->
<!DOCTYPE svg PUBLIC "-//W3C//DTD SVG 1.1//EN" "http://www.w3.org/Graphics/SVG/1.1/DTD/svg11.dtd">
<svg version="1.1" id="Layer_1" xmlns="http://www.w3.org/2000/svg" xmlns:xlink="http://www.w3.org/1999/xlink" x="0px" y="0px"
	 width="80px" height="80px" viewBox="0 0 80 80" enable-background="new 0 0 80 80" xml:space="preserve">
<path fill="#FF7A34" d="M-195.822,73.339c-0.254-0.191-0.309-0.633-0.309-0.97c0,0.337,0.055,0.8,0.309,0.991
	c0.259,0.195,0.733,0.208,1.058,0.155l9.372-10.353l-9.373,10.353C-195.091,73.568-195.563,73.534-195.822,73.339z"/>
<polygon fill="#FF7A34" points="-202.636,17.581 -202.646,18.51 -202.645,18.51 "/>
<path fill="#FF7A34" d="M-138.525,11h-60.394c-2.293,0-4.081,1.458-4.081,3.75v1.901l-4.462-0.042c-2.501,0-3.538,1.216-3.538,3.717
	v40.857c0,0.925,0.028,2.119,0.776,2.895c0.755,0.782,1.915,0.922,2.947,0.922H-198v7.367c0,1.385,0.582,2.104,1.066,2.465
	c0.561,0.418,1.223,0.531,1.774,0.531c0.592,0,1.063-0.131,1.154-0.159l0.25-0.042L-184.565,65h28.361l4.182,4.605l0.276,0.051
	c0.044,0.012,0.44,0.098,0.957,0.098c0.896,0,1.557-0.282,2.08-0.809c0.535-0.536,0.709-1.292,0.709-2.23V59h9.525
	c2.403,0,3.475-1.099,3.475-3.438V14.866C-135,12.323-136.084,11-138.525,11z M-185.393,63l-9.372,10.434
	c-0.325,0.053-0.734,0.081-0.993-0.114c-0.254-0.191-0.243-0.613-0.243-0.95V63h-11.277c-0.861,0-1.333-0.07-1.539-0.283
	c-0.196-0.203-0.185-0.672-0.185-1.5V20.326c0-1.459,0.332-1.858,1.783-1.858l4.425,0.042L-203,17.581v38.06
	c0,2.297,1.754,3.359,4.094,3.359h37.676l3.351,4H-185.393z M-137,54.588c0,1.336-0.169,2.412-1.513,2.412H-150v9.721
	c0,0.43,0.076,0.758-0.096,0.931c-0.287,0.289-0.749,0.503-1.04,0.472L-160.402,57h-38.492c-1.32,0-2.106-1.074-2.106-2.359V14.75
	c0-1.268,0.813-1.75,2.081-1.75h60.394c1.234,0,1.525,0.187,1.525,1.866V54.588z"/>
<polygon fill="#FF7A34" points="-202.646,18.51 -207.288,18.468 -202.646,18.51 "/>
<path fill="#FF7A34" d="M-179.42,32.33c-2.041,0-3.7,1.659-3.7,3.698c0,2.04,1.66,3.699,3.7,3.699c2.041,0,3.7-1.659,3.7-3.699
	C-175.72,33.989-177.379,32.33-179.42,32.33z M-179.42,37.869c-1.017,0-1.842-0.824-1.842-1.84c0-1.016,0.825-1.839,1.842-1.839
	c1.018,0,1.842,0.824,1.842,1.839C-177.578,37.045-178.402,37.869-179.42,37.869z"/>
<path fill="#FF7A34" d="M-169.188,32.33c-2.041,0-3.701,1.659-3.701,3.698c0,2.04,1.66,3.699,3.701,3.699
	c2.04,0,3.701-1.659,3.701-3.699C-165.486,33.989-167.147,32.33-169.188,32.33z M-169.188,37.869c-1.018,0-1.843-0.824-1.843-1.84
	c0-1.016,0.825-1.839,1.843-1.839s1.842,0.824,1.842,1.839C-167.346,37.045-168.17,37.869-169.188,37.869z"/>
<path fill="#FF7A34" d="M-158.941,32.33c-2.04,0-3.7,1.659-3.7,3.698c0,2.04,1.66,3.699,3.7,3.699c2.041,0,3.701-1.659,3.701-3.699
	C-155.24,33.989-156.9,32.33-158.941,32.33z M-158.941,37.869c-1.017,0-1.842-0.824-1.842-1.84c0-1.016,0.825-1.839,1.842-1.839
	c1.018,0,1.842,0.824,1.842,1.839C-157.1,37.045-157.924,37.869-158.941,37.869z"/>
<polygon fill="#FF7A34" points="-101,12 -86,12 -86,38 -84,38 -84,10 -103,10 -103,46 -101,46 "/>
<polygon fill="#FF7A34" points="-84,61 -86,61 -86,74 -101,74 -101,61 -103,61 -103,76 -84,76 "/>
<path fill="#FF7A34" d="M-47,76h20V39h-20V76z M-45,41h16v33h-16V41z"/>
<path fill="#FF7A34" d="M33.23,43.484L30.1,40.367L8.166,62.21c-1.59,1.582-2.501,3.745-2.501,5.936
	c0,2.049,0.789,3.962,2.221,5.389c1.687,1.679,3.896,2.643,6.062,2.643h0.001c1.912,0,3.646-0.721,5.016-2.085l22.501-22.406
	l-3.001-2.987l26.771-28.062c1.42,0.413,2.642,0.083,3.282-0.924l4.998-8.206L70.83,8.82l-8.279,5.051
	c-0.954,0.72-1.279,1.926-0.906,3.243L33.23,43.484z M38.91,51.686L17.693,72.814c-1.024,1.02-2.319,1.559-3.744,1.559h-0.001
	c-1.693,0-3.439-0.771-4.79-2.117c-1.091-1.085-1.689-2.545-1.689-4.11c0-1.714,0.718-3.413,1.97-4.659L30.1,42.91L38.91,51.686z
	 M63.777,17.594l-0.259-0.587c-0.159-0.362-0.468-1.253,0.046-1.646l6.994-4.263l0.68,0.681l-4.253,6.98
	c-0.239,0.381-1.001,0.275-1.646,0.001l-0.574-0.242L37.188,47.424l-2.68-2.666L63.777,17.594z"/>
<path fill="#FF7A34" d="M21.303,29.229l-4.161-4.161l3.399-3.403l11.522,14.163l7.411-7.418L26.221,17.966
	c-1.076-1.116-0.33-2.269-0.107-2.562l3.836-3.837l-0.133-9.736l-8.335,8.383l-4.095-1.299l-4.101,4.104l1.297,4.134l-2.671,2.685
	L8.31,16.235l-5.783,5.783l12.994,12.994L21.303,29.229z M17.887,10.964l2.164,0.688l-4.031,4.057l-0.687-2.188L17.887,10.964z
	 M15.192,19.097l0.034,0.108l8.284-8.346l-0.098-0.031l4.66-4.687l0.063,4.689l-3.396,3.401c-0.75,0.911-1.667,3.138,0.237,5.043
	l11.787,9.296l-4.565,4.57L20.677,18.976l-4.812,4.816l-2.678-2.678L15.192,19.097z M8.31,18.784l10.443,10.445l-3.232,3.233
	L5.075,22.018L8.31,18.784z"/>
<path fill="#FF7A34" d="M53.42,42.251l-8.417,8.417l19.843,22.901c1.521,1.515,3.601,2.384,5.704,2.385l0,0
	c1.97,0,3.811-0.753,5.183-2.119c1.616-1.612,2.543-3.725,2.541-5.796c0-1.829-0.694-3.488-2.035-4.822L53.42,42.251z
	 M74.459,72.558c-1.031,1.027-2.419,1.594-3.909,1.594l0,0c-1.631-0.001-3.246-0.678-4.387-1.812L47.464,50.756l6.008-6.007
	L74.993,64.52c0.966,0.964,1.478,2.181,1.478,3.52C76.472,69.635,75.737,71.281,74.459,72.558z"/>
<path fill="#FF7A34" d="M-88.72,48.305c-1.243-1.156-2.902-1.87-4.729-1.87c-3.839,0-6.962,3.13-6.962,6.974
	c0,3.847,3.123,6.975,6.962,6.975c3.84,0,6.963-3.128,6.963-6.975c0-1.343-0.388-2.596-1.048-3.662l17.304-11.722
	c1.27,1.716,3.3,2.835,5.591,2.835c3.84,0,6.962-3.13,6.962-6.975c0-0.414-0.042-0.817-0.112-1.211l14.362-3.351
	c0.843,2.902,3.517,5.031,6.682,5.031c3.839,0,6.963-3.128,6.963-6.974c0-3.846-3.124-6.974-6.963-6.974s-6.962,3.128-6.962,6.974
	c0,0.033,0.004,0.065,0.005,0.098l-14.655,3.42c-1.119-2.353-3.51-3.987-6.281-3.987c-3.839,0-6.963,3.128-6.963,6.974
	c0,0.883,0.172,1.726,0.472,2.504L-88.72,48.305z M-93.448,58.524c-2.814,0-5.104-2.295-5.104-5.116c0-2.82,2.289-5.114,5.104-5.114
	c2.815,0,5.104,2.294,5.104,5.114C-88.344,56.229-90.633,58.524-93.448,58.524z M-36.745,22.264c2.814,0,5.104,2.295,5.104,5.116
	c0,2.82-2.29,5.115-5.104,5.115c-2.813,0-5.104-2.295-5.104-5.115C-41.849,24.559-39.559,22.264-36.745,22.264z M-64.639,28.77
	c2.814,0,5.104,2.295,5.104,5.115c0,2.821-2.289,5.116-5.104,5.116s-5.104-2.295-5.104-5.116
	C-69.743,31.064-67.453,28.77-64.639,28.77z"/>
<path fill="#FF7A34" d="M-75,76h20V45h-20V76z M-73,47h16v27h-16V47z"/>
</svg>
