<?xml version="1.0" standalone="no"?>
<!DOCTYPE svg PUBLIC "-//W3C//DTD SVG 1.1//EN" "http://www.w3.org/Graphics/SVG/1.1/DTD/svg11.dtd" >
<svg xmlns="http://www.w3.org/2000/svg">
<metadata></metadata>
<defs>
<font id="korbregular" horiz-adv-x="1048" >
<font-face units-per-em="2048" ascent="1556" descent="-492" />
<missing-glyph horiz-adv-x="466" />
<glyph unicode="&#xfb01;" horiz-adv-x="1103" d="M29 938q0 26 18 43.5t41 19.5l154 13v80q0 158 104.5 261t257.5 103q96 0 166 -24q51 -16 51 -70q0 -32 -23 -47t-53 -12q-14 2 -41.5 7t-51 8t-48.5 3q-93 0 -150 -63.5t-57 -165.5v-80h465q35 0 56.5 -20t21.5 -54v-870q0 -34 -21.5 -54t-56.5 -20t-56.5 20t-21.5 54 v809h-387v-809q0 -34 -21.5 -54t-56.5 -20t-56 20t-21 54v809h-158q-23 0 -39 15.5t-16 43.5z" />
<glyph unicode="&#xfb02;" horiz-adv-x="1128" d="M29 940q0 26 18 42.5t43 18.5l152 13v61q0 172 103 277.5t282 105.5h239q44 0 71.5 -29.5t27.5 -70.5v-1288q0 -34 -21.5 -54t-56.5 -20t-56.5 20t-21.5 54v1253h-182q-110 0 -170 -64.5t-60 -183.5v-61h197q32 0 50 -18.5t18 -49.5t-18 -49t-50 -18h-197v-809 q0 -34 -21.5 -54t-56.5 -20t-56 20t-21 54v809h-156q-24 0 -40.5 16.5t-16.5 44.5z" />
<glyph horiz-adv-x="0" />
<glyph horiz-adv-x="682" />
<glyph unicode=" "  horiz-adv-x="466" />
<glyph unicode="&#x09;" horiz-adv-x="466" />
<glyph unicode="&#xa0;" horiz-adv-x="466" />
<glyph unicode="!" horiz-adv-x="518" d="M154 94q0 43 31.5 73t72.5 30q42 0 73 -30t31 -73q0 -44 -30.5 -73t-73.5 -29q-42 0 -73 29.5t-31 72.5zM178 872v453q0 30 22 52t58 22t58 -22t22 -52v-453q0 -99 -21 -448q-2 -23 -18 -38t-41 -15t-41 15t-18 38q-21 333 -21 448z" />
<glyph unicode="&#x22;" horiz-adv-x="628" d="M96 1403q-2 28 22.5 50t57.5 22q35 0 58.5 -22t21.5 -50l-23 -332q-2 -21 -18.5 -35t-40.5 -14t-40.5 14t-18.5 35zM373 1403q-2 28 22.5 50t57.5 22q35 0 58 -22t21 -50l-22 -332q-2 -21 -18.5 -35t-40.5 -14t-41 14t-19 35z" />
<glyph unicode="#" d="M31 459q0 30 16.5 47.5t42.5 17.5h146l61 348h-135q-26 0 -43 17.5t-17 48.5q0 30 17 48t43 18h157l60 333q5 26 24.5 43t47.5 17q34 0 53 -19.5t14 -46.5l-57 -327h235l60 333q5 26 24 43t47 17q34 0 53.5 -19.5t14.5 -46.5l-57 -327h120q24 0 41 -17t17 -47 q0 -31 -17 -49.5t-41 -18.5h-143l-61 -348h133q24 0 40.5 -16.5t16.5 -46.5q0 -31 -16.5 -49.5t-40.5 -18.5h-156l-59 -342q-5 -25 -25 -42t-49 -17q-34 0 -52.5 19t-13.5 46l58 336h-236l-59 -342q-5 -25 -25 -42t-49 -17q-34 0 -52 19t-13 46l57 336h-123 q-26 0 -42.5 17.5t-16.5 48.5zM377 524h235l62 348h-236z" />
<glyph unicode="$" d="M162 182q0 32 19 53t50 21q25 0 66 -23q98 -57 209 -57q97 0 162 64.5t65 162.5q0 49 -21 88t-62 66.5t-75 43t-86 34.5q-46 16 -82 31.5t-84.5 46.5t-80.5 66t-55 89t-23 117q0 128 87 230.5t210 130.5v149q0 29 19.5 47.5t49.5 18.5t50 -18.5t20 -47.5v-143 q100 -14 217 -80q47 -27 47 -70q0 -27 -19.5 -48t-49.5 -21q-24 0 -64 22q-95 57 -192 57q-90 0 -156 -67t-66 -160q0 -46 18.5 -80.5t61.5 -62t71 -40t89 -35.5q12 -5 18 -7q120 -45 175 -83q137 -96 137 -274q0 -131 -84 -233.5t-217 -128.5v-162q0 -25 -21 -43t-49 -18 t-49 18t-21 43v156q-114 11 -213 63q-71 36 -71 84z" />
<glyph unicode="%" horiz-adv-x="1429" d="M102 942v236q0 95 73 161t169 66t169 -66t73 -161v-236q0 -95 -73 -162t-169 -67t-169 67t-73 162zM233 942q0 -46 33.5 -79.5t77.5 -33.5q46 0 78.5 32t32.5 81v236q0 49 -32 80.5t-79 31.5q-44 0 -77.5 -33t-33.5 -79v-236zM283 55q0 17 8 33l733 1276q21 35 59 35 q26 0 46 -19t20 -45q0 -18 -6 -30l-737 -1278q-20 -33 -60 -33q-25 0 -44 17.5t-19 43.5zM844 215v236q0 95 72.5 161t168.5 66t169 -66t73 -161v-236q0 -95 -73 -162t-169 -67t-168.5 67t-72.5 162zM975 215q0 -47 33.5 -80t76.5 -33q46 0 78.5 32t32.5 81v236 q0 49 -32 80.5t-79 31.5q-44 0 -77 -33t-33 -79v-236z" />
<glyph unicode="&#x26;" horiz-adv-x="1083" d="M82 377q0 125 59 211.5t172 163.5q-72 93 -106.5 168.5t-34.5 166.5q0 138 97 230t231 92q112 0 198 -59q39 -27 39 -64q0 -27 -18.5 -46t-48.5 -19q-17 0 -72.5 27.5t-97.5 27.5q-80 0 -129 -55t-49 -134q0 -76 46 -150.5t199 -268.5q67 -88 240 -289q43 111 43 231 q0 31 21 49.5t51 18.5q29 0 50 -18.5t21 -49.5q0 -183 -86 -346l144 -162q18 -21 18 -51q0 -27 -20 -46t-52 -19q-29 0 -59 30q-47 49 -117 127q-142 -159 -338 -159q-179 0 -290 112.5t-111 280.5zM225 377q0 -110 73.5 -181t184.5 -71q144 0 246 123q-171 194 -285 342 l-51 63q-168 -123 -168 -276z" />
<glyph unicode="'" horiz-adv-x="368" d="M104 1403q-2 28 22.5 50t57.5 22q35 0 58.5 -22t21.5 -50l-22 -332q-2 -21 -19 -35t-41 -14t-40.5 14t-18.5 35z" />
<glyph unicode="(" horiz-adv-x="501" d="M82 567q0 495 268 860q22 29 56 29q25 0 44 -17t19 -40q0 -24 -10 -37q-221 -317 -221 -795q0 -477 221 -794q10 -13 10 -37q0 -23 -19 -40.5t-44 -17.5q-36 0 -58 29q-266 363 -266 860z" />
<glyph unicode=")" horiz-adv-x="501" d="M33 -264q0 24 10 37q221 317 221 794q0 478 -221 795q-10 13 -10 37q0 23 19 40t44 17q34 0 56 -29q268 -365 268 -860q0 -497 -266 -860q-22 -29 -58 -29q-25 0 -44 17.5t-19 40.5z" />
<glyph unicode="*" horiz-adv-x="548" d="M61 1161q0 27 23 39l119 62l-119 61q-23 11 -23 39q0 18 12.5 30.5t30.5 12.5q13 0 25 -8l113 -78l-11 141q-1 17 11 28t30 11q19 0 31.5 -11t11.5 -28l-10 -141l115 80q12 6 22 6q18 0 30.5 -12.5t12.5 -30.5q0 -28 -22 -39l-119 -61l119 -62q22 -11 22 -39 q0 -17 -13 -30t-30 -13q-12 0 -24 8l-113 78l10 -141q1 -17 -11.5 -28t-31.5 -11q-18 0 -30 11t-11 28l11 141l-115 -80q-12 -6 -23 -6q-17 0 -30 13t-13 30z" />
<glyph unicode="+" d="M119 518q0 31 19.5 51.5t47.5 20.5h265v323q0 29 20.5 47.5t50.5 18.5q31 0 51.5 -18.5t20.5 -47.5v-323h270q28 0 48 -21t20 -51t-20 -51t-48 -21h-270v-317q0 -68 -72 -68q-33 0 -52 18t-19 50v317h-265q-28 0 -47.5 20.5t-19.5 51.5z" />
<glyph unicode="," horiz-adv-x="368" d="M57 -158q0 17 11 35q3 6 10.5 18t10.5 16t8.5 13.5t7.5 13.5t6 11.5t5.5 11.5t3.5 10t3 11t1.5 10.5t0.5 11.5q0 13 -17.5 39.5t-17.5 54.5q0 43 31 72t72 29q43 0 72.5 -31.5t29.5 -85.5q0 -73 -33.5 -133.5t-101.5 -136.5q-19 -23 -49 -23q-21 0 -37.5 16t-16.5 37z " />
<glyph unicode="-" horiz-adv-x="638" d="M70 516q0 31 18.5 50.5t46.5 19.5h369q28 0 46.5 -20.5t18.5 -49.5t-18.5 -49.5t-46.5 -20.5h-369q-28 0 -46.5 19.5t-18.5 50.5z" />
<glyph unicode="." horiz-adv-x="368" d="M80 94q0 43 31.5 73t72.5 30q42 0 73.5 -30t31.5 -73q0 -44 -31 -73t-74 -29q-42 0 -73 29.5t-31 72.5z" />
<glyph unicode="/" horiz-adv-x="612" d="M14 -72q0 13 4 29l445 1473q13 43 65 43q29 0 50.5 -20t21.5 -44q0 -11 -4 -27l-446 -1472q-6 -20 -24 -31.5t-40 -11.5q-29 0 -50.5 18.5t-21.5 42.5z" />
<glyph unicode="0" horiz-adv-x="1073" d="M143 367v661q0 108 55 196t145 136.5t194 48.5q160 0 276.5 -110t116.5 -271v-661q0 -164 -116.5 -273.5t-276.5 -109.5t-277 109.5t-117 273.5zM303 367q0 -102 69 -171t165 -69t164.5 69.5t68.5 170.5v661q0 99 -68.5 168.5t-164.5 69.5t-165 -69t-69 -169v-661z" />
<glyph unicode="1" horiz-adv-x="841" d="M109 1094q0 38 34 63l283 205q42 33 84 33q36 0 58 -19.5t22 -52.5v-1253q0 -32 -22.5 -53t-55.5 -21t-55.5 21t-22.5 53v1116h-4l-197 -142q-27 -18 -57 -18q-28 0 -47.5 18.5t-19.5 49.5z" />
<glyph unicode="2" horiz-adv-x="1007" d="M119 1190q0 35 28 63q156 156 342 156q162 0 280 -108.5t118 -270.5q0 -50 -13 -97.5t-43 -98t-52.5 -82t-67.5 -88.5l-346 -435l-64 -86h539q34 0 52.5 -18.5t18.5 -52.5t-19.5 -53t-51.5 -19h-629q-41 0 -64.5 25t-23.5 67q0 43 22 82t66 92l383 488q64 80 98.5 145 t34.5 131q0 98 -69 167t-169 69q-60 0 -120 -33t-105 -76q-37 -37 -76 -37q-30 0 -49.5 20t-19.5 50z" />
<glyph unicode="3" horiz-adv-x="997" d="M117 162q0 32 20 50.5t51 18.5q33 0 72 -24q36 -24 57 -36.5t65 -28t83 -15.5q97 0 165 68t68 157v72q0 88 -63.5 149.5t-163.5 61.5h-129q-27 0 -47.5 19.5t-20.5 50.5q0 32 20 50.5t48 18.5h129q100 0 163.5 61.5t63.5 149.5v55q0 88 -68 156t-165 68q-87 0 -205 -78 q-40 -25 -72 -25q-31 0 -51 19t-20 51q0 44 51 78q78 50 143.5 75t153.5 25q164 0 278.5 -109.5t114.5 -259.5v-55q0 -101 -48.5 -175.5t-117.5 -104.5q69 -30 117.5 -105t48.5 -176v-72q0 -149 -114.5 -258.5t-278.5 -109.5q-88 0 -153.5 25t-143.5 75q-51 34 -51 78z" />
<glyph unicode="4" horiz-adv-x="1032" d="M90 360q0 21 8 41l414 947q20 49 70 49q36 0 55.5 -19.5t19.5 -48.5q0 -7 -8 -31l-373 -872h345v297q0 27 19.5 46t55.5 19q35 0 55.5 -19.5t20.5 -45.5v-297h150q32 0 49.5 -18.5t17.5 -51.5q0 -32 -17.5 -50.5t-49.5 -18.5h-150v-226q0 -69 -76 -69q-75 0 -75 69v226 h-457q-35 0 -54.5 19.5t-19.5 53.5z" />
<glyph unicode="5" horiz-adv-x="1036" d="M162 193q0 30 21.5 50.5t49.5 20.5q33 0 68 -35q42 -43 101 -72.5t126 -29.5q95 0 162.5 69t67.5 152v162q0 88 -68 155.5t-160 67.5q-81 0 -165 -43l-20 -10t-19.5 -10t-16 -8t-16 -7.5t-14 -5.5t-13.5 -4.5t-11.5 -2.5t-12.5 -1q-34 0 -55 20t-21 52v6l45 600 q3 31 24.5 52.5t51.5 21.5h514q69 0 69 -70q0 -33 -19 -51.5t-52 -18.5h-443l-30 -438q0 -15 18 -6q124 63 211 63q144 0 253.5 -103.5t109.5 -258.5v-162q0 -144 -114.5 -254t-275.5 -110q-96 0 -185.5 40.5t-147.5 100.5q-33 38 -33 68z" />
<glyph unicode="6" horiz-adv-x="1058" d="M152 360v660q0 110 58 200.5t149.5 139.5t193.5 49q86 0 148.5 -25.5t136.5 -76.5q39 -26 39 -66q0 -32 -21 -52t-51 -20q-9 0 -18 3t-13.5 5.5t-14 9t-11.5 7.5q-38 24 -61.5 37t-59.5 24t-74 11q-95 0 -168.5 -71.5t-73.5 -174.5v-221q0 -21 17 -21q13 0 32 15 q111 77 207 77q93 0 175 -41.5t136 -125t54 -191.5v-152q0 -160 -111.5 -268t-275.5 -108q-165 0 -279 108.5t-114 267.5zM311 360q0 -100 67.5 -166.5t166.5 -66.5q98 0 162.5 66t64.5 167v152q0 95 -64.5 157t-162.5 62q-105 0 -169.5 -61.5t-64.5 -157.5v-152z" />
<glyph unicode="7" horiz-adv-x="958" d="M74 1323q0 33 19.5 51.5t51.5 18.5h664q38 0 56 -20t18 -52q0 -23 -11 -45l-499 -1235q-22 -51 -72 -51q-33 0 -56.5 18t-23.5 49q0 18 10 41l478 1155h-564q-32 0 -51.5 18.5t-19.5 51.5z" />
<glyph unicode="8" horiz-adv-x="1067" d="M139 348v78q0 101 54 179t129 112q-67 32 -112.5 104.5t-45.5 161.5v78q0 146 105 246t263 100q157 0 263 -100t106 -246v-78q0 -93 -44.5 -165.5t-115.5 -100.5q80 -35 133.5 -111t53.5 -180v-78q0 -146 -114.5 -255t-281.5 -109q-166 0 -279.5 109.5t-113.5 254.5z M297 348q0 -92 70 -156.5t165 -64.5t165.5 64.5t70.5 156.5v78q0 96 -68.5 157.5t-167.5 61.5q-98 0 -166.5 -62.5t-68.5 -156.5v-78zM319 983q0 -87 60 -145t153 -58t153 57.5t60 145.5v78q0 84 -60 144.5t-153 60.5t-153 -60t-60 -145v-78z" />
<glyph unicode="9" horiz-adv-x="1062" d="M127 899v133q0 157 116.5 267t276.5 110t275.5 -109.5t115.5 -267.5v-672q0 -105 -53 -192t-142.5 -135.5t-195.5 -48.5q-91 0 -161 29t-140 83q-16 11 -29.5 32t-13.5 40q0 31 21.5 52.5t50.5 21.5q26 0 65 -31q95 -84 207 -84q95 0 163.5 67.5t68.5 165.5v256 q0 17 -15 17q-9 0 -31.5 -15.5t-48 -33.5t-70 -33.5t-91.5 -15.5q-148 0 -258.5 104.5t-110.5 259.5zM287 899q0 -100 65.5 -162.5t167.5 -62.5q101 0 166.5 64t65.5 161v133q0 97 -68.5 165.5t-163.5 68.5q-96 0 -164.5 -69t-68.5 -165v-133z" />
<glyph unicode=":" horiz-adv-x="368" d="M80 94q0 43 31.5 73t72.5 30q42 0 73.5 -30t31.5 -73q0 -44 -31 -73t-74 -29q-42 0 -73 29.5t-31 72.5zM80 918q0 43 31.5 72.5t72.5 29.5q42 0 73.5 -29.5t31.5 -72.5q0 -44 -31 -73.5t-74 -29.5q-42 0 -73 30t-31 73z" />
<glyph unicode=";" horiz-adv-x="368" d="M49 -158q0 18 10 35q5 8 13.5 22t12 19.5t10 16t8.5 15.5t5.5 13t5 14t2.5 13t1 14q0 13 -17.5 39.5t-17.5 54.5q0 43 30.5 72t71.5 29q43 0 73 -31.5t30 -85.5q0 -73 -33.5 -133.5t-101.5 -136.5q-19 -23 -50 -23q-21 0 -37 16t-16 37zM86 918q0 43 31.5 72.5t72.5 29.5 q42 0 73.5 -29.5t31.5 -72.5q0 -44 -31 -73.5t-74 -29.5q-42 0 -73 30t-31 73z" />
<glyph unicode="&#x3c;" d="M139 539q0 25 16 48t38 34l606 335q22 13 41 13q31 0 50 -21t19 -53q0 -18 -11.5 -34.5t-27.5 -24.5l-548 -297l548 -297q16 -8 27.5 -25t11.5 -35q0 -32 -19 -52.5t-50 -20.5q-21 0 -41 12l-606 336q-54 28 -54 82z" />
<glyph unicode="=" d="M119 340q0 31 19.5 51.5t47.5 20.5h678q28 0 48 -21t20 -51t-20 -51t-48 -21h-678q-28 0 -47.5 20.5t-19.5 51.5zM119 713q0 30 19.5 50.5t47.5 20.5h678q28 0 48 -20.5t20 -50.5t-20 -51t-48 -21h-678q-28 0 -47.5 20.5t-19.5 51.5z" />
<glyph unicode="&#x3e;" d="M139 182q0 18 11.5 35t27.5 25l549 297l-549 297q-16 8 -27.5 24.5t-11.5 34.5q0 32 19.5 53t50.5 21q19 0 41 -13l606 -335q22 -11 37.5 -34t15.5 -48q0 -55 -53 -82l-606 -336q-20 -12 -41 -12q-31 0 -50.5 20.5t-19.5 52.5z" />
<glyph unicode="?" horiz-adv-x="866" d="M57 1217q0 41 35 69q57 50 136.5 85.5t168.5 35.5q163 0 283.5 -110t120.5 -277q0 -48 -12 -90.5t-27 -70.5t-44 -58.5t-48 -45.5t-54 -42q-11 -8 -35 -25t-35.5 -26t-29.5 -27t-26.5 -34.5t-15.5 -41.5t-7 -55v-55q0 -34 -22 -56t-56 -22q-33 0 -55.5 22.5t-22.5 55.5 v55q0 28 3.5 53t7 44.5t13.5 39t16 32t21 29t22 24t26 22t25.5 19t28 19t26.5 17.5q141 97 141 217q0 98 -72 169t-172 71q-95 0 -198 -78q-46 -33 -70 -33q-29 0 -50.5 20t-21.5 48zM287 94q0 43 31.5 73t72.5 30q42 0 73.5 -30t31.5 -73q0 -44 -31 -73t-74 -29 q-42 0 -73 29.5t-31 72.5z" />
<glyph unicode="@" horiz-adv-x="1579" d="M66 348q0 138 32.5 275.5t101 262.5t163 221t229 153t289.5 57q94 0 181.5 -20.5t170.5 -68.5t144.5 -119.5t98.5 -181t37 -245.5q0 -84 -9.5 -170.5t-37 -187t-70 -177t-115.5 -127.5t-167 -51q-58 0 -96 24t-70 68q-14 17 -28 17q-10 0 -64 -33q-77 -53 -160 -53 q-119 0 -194 87.5t-56 211.5l43 297q18 131 112.5 212t205.5 81q39 0 75 -14t60.5 -28t34.5 -14q19 0 47 21.5t53 21.5t42 -18t14 -43l-82 -617q-5 -40 15.5 -66t59.5 -26q57 0 102.5 44t72 109t44 146t23.5 147t6 120q0 117 -30.5 210t-80 150.5t-117 95.5t-136.5 53 t-144 15q-126 0 -235.5 -50.5t-186 -135.5t-131.5 -195.5t-81.5 -230.5t-26.5 -240q0 -143 37.5 -250.5t104.5 -171t152 -94.5t189 -31q27 0 44.5 -18.5t17.5 -42.5q0 -29 -21 -47.5t-53 -18.5q-100 0 -189.5 25.5t-167 80t-133.5 133.5t-88 193.5t-32 253.5zM586 295 q-8 -71 31 -123.5t108 -52.5q67 0 126.5 54t70.5 122l43 297q10 75 -33.5 120.5t-112.5 45.5q-66 0 -124.5 -47.5t-65.5 -118.5z" />
<glyph unicode="A" horiz-adv-x="1087" d="M57 66q0 14 6 32l363 1207q12 42 43.5 67t73.5 25t73 -25t43 -67l365 -1205q6 -24 6 -34q0 -30 -24 -50t-60 -20q-29 0 -48.5 15t-25.5 40l-96 336h-467l-94 -340q-6 -23 -26 -37t-48 -14q-36 0 -60 20t-24 50zM348 526h389l-147 521l-47 178l-47 -178z" />
<glyph unicode="B" horiz-adv-x="1075" d="M172 74v1245q0 33 23 53.5t57 20.5h270q200 0 302 -102t102 -275q0 -110 -48.5 -186.5t-121.5 -116.5q41 -16 76 -39t68.5 -60.5t53 -95t19.5 -129.5q0 -187 -113.5 -288t-310.5 -101h-297q-36 0 -58 20.5t-22 53.5zM332 143h217q124 0 194 65t70 181t-70 181t-192 65 h-219v-492zM332 778h190q112 0 178 65t66 173q0 101 -64 167t-180 66h-190v-471z" />
<glyph unicode="C" horiz-adv-x="974" d="M143 420v553q0 190 125 311t303 121q149 0 273 -76q49 -30 49 -76q0 -29 -21 -48t-49 -19q-21 0 -61 22q-95 54 -191 54q-115 0 -191.5 -84t-76.5 -205v-553q0 -121 76.5 -205t191.5 -84q89 0 193 55q38 21 59 21q28 0 49 -20.5t21 -49.5q0 -25 -10.5 -40t-36.5 -31 q-131 -78 -275 -78q-178 0 -303 121t-125 311z" />
<glyph unicode="D" horiz-adv-x="1142" d="M172 74v1245q0 33 23 53.5t57 20.5h328q186 0 302.5 -112t116.5 -298v-573q0 -186 -116.5 -298t-302.5 -112h-328q-34 0 -57 20.5t-23 53.5zM332 143h248q108 0 184 73t76 194v573q0 120 -76 193t-184 73h-248v-1106z" />
<glyph unicode="E" horiz-adv-x="978" d="M172 74v1245q0 32 23 53t57 21h559q30 0 50 -20t20 -52t-20 -52t-50 -20h-479v-475h411q30 0 50 -20t20 -52t-20 -51.5t-50 -19.5h-411v-488h479q30 0 50 -19t20 -52t-20 -52.5t-50 -19.5h-559q-35 0 -57.5 21t-22.5 53z" />
<glyph unicode="F" horiz-adv-x="960" d="M172 70v1249q0 33 23 53.5t57 20.5h563q30 0 50 -20t20 -52t-20 -52t-50 -20h-483v-489h416q30 0 49.5 -20t19.5 -52t-19.5 -52t-49.5 -20h-416v-546q0 -34 -21.5 -54t-58.5 -20t-58.5 20t-21.5 54z" />
<glyph unicode="G" horiz-adv-x="1114" d="M143 403v572q0 94 36.5 176t97 137.5t139.5 87t164 31.5q90 0 153 -22.5t139 -67.5q50 -28 50 -72q0 -30 -20 -49.5t-48 -19.5q-23 0 -63 22q-114 66 -211 66q-114 0 -195.5 -86t-81.5 -203v-572q0 -114 76.5 -195t191.5 -81q116 0 192.5 79.5t76.5 196.5v230h-183 q-30 0 -49.5 18t-19.5 51t19.5 51.5t49.5 18.5h269q31 0 52 -23t21 -47v-299q0 -180 -125 -299.5t-303 -119.5t-303 119.5t-125 299.5z" />
<glyph unicode="H" horiz-adv-x="1196" d="M172 70v1253q0 33 22 53.5t58 20.5t58 -20.5t22 -53.5v-549h532v549q0 33 22 53.5t58 20.5t58 -20.5t22 -53.5v-1253q0 -30 -22 -52t-58 -22q-37 0 -58.5 20t-21.5 54v561h-532v-561q0 -30 -22 -52t-58 -22q-37 0 -58.5 20t-21.5 54z" />
<glyph unicode="I" horiz-adv-x="512" d="M176 70v1253q0 33 22 53.5t58 20.5t58 -20.5t22 -53.5v-1253q0 -34 -21.5 -54t-58.5 -20t-58.5 20t-21.5 54z" />
<glyph unicode="J" horiz-adv-x="776" d="M27 88q0 32 20.5 52t50.5 20q23 0 62 -16.5t69 -16.5q96 0 158 66t62 172v958q0 34 22 54t57 20q36 0 58 -20.5t22 -53.5v-958q0 -164 -107.5 -272.5t-271.5 -108.5q-84 0 -145 30q-57 28 -57 74z" />
<glyph unicode="K" horiz-adv-x="1040" d="M172 70v1253q0 33 22 53.5t58 20.5t58 -20.5t22 -53.5v-530q0 -9 6 -15t14 -6q14 0 31 21l448 575q25 29 60 29q34 0 56 -23.5t22 -52.5q0 -31 -17 -51l-458 -565l464 -578q19 -24 19 -51q0 -33 -22 -56.5t-58 -23.5t-68 37l-442 567q-19 23 -35 23q-8 0 -14 -6t-6 -15 v-532q0 -34 -21.5 -54t-58.5 -20t-58.5 20t-21.5 54z" />
<glyph unicode="L" horiz-adv-x="888" d="M172 74v1249q0 33 22 53.5t58 20.5t58 -20.5t22 -53.5v-1180h461q30 0 48.5 -18.5t18.5 -52.5t-18.5 -53t-48.5 -19h-541q-35 0 -57.5 21t-22.5 53z" />
<glyph unicode="M" horiz-adv-x="1312" d="M172 70v1253q0 33 23 53.5t57 20.5q53 0 86 -56l315 -544l320 540q12 19 20 29.5t24.5 20.5t35.5 10q38 0 63 -20.5t25 -53.5v-1253q0 -34 -21.5 -54t-58.5 -20t-58.5 20t-21.5 54v999l-250 -418q-27 -45 -78 -45q-25 0 -46.5 14t-31.5 31l-243 418v-999q0 -34 -21.5 -54 t-58.5 -20t-58.5 20t-21.5 54z" />
<glyph unicode="N" horiz-adv-x="1208" d="M172 70v1253q0 33 23 53.5t59 20.5q61 0 90 -56l533 -1003v985q0 34 22 54t57 20q36 0 58 -20.5t22 -53.5v-1253q0 -34 -22 -54t-60 -20q-65 0 -94 59l-528 1000v-985q0 -34 -21.5 -54t-58.5 -20t-58.5 20t-21.5 54z" />
<glyph unicode="O" horiz-adv-x="1142" d="M143 414v565q0 187 125 308.5t303 121.5t303 -121.5t125 -308.5v-565q0 -187 -125 -308.5t-303 -121.5t-303 121.5t-125 308.5zM303 414q0 -122 76 -204.5t192 -82.5q117 0 193 82t76 205v565q0 123 -76 205t-193 82t-192.5 -81.5t-75.5 -205.5v-565z" />
<glyph unicode="P" horiz-adv-x="1034" d="M172 70v1249q0 33 22 53.5t58 20.5h268q203 0 324 -115.5t121 -312.5q0 -203 -120.5 -315.5t-324.5 -112.5h-188v-467q0 -34 -21.5 -54t-58.5 -20t-58.5 20t-21.5 54zM332 680h188q136 0 210.5 76.5t74.5 208.5t-74.5 208t-210.5 76h-188v-569z" />
<glyph unicode="Q" horiz-adv-x="1146" d="M145 414v565q0 187 125 308.5t303 121.5t303 -121.5t125 -308.5v-565q0 -124 -57.5 -221.5t-155.5 -153.5q97 -26 168 -88q68 -59 68 -115q0 -37 -22 -57.5t-60 -20.5q-51 0 -86 58q-110 163 -268 168h-15q-178 0 -303 121.5t-125 308.5zM305 414q0 -122 76 -204.5 t192 -82.5q117 0 193 82t76 205v565q0 123 -76 205t-193 82t-192.5 -81.5t-75.5 -205.5v-565z" />
<glyph unicode="R" horiz-adv-x="1089" d="M172 70v1249q0 33 22 53.5t58 20.5h289q195 0 310.5 -116t115.5 -294q0 -147 -70 -243.5t-184 -143.5l276 -481q12 -24 12 -45q0 -31 -22.5 -52.5t-56.5 -21.5q-50 0 -74 47l-295 524h-221v-497q0 -34 -21.5 -54t-58.5 -20t-58.5 20t-21.5 54zM332 711h207q132 0 201 76 t69 196q0 116 -71.5 191t-196.5 75h-209v-538z" />
<glyph unicode="S" horiz-adv-x="976" d="M109 145q0 33 20.5 54.5t52.5 21.5q11 0 22.5 -3.5t18.5 -7t21.5 -12t23.5 -12.5q104 -55 197 -55q106 0 183 73t77 179q0 46 -16.5 84.5t-39.5 63.5t-62.5 48t-69 35.5t-74.5 28.5q-52 19 -88.5 34.5t-91 48.5t-89 69.5t-60 94t-25.5 124.5q0 161 122.5 276t282.5 115 q147 0 289 -86q49 -29 49 -74q0 -27 -20 -48t-48 -21q-27 0 -67 24q-96 62 -203 62q-102 0 -175 -73t-73 -175q0 -40 17 -73.5t39 -55.5t62 -44t67 -33t74 -29l24 -9q128 -50 186 -90q147 -105 148 -297q0 -161 -121 -278t-297 -117q-146 0 -281 69q-75 40 -75 88z" />
<glyph unicode="T" horiz-adv-x="978" d="M37 1321q0 32 19 52t50 20h766q31 0 50.5 -20t19.5 -52t-19.5 -52t-50.5 -20h-303v-1179q0 -34 -21.5 -54t-58.5 -20t-58 20t-21 54v1179h-304q-31 0 -50 20t-19 52z" />
<glyph unicode="U" horiz-adv-x="1191" d="M168 414v909q0 33 22 53.5t58 20.5t58 -20.5t22 -53.5v-909q0 -123 76.5 -205t191.5 -82t191.5 82t76.5 205v909q0 33 22 53.5t58 20.5t58 -20.5t22 -53.5v-909q0 -123 -60.5 -223t-158 -153.5t-209.5 -53.5t-209.5 53.5t-158 153.5t-60.5 223z" />
<glyph unicode="V" horiz-adv-x="1087" d="M57 1327q0 30 24 50t60 20q28 0 48 -14t26 -37l281 -998l47 -180l47 180l282 993q6 25 25.5 40.5t48.5 15.5q36 0 60 -20t24 -50q0 -11 -6 -35l-367 -1204q-12 -42 -42 -67t-72 -25t-72.5 25t-42.5 67l-365 1206q-6 18 -6 33z" />
<glyph unicode="W" horiz-adv-x="1396" d="M92 1321v5q0 29 20 50q22 23 58 23q34 0 54.5 -18t23.5 -44l117 -915l10 -88l24 88l215 727q9 28 32 44.5t52 16.5t52 -16.5t32 -44.5l215 -727l25 -88l10 88l117 915q3 26 23.5 44t54.5 18q37 0 59 -23q20 -21 19 -50v-5l-172 -1262q-5 -30 -26.5 -48.5t-55.5 -18.5 q-68 0 -88 65l-246 813l-19 82l-18 -82l-246 -813q-20 -65 -88 -65q-34 0 -55.5 18.5t-26.5 48.5z" />
<glyph unicode="X" horiz-adv-x="1077" d="M70 70q0 18 8 34l362 598l-352 584q-10 17 -10 37q0 32 24.5 54t59.5 22q44 0 67 -41l310 -541l309 541q23 41 67 41q35 0 59.5 -22t24.5 -54q0 -20 -10 -37l-352 -584l362 -598q9 -18 9 -34q0 -34 -23.5 -55t-56.5 -21q-48 0 -68 39l-321 555l-322 -555q-20 -39 -67 -39 q-33 0 -56.5 21t-23.5 55z" />
<glyph unicode="Y" d="M45 1323q0 34 24.5 55t59.5 21q21 0 39.5 -12.5t26.5 -28.5l329 -596l332 598q23 39 64 39q35 0 59.5 -21t24.5 -55q0 -21 -13 -43l-387 -659v-551q0 -33 -22 -53.5t-58 -20.5t-58 20.5t-22 53.5v551l-387 659q-12 20 -12 43z" />
<glyph unicode="Z" horiz-adv-x="968" d="M82 70q0 27 22 69l586 1110h-534q-31 0 -50.5 20t-19.5 52t19.5 52t50.5 20h659q31 0 50.5 -20.5t19.5 -51.5q0 -23 -27 -72l-586 -1106h545q30 0 50 -19.5t20 -51.5t-20 -52t-50 -20l-665 -2q-31 0 -50.5 20t-19.5 52z" />
<glyph unicode="[" horiz-adv-x="542" d="M164 -258v1651q0 29 19 47t50 18h216q27 0 44 -18t17 -47t-17.5 -47.5t-43.5 -18.5h-142v-1520h142q26 0 43.5 -19t17.5 -48t-17 -46.5t-44 -17.5h-216q-31 0 -50 19t-19 47z" />
<glyph unicode="\" horiz-adv-x="612" d="M12 1409q0 24 21.5 44t50.5 20q24 0 42 -11.5t24 -31.5l444 -1473q4 -16 4 -29q0 -24 -21.5 -42.5t-50.5 -18.5q-22 0 -39.5 11.5t-23.5 31.5l-447 1472q-4 16 -4 27z" />
<glyph unicode="]" horiz-adv-x="542" d="M33 -260q0 29 17.5 48t43.5 19h142v1520h-142q-26 0 -43.5 18.5t-17.5 47.5t17 47t44 18h215q31 0 50.5 -18t19.5 -47v-1651q0 -28 -19 -47t-51 -19h-215q-27 0 -44 17.5t-17 46.5z" />
<glyph unicode="^" horiz-adv-x="1024" d="M123 688q0 21 8 37l307 596q9 21 29.5 35t44.5 14t45 -14.5t31 -34.5l305 -596q8 -16 8 -37q0 -28 -22 -49t-48 -21q-21 0 -39 13t-26 31l-254 503l-254 -503q-21 -44 -63 -44q-27 0 -49.5 21t-22.5 49z" />
<glyph unicode="_" horiz-adv-x="1024" d="M66 -84q0 29 18.5 48.5t44.5 19.5h766q26 0 44.5 -20t18.5 -48t-18.5 -48t-44.5 -20h-766q-26 0 -44.5 19.5t-18.5 48.5z" />
<glyph unicode="`" horiz-adv-x="403" d="M41 1421q0 29 23.5 51.5t52.5 22.5q38 0 63 -31l170 -204q12 -15 12 -33q0 -23 -17 -38t-36 -15q-21 0 -35 14l-194 164q-39 34 -39 69z" />
<glyph unicode="a" horiz-adv-x="966" d="M106 297q0 142 101 218.5t260 76.5h197v86q0 87 -57.5 150t-143.5 63q-70 0 -158 -45q-42 -21 -61 -21q-30 0 -50 21t-20 49q0 46 55 74q116 61 234 61q147 0 251.5 -101t104.5 -251v-627q0 -28 -17 -43.5t-46 -15.5q-31 0 -64 41q-24 28 -41 28t-57 -24 q-88 -53 -164 -53q-140 0 -232 87t-92 226zM260 297q0 -82 56 -128t145 -46q88 0 145.5 48t57.5 132v162h-197q-93 0 -150 -43.5t-57 -124.5z" />
<glyph unicode="b" horiz-adv-x="1015" d="M160 55v1334q0 34 21.5 53.5t56.5 19.5t56 -19.5t21 -53.5v-422q0 -9 6 -16t13 -7q16 0 33 14q94 72 188 72q143 0 236.5 -99t93.5 -257v-334q0 -153 -94.5 -254.5t-229.5 -101.5q-81 0 -174 57q-36 22 -55 22q-21 0 -43 -26q-33 -41 -68 -41q-25 0 -43 15.5t-18 43.5z M315 340q0 -88 60.5 -152.5t146.5 -64.5q88 0 147.5 65.5t59.5 151.5v334q0 90 -60.5 153.5t-146.5 63.5t-146.5 -63t-60.5 -154v-334z" />
<glyph unicode="c" horiz-adv-x="825" d="M131 344v326q0 162 108.5 261t258.5 99q112 0 211 -63q45 -28 45 -70q0 -28 -20 -48t-48 -20q-19 0 -49 17q-74 45 -139 45q-86 0 -148.5 -61.5t-62.5 -159.5v-326q0 -98 62.5 -159.5t148.5 -61.5q59 0 139 45q28 16 49 16q28 0 48 -19.5t20 -47.5q0 -42 -45 -70 q-95 -63 -211 -63q-150 0 -258.5 99t-108.5 261z" />
<glyph unicode="d" horiz-adv-x="1013" d="M131 342v332q0 158 103 257t249 99q100 0 179 -59q13 -10 22 -10q16 0 16 24v406q0 34 21.5 53.5t56.5 19.5t56.5 -19.5t21.5 -53.5v-1336q0 -27 -17 -43t-44 -16q-32 0 -66 43q-25 29 -43 29t-59 -25q-29 -18 -47.5 -27.5t-54.5 -20.5t-72 -11q-135 0 -228.5 102 t-93.5 256zM287 340q0 -88 58.5 -152.5t143.5 -64.5q86 0 148.5 64.5t62.5 152.5v334q0 94 -59.5 155.5t-146.5 61.5t-147 -61.5t-60 -155.5v-334z" />
<glyph unicode="e" horiz-adv-x="954" d="M131 340v340q0 150 108 250t250 100t250.5 -100t108.5 -250v-135q0 -34 -23 -57t-59 -23h-479v-125q0 -94 61 -155.5t150 -61.5q84 0 170 55q38 23 61 23q28 0 48 -21.5t20 -50.5q0 -42 -52 -74q-113 -71 -247 -71q-159 0 -263 100.5t-104 255.5zM287 592h405v88 q0 88 -59 149.5t-144 61.5q-86 0 -144 -60t-58 -151v-88z" />
<glyph unicode="f" horiz-adv-x="679" d="M29 938q0 26 18 43.5t41 19.5l150 13v123q0 136 92 228.5t233 92.5q31 0 50.5 -18.5t19.5 -48.5q0 -31 -19 -49.5t-51 -18.5q-71 0 -120.5 -51.5t-49.5 -134.5v-123h176q32 0 50 -18.5t18 -49.5t-18 -49t-50 -18h-176v-809q0 -34 -21.5 -54t-56.5 -20t-56 20t-21 54v809 h-154q-23 0 -39 15.5t-16 43.5z" />
<glyph unicode="g" horiz-adv-x="983" d="M72 -135q0 80 44.5 137.5t108.5 81.5q-37 15 -59.5 51.5t-22.5 79.5q0 44 28 84t79 61v5q-42 32 -71 92t-29 123v145q0 127 96 213t227 86q94 0 170 -39q24 -12 72 -12q58 0 121 49q33 25 61 25q30 0 50 -20t20 -50q0 -43 -37 -70q-55 -43 -151 -43h-13l-8 2 q19 -23 30 -63.5t11 -77.5v-137q0 -88 -49 -158.5t-123 -106.5t-154 -36q-19 0 -51.5 4.5t-55.5 8.5l-22 5q-53 -23 -53 -76q0 -30 30 -51.5t76 -21.5h178q148 0 236 -73t88 -206q0 -148 -112 -226.5t-302 -78.5q-194 0 -303.5 74.5t-109.5 218.5zM223 -135q0 -154 258 -154 q120 0 193.5 41.5t73.5 124.5q0 71 -47.5 109.5t-137.5 38.5h-164q-84 0 -130 -40.5t-46 -119.5zM301 584q0 -70 52.5 -116t119.5 -46t120.5 47t53.5 115v141q0 72 -51 118t-123 46t-122 -46t-50 -118v-141z" />
<glyph unicode="h" horiz-adv-x="1032" d="M160 70v1321q0 34 21.5 53.5t56.5 19.5t56 -19.5t21 -53.5v-426q0 -23 21 -23q14 0 45 23q93 65 184 65q134 0 225 -102.5t91 -249.5v-608q0 -34 -21.5 -54t-56.5 -20t-56.5 20t-21.5 54v608q0 92 -58 152.5t-147 60.5t-147 -60.5t-58 -152.5v-608q0 -34 -21 -54t-56 -20 t-56.5 20t-21.5 54z" />
<glyph unicode="i" horiz-adv-x="483" d="M141 1346q0 42 31 70t70 28q40 0 70 -27.5t30 -70.5t-29.5 -71t-70.5 -28q-40 0 -70.5 28t-30.5 71zM164 70v874q0 34 21.5 54t56.5 20t56 -20t21 -54v-874q0 -34 -21 -54t-56 -20t-56.5 20t-21.5 54z" />
<glyph unicode="j" horiz-adv-x="483" d="M14 -328q0 28 16 48t44 26q90 20 90 131v1067q0 34 21.5 54t56.5 20t56 -20t21 -54v-1067q0 -115 -66 -192.5t-173 -77.5q-29 0 -47.5 16.5t-18.5 48.5zM141 1346q0 42 31 70t70 28q40 0 70 -27.5t30 -70.5t-29.5 -71t-70.5 -28q-40 0 -70.5 28t-30.5 71z" />
<glyph unicode="k" horiz-adv-x="903" d="M160 70v1321q0 34 21.5 53.5t56.5 19.5t56 -19.5t21 -53.5v-768q0 -11 7.5 -18t17.5 -7q15 0 39 27l301 358q31 35 68 35q30 0 51.5 -22t21.5 -52q0 -27 -20 -51l-312 -363l336 -407q21 -24 21 -53q0 -30 -23 -52t-59 -22q-34 0 -64 37l-321 397q-25 29 -37 29 q-11 0 -19 -7.5t-8 -17.5v-364q0 -34 -21 -54t-56 -20t-56.5 20t-21.5 54z" />
<glyph unicode="l" horiz-adv-x="483" d="M164 70v1321q0 34 21.5 53.5t56.5 19.5t56 -19.5t21 -53.5v-1321q0 -34 -21 -54t-56 -20t-56.5 20t-21.5 54z" />
<glyph unicode="m" horiz-adv-x="1507" d="M160 70v888q0 28 18.5 44t46.5 16q22 0 40 -18t33.5 -36t33.5 -18q14 0 46 21t78 42t95 21q59 0 98.5 -18.5t83.5 -57.5q1 -1 11 -10t15 -13t14.5 -8.5t17.5 -4.5q15 0 41.5 17.5t54 38.5t75 38.5t99.5 17.5q131 0 215 -92t84 -244v-624q0 -34 -21.5 -54t-56.5 -20 t-56.5 20t-21.5 54v624q0 90 -51 144.5t-131 54.5q-74 0 -129 -55.5t-55 -143.5v-624q0 -34 -21.5 -54t-56.5 -20t-56.5 20t-21.5 54v624q0 87 -50.5 143t-123.5 56q-77 0 -135 -56t-58 -143v-624q0 -34 -21 -54t-56 -20t-56.5 20t-21.5 54z" />
<glyph unicode="n" horiz-adv-x="1032" d="M160 70v886q0 28 17 45t44 17q34 0 64 -37q1 -1 4.5 -5t5 -5.5t4.5 -5t4.5 -5t4.5 -4t5.5 -3.5t5 -2.5t5.5 -2t6 -0.5q16 0 51 21q95 61 194 61q122 0 214 -100.5t92 -253.5v-606q0 -34 -21.5 -54t-56.5 -20t-56.5 20t-21.5 54v606q0 91 -58 153t-147 62 q-90 0 -147.5 -61t-57.5 -154v-606q0 -34 -21 -54t-56 -20t-56.5 20t-21.5 54z" />
<glyph unicode="o" horiz-adv-x="987" d="M131 340v334q0 156 108 256t255 100q145 0 253.5 -101.5t108.5 -254.5v-334q0 -153 -108.5 -254.5t-253.5 -101.5q-147 0 -255 99.5t-108 256.5zM287 340q0 -93 60 -155t147 -62q86 0 146 63t60 154v334q0 92 -59.5 154.5t-146.5 62.5t-147 -62.5t-60 -154.5v-334z" />
<glyph unicode="p" horiz-adv-x="1015" d="M160 -326v1284q0 28 18 44t43 16q32 0 66 -43q25 -29 43 -29t59 25q31 19 47.5 28t52.5 20t72 11q135 0 229.5 -102.5t94.5 -255.5v-332q0 -160 -96 -258t-240 -98q-100 0 -187 65q-19 14 -28 14q-19 0 -19 -22v-367q0 -34 -21 -53.5t-56 -19.5t-56.5 19.5t-21.5 53.5z M315 340q0 -94 62 -155.5t145 -61.5q82 0 144.5 62t62.5 155v334q0 89 -58.5 153t-148.5 64t-148.5 -64t-58.5 -153v-334z" />
<glyph unicode="q" horiz-adv-x="1015" d="M131 340v334q0 105 48.5 187.5t123.5 125.5t160 43q94 0 178 -55q33 -19 43 -19q7 0 12 1.5t10.5 5t8 5.5t8.5 8.5t8 8.5q33 33 60 33q29 0 47 -16t18 -44v-1284q0 -34 -21.5 -53.5t-56.5 -19.5t-56.5 19.5t-21.5 53.5v381q0 19 -18 19q-12 0 -39 -23q-75 -67 -186 -67 q-133 0 -229.5 98.5t-96.5 257.5zM287 340q0 -95 61 -156t146 -61q79 0 142.5 61t63.5 156v334q0 96 -61.5 156.5t-144.5 60.5t-145 -60.5t-62 -156.5v-334z" />
<glyph unicode="r" horiz-adv-x="659" d="M164 70v888q0 28 19 44t44 16q32 0 68 -45q1 -1 4.5 -5t5 -5.5t4.5 -5t4.5 -5t4.5 -4t5.5 -3.5t5 -2.5t5.5 -2t6 -0.5q10 0 51 27q53 35 84 48t72 13q33 0 54.5 -19t21.5 -53q0 -35 -21 -54t-55 -19h-29q-82 0 -140.5 -56.5t-58.5 -158.5v-598q0 -34 -21 -54t-56 -20 t-56.5 20t-21.5 54z" />
<glyph unicode="s" horiz-adv-x="843" d="M115 725q0 126 99 215.5t232 89.5q123 0 224 -55q53 -26 53 -74q0 -28 -20.5 -47.5t-49.5 -19.5q-15 0 -51 16q-87 41 -156 41q-73 0 -126.5 -49t-53.5 -117q0 -26 14 -48t30.5 -35.5t50.5 -28.5t51.5 -20.5t56.5 -17.5q40 -12 67 -22t63.5 -26.5t60 -37t46 -48.5 t33.5 -66.5t11 -85.5q0 -131 -93.5 -218t-240.5 -87q-122 0 -240 59q-59 29 -59 80q0 31 21 50.5t50 19.5q27 0 68 -23q91 -47 160 -47q80 0 130 47t50 115q0 64 -52 100t-149 64q-40 11 -72 23t-73 35.5t-68.5 51.5t-47 71t-19.5 95z" />
<glyph unicode="t" horiz-adv-x="714" d="M43 938q0 25 16 41t37 18l137 15h3l24 213q3 23 22.5 39t45.5 16q28 0 45.5 -15.5t17.5 -41.5v-209h195q31 0 49 -18.5t18 -49.5q0 -32 -18 -49.5t-49 -17.5h-195v-627q0 -59 34 -96t83 -37q13 0 44 8t46 8q30 0 45.5 -18.5t15.5 -48.5q0 -40 -47 -62t-112 -22 q-115 0 -189.5 75t-74.5 193v627h-140q-21 0 -37 16t-16 43z" />
<glyph unicode="u" horiz-adv-x="1040" d="M160 340v604q0 34 21.5 54t56.5 20t56 -20t21 -54v-604q0 -91 57.5 -154t147.5 -63q91 0 148 62.5t57 154.5v604q0 34 21.5 54t56.5 20t56.5 -20t21.5 -54v-889q0 -27 -17.5 -44t-44.5 -17q-13 0 -27 8t-18.5 13t-19.5 22q-27 31 -45 31q-17 0 -58 -25 q-31 -18 -49.5 -27.5t-56.5 -20.5t-76 -11q-128 0 -218.5 101.5t-90.5 254.5z" />
<glyph unicode="v" horiz-adv-x="933" d="M74 948q0 28 23.5 49t56.5 21q57 0 73 -53l215 -664l25 -82l25 82l215 664q16 53 73 53q33 0 56.5 -21t23.5 -49q0 -12 -6 -30l-299 -857q-23 -65 -88 -65t-88 65l-299 857q-6 18 -6 30z" />
<glyph unicode="w" horiz-adv-x="1372" d="M86 950q0 31 22.5 49.5t59.5 18.5q27 0 45 -14.5t23 -38.5l126 -641l13 -78h4l22 78l207 634q18 60 78 60t78 -60l207 -634l22 -78h4l13 78l127 641q5 24 22.5 38.5t44.5 14.5q37 0 59.5 -18.5t22.5 -49.5q0 -20 -2 -28l-192 -865q-6 -27 -28 -44t-54 -17q-31 0 -52.5 16 t-29.5 41l-219 660l-23 71l-22 -71l-220 -660q-8 -25 -29.5 -41t-52.5 -16t-53 17t-28 44l-193 865q-2 8 -2 28z" />
<glyph unicode="x" horiz-adv-x="917" d="M82 70q0 27 14 49l271 397l-254 377q-19 30 -19 49q0 34 23.5 55t56.5 21q44 0 66 -37l219 -348l219 348q22 37 65 37q34 0 57 -20t23 -54q0 -22 -18 -51l-254 -377l270 -397q15 -24 15 -49q0 -32 -22.5 -53t-53.5 -21q-44 0 -72 43l-229 360l-230 -360q-28 -43 -71 -43 q-31 0 -53.5 21t-22.5 53z" />
<glyph unicode="y" horiz-adv-x="933" d="M74 948q0 27 23.5 48.5t56.5 21.5q57 0 73 -53l215 -666l25 -82l25 82l215 666q16 53 73 53q33 0 56.5 -21.5t23.5 -48.5q0 -15 -6 -33l-375 -1058q-38 -109 -108.5 -177.5t-151.5 -68.5q-35 0 -55.5 19.5t-20.5 52.5q0 29 16.5 48.5t43.5 24.5q38 7 72.5 43.5t54.5 89.5 l57 152l-307 874q-6 18 -6 33z" />
<glyph unicode="z" horiz-adv-x="835" d="M82 70q0 33 20 63l451 746h-403q-31 0 -48.5 18t-17.5 49t17.5 49.5t48.5 18.5h536q31 0 48.5 -20t17.5 -50t-21 -61l-450 -748h407q30 0 48 -18.5t18 -48.5q0 -31 -18.5 -49.5t-47.5 -18.5h-541q-31 0 -48 19.5t-17 50.5z" />
<glyph unicode="{" horiz-adv-x="509" d="M49 569q0 32 20 53.5t64 49.5q49 30 68.5 60.5t19.5 70.5q0 55 -39 185.5t-39 195.5q0 117 64 196.5t188 79.5q28 0 47 -18.5t19 -48.5q0 -28 -19 -48t-47 -20q-46 0 -75 -39.5t-29 -101.5q0 -42 37 -186.5t37 -206.5q0 -37 -16 -72t-40 -61t-46.5 -44.5t-42.5 -31.5 l-19 -13l19 -13q20 -12 42.5 -31t46.5 -44t40 -60t16 -71q0 -61 -37 -206t-37 -187q0 -62 29 -102.5t75 -40.5q27 0 45.5 -20t18.5 -48q0 -30 -18 -49t-46 -19q-124 0 -188 81t-64 198q0 65 39 195.5t39 185.5q0 40 -19.5 70.5t-68.5 60.5q-44 28 -64 48.5t-20 51.5z" />
<glyph unicode="|" horiz-adv-x="483" d="M168 -330v1723q0 29 21 49t53 20t52.5 -19.5t20.5 -49.5v-1723q0 -31 -20.5 -50t-52.5 -19t-53 19t-21 50z" />
<glyph unicode="}" horiz-adv-x="509" d="M49 1393q0 30 19 48.5t47 18.5q124 0 188 -79.5t64 -196.5q0 -65 -39 -195.5t-39 -185.5q0 -40 19.5 -70.5t68.5 -60.5q44 -28 64 -49.5t20 -53.5q0 -31 -20 -51.5t-64 -48.5q-49 -30 -68.5 -60.5t-19.5 -70.5q0 -55 39 -185.5t39 -195.5q0 -117 -64 -198t-188 -81 q-28 0 -46 19t-18 49q0 28 18.5 48t45.5 20q46 0 75 40.5t29 102.5q0 42 -37 187t-37 206q0 36 16 71t40 60t46.5 44t42.5 31l19 13l-19 13q-20 13 -42.5 31.5t-46.5 44.5t-40 61t-16 72q0 62 37 206.5t37 186.5q0 62 -29 101.5t-75 39.5q-28 0 -47 20t-19 48z" />
<glyph unicode="~" horiz-adv-x="1024" d="M66 528q0 114 75 182t181 68q17 0 34 -2.5t36.5 -10.5t31 -12.5t34.5 -19t30 -18.5t33.5 -22.5t29.5 -20.5q11 -7 39.5 -27.5t42.5 -29.5t35.5 -18t38.5 -9q49 0 78.5 32t29.5 82q0 29 19.5 49.5t50.5 20.5q33 0 53 -20.5t20 -49.5q0 -113 -71.5 -183t-184.5 -70 q-24 0 -46 5.5t-46.5 18.5t-39 22.5t-44.5 30.5t-41 29q-10 7 -40.5 28.5t-44.5 29.5t-37.5 17t-45.5 9q-50 0 -79 -31t-29 -80q0 -30 -19.5 -51.5t-50.5 -21.5q-33 0 -53 21t-20 52z" />
<glyph unicode="&#xa1;" horiz-adv-x="518" d="M154 920q0 43 31 72.5t73 29.5q43 0 73.5 -29t30.5 -73q0 -43 -31 -73t-73 -30q-41 0 -72.5 30t-31.5 73zM178 141q0 116 21 449q2 23 18 38t41 15t41 -15t18 -38q21 -349 21 -449v-452q0 -30 -22 -52t-58 -22t-58 22t-22 52v452z" />
<glyph unicode="&#xa2;" d="M219 539v309q0 136 77.5 229t197.5 119v150q0 27 19.5 45t47.5 18t48 -18t20 -45v-144q78 -13 153 -57q47 -29 47 -72q0 -27 -20 -47t-47 -20q-23 0 -51 16q-73 43 -136 43q-85 0 -145.5 -60t-60.5 -157v-309q0 -97 60.5 -157t145.5 -60q62 0 136 40q38 19 51 19 q26 0 46.5 -20.5t20.5 -47.5q0 -42 -47 -71q-72 -47 -153 -58v-137q0 -27 -20 -45t-48 -18t-47.5 18t-19.5 45v141q-120 27 -197.5 121t-77.5 230z" />
<glyph unicode="&#xa3;" d="M109 72q0 31 19 51t46 20q74 0 123 66.5t49 148.5v277h-137q-27 0 -46.5 19.5t-19.5 50.5t19.5 50t46.5 19h137v295q0 143 100 237.5t232 94.5q86 0 158 -33q28 -13 39.5 -31t11.5 -47q0 -28 -19.5 -45.5t-50.5 -17.5q-25 0 -67 13t-72 13q-69 0 -120.5 -53t-51.5 -131 v-295h235q27 0 46.5 -19t19.5 -50t-19.5 -50.5t-46.5 -19.5h-235v-279q0 -145 -72 -213h457q30 0 48.5 -19.5t18.5 -51.5t-19 -52t-48 -20h-717q-28 0 -46.5 20t-18.5 52z" />
<glyph unicode="&#xa4;" d="M113 989q0 28 21.5 49t47.5 21q35 0 56 -25l118 -137q79 47 168 47q92 0 168 -47l121 137q21 25 55 25q25 0 46.5 -21.5t21.5 -48.5t-21 -51l-127 -135q58 -83 58 -189q0 -101 -60 -190l132 -137q18 -18 18 -47q0 -28 -22 -50t-48 -22q-30 0 -55 25l-123 137 q-71 -47 -164 -47q-92 0 -166 47l-118 -135q-27 -27 -56 -27q-26 0 -47.5 22t-21.5 50q0 33 32 61l115 121q-59 83 -59 192q0 106 57 191l-125 133q-22 26 -22 51zM334 614q0 -85 54.5 -145.5t135.5 -60.5q82 0 135.5 60.5t53.5 145.5t-53.5 145t-135.5 60 q-81 0 -135.5 -60.5t-54.5 -144.5z" />
<glyph unicode="&#xa5;" d="M43 1323q0 34 23.5 55t58.5 21q21 0 39 -12.5t26 -28.5l334 -551l336 553q23 39 64 39q35 0 58.5 -21t23.5 -55q0 -21 -13 -43l-383 -604h215q22 0 39 -18t17 -44t-17 -43.5t-39 -17.5h-221v-117h221q22 0 39 -17.5t17 -43.5t-17 -44t-39 -18h-221v-243q0 -33 -22 -53.5 t-58 -20.5t-58 20.5t-22 53.5v243h-221q-22 0 -38.5 18t-16.5 44t16.5 43.5t38.5 17.5h221v117h-221q-22 0 -38.5 17.5t-16.5 43.5t16.5 44t38.5 18h215l-383 604q-12 20 -12 43z" />
<glyph unicode="&#xa6;" horiz-adv-x="483" d="M168 -330v662q0 29 21 49t53 20t52.5 -19.5t20.5 -49.5v-662q0 -31 -20.5 -50t-52.5 -19t-53 19t-21 50zM168 731v662q0 29 21 49t53 20t52.5 -19.5t20.5 -49.5v-662q0 -31 -20.5 -50t-52.5 -19t-53 19t-21 50z" />
<glyph unicode="&#xa7;" horiz-adv-x="856" d="M92 618q0 151 148 250q-90 83 -90 219q0 89 48.5 163t121.5 113.5t151 39.5q112 0 223 -62q49 -27 49 -65q0 -29 -17.5 -48.5t-47.5 -19.5q-16 0 -62 23q-80 41 -145 41q-70 0 -125 -56.5t-55 -128.5q0 -39 9 -66t40.5 -51.5t51 -36t80.5 -40.5l28 -14q119 -57 161 -90 q98 -86 101 -218q0 -151 -150 -252q93 -86 93 -219q0 -89 -49 -163t-123 -113t-152 -39q-116 0 -223 63q-49 27 -49 64q0 28 18 48t47 20q17 0 59 -21q71 -43 148 -43q71 0 126.5 56t55.5 128q0 39 -10.5 67t-38.5 51t-54.5 38t-80.5 41q-5 2 -8 3.5l-8 4l-9 4.5t-11 5 q-118 57 -161 94q-90 77 -90 210zM233 618q0 -36 14.5 -64t48.5 -52.5t59.5 -37.5t78.5 -38l68 -35q58 34 88.5 83t30.5 97q0 36 -14.5 64.5t-46.5 52t-61 38t-79 36.5q-29 12 -70 33q-56 -34 -86.5 -82.5t-30.5 -94.5z" />
<glyph unicode="&#xa8;" horiz-adv-x="573" d="M41 1341q0 40 26.5 67.5t67.5 27.5q40 0 67 -27.5t27 -67.5q0 -41 -27 -67.5t-67 -26.5q-41 0 -67.5 26.5t-26.5 67.5zM344 1341q0 40 27 67.5t67 27.5q41 0 67.5 -27.5t26.5 -67.5q0 -41 -26.5 -67.5t-67.5 -26.5q-40 0 -67 26.5t-27 67.5z" />
<glyph unicode="&#xa9;" horiz-adv-x="1470" d="M61 694q0 153 55 287t147.5 226.5t215.5 146t256 53.5t256 -53.5t215.5 -146.5t147.5 -227t55 -286t-53.5 -285t-144.5 -225.5t-214.5 -146t-261.5 -53.5t-261.5 53t-214.5 145.5t-144.5 225.5t-53.5 286zM186 694q0 -128 43.5 -240t117.5 -189t174.5 -121t213.5 -44 q112 0 212.5 44t175 121t118 189t43.5 240q0 129 -44 241t-118.5 189.5t-175 121.5t-211.5 44t-211.5 -44t-175 -121.5t-118.5 -189.5t-44 -241zM494 537v309q0 108 79 183t183 75q86 0 157 -49q37 -26 37 -58q0 -21 -15 -37t-38 -16q-21 0 -47 17q-44 28 -94 28 q-58 0 -99 -40.5t-41 -102.5v-309q0 -62 41 -104t99 -42q48 0 96 27q29 16 45 16q23 0 37 -14.5t14 -36.5q0 -35 -37 -57q-73 -47 -155 -47q-105 0 -183.5 73.5t-78.5 184.5z" />
<glyph unicode="&#xaa;" horiz-adv-x="655" d="M90 948q0 90 64.5 139.5t164.5 49.5h111v51q0 47 -34.5 82t-84.5 35q-46 0 -102 -27q-20 -10 -37 -10q-23 0 -37 14t-14 33t8.5 30.5t28.5 22.5q76 41 153 41q96 0 165 -66t69 -155v-391q0 -21 -14 -33t-35 -12q-20 0 -43 28q-14 17 -25 17t-27 -13q-49 -36 -106 -36 q-89 0 -147 55t-58 145zM96 575q0 25 13.5 39.5t35.5 14.5h357q22 0 35.5 -14.5t13.5 -39.5q0 -23 -13.5 -37t-35.5 -14h-357q-22 0 -35.5 14t-13.5 37zM201 948q0 -48 30 -73t82 -25q51 0 84 27t33 75v92h-111q-54 0 -86 -25t-32 -71z" />
<glyph unicode="&#xab;" horiz-adv-x="958" d="M61 516q0 37 33 74l301 301q20 20 43 20q20 0 35.5 -16t15.5 -35q0 -18 -8 -29l-258 -315l258 -315q8 -11 8 -29t-15.5 -34.5t-35.5 -16.5q-23 0 -43 20l-301 301q-33 37 -33 74zM449 516q0 38 32 74l301 301q20 20 43 20q20 0 36 -16t16 -35q0 -17 -9 -29l-258 -315 l258 -315q9 -12 9 -29q0 -18 -16 -34.5t-36 -16.5q-23 0 -43 20l-301 301q-32 36 -32 74z" />
<glyph unicode="&#xac;" d="M119 518q0 31 18.5 51.5t46.5 20.5h676q28 0 47 -20.5t19 -51.5v-346q0 -66 -72 -66q-33 0 -52.5 17t-19.5 49v274h-598q-28 0 -46.5 20.5t-18.5 51.5z" />
<glyph unicode="&#xad;" horiz-adv-x="638" d="M70 516q0 31 18.5 50.5t46.5 19.5h369q28 0 46.5 -20.5t18.5 -49.5t-18.5 -49.5t-46.5 -20.5h-369q-28 0 -46.5 19.5t-18.5 50.5z" />
<glyph unicode="&#xae;" horiz-adv-x="1470" d="M61 694q0 153 55 287t147.5 226.5t215.5 146t256 53.5t256 -53.5t215.5 -146.5t147.5 -227t55 -286t-53.5 -285t-144.5 -225.5t-214.5 -146t-261.5 -53.5t-261.5 53t-214.5 145.5t-144.5 225.5t-53.5 286zM186 694q0 -128 43.5 -240t117.5 -189t174.5 -121t213.5 -44 q112 0 212.5 44t175 121t118 189t43.5 240q0 129 -44 241t-118.5 189.5t-175 121.5t-211.5 44t-211.5 -44t-175 -121.5t-118.5 -189.5t-44 -241zM520 360v687q0 28 17.5 43.5t46.5 15.5h164q115 0 184 -68.5t69 -173.5q0 -80 -37.5 -139.5t-95.5 -83.5l140 -248 q10 -15 10 -35q0 -23 -19.5 -39t-44.5 -16q-34 0 -51 35l-158 276h-102v-254q0 -25 -17 -41t-44 -16q-29 0 -45.5 16t-16.5 41zM643 729h105q63 0 97 38t34 97q0 55 -35.5 91t-95.5 36h-105v-262z" />
<glyph unicode="&#xaf;" horiz-adv-x="524" d="M41 1331q0 26 17 44t40 18h328q23 0 40 -18t17 -44t-16.5 -43.5t-40.5 -17.5h-328q-24 0 -40.5 17.5t-16.5 43.5z" />
<glyph unicode="&#xb0;" horiz-adv-x="497" d="M41 1239q0 92 60.5 151.5t146.5 59.5q87 0 148 -59.5t61 -151.5t-61 -151.5t-148 -59.5q-86 0 -146.5 59.5t-60.5 151.5zM137 1239q0 -52 31 -86.5t80 -34.5t80.5 34.5t31.5 86.5t-31.5 86.5t-80.5 34.5t-80 -34.5t-31 -86.5z" />
<glyph unicode="&#xb1;" d="M119 70q0 30 19.5 50.5t47.5 20.5h678q28 0 48 -20.5t20 -50.5t-20 -51t-48 -21h-678q-28 0 -47.5 20.5t-19.5 51.5zM119 709q0 30 19.5 50.5t47.5 20.5h265v277q0 29 20.5 47t50.5 18q31 0 51.5 -18t20.5 -47v-277h270q28 0 48 -20.5t20 -50.5t-20 -51t-48 -21h-270 v-299q0 -66 -72 -66q-33 0 -52 17t-19 49v299h-265q-28 0 -47.5 20.5t-19.5 51.5z" />
<glyph unicode="&#xb2;" horiz-adv-x="614" d="M68 1341q0 22 22 48q86 94 207 94q96 0 168 -66.5t72 -165.5q0 -40 -16.5 -80.5t-35 -67t-51.5 -65.5l-207 -260h265q57 0 57 -59q0 -28 -15.5 -44t-41.5 -16h-351q-33 0 -51 19t-18 53q0 39 53 107l215 274q68 86 68 139q0 49 -33 82t-78 33q-62 0 -115 -57 q-27 -27 -55 -27q-23 0 -41 17t-18 42z" />
<glyph unicode="&#xb3;" horiz-adv-x="614" d="M86 764q0 26 16 42.5t41 16.5q27 0 52 -18q61 -41 102 -41q48 0 80.5 32t32.5 76v39q0 42 -30 71.5t-79 29.5h-70q-23 0 -40 15.5t-17 41.5q0 28 16.5 42.5t40.5 14.5h70q50 0 79.5 28.5t29.5 70.5v35q0 40 -32.5 72t-80.5 32q-41 0 -102 -41q-27 -18 -50 -18 q-27 0 -42 15t-15 42q0 35 35 57q93 64 174 64q101 0 170.5 -66.5t69.5 -156.5v-35q0 -99 -95 -156q41 -20 68 -62t27 -96v-39q0 -92 -69.5 -159.5t-170.5 -67.5q-53 0 -91.5 14.5t-86.5 47.5q-33 20 -33 57z" />
<glyph unicode="&#xb4;" horiz-adv-x="403" d="M41 1227q0 18 12 33l170 204q25 31 64 31q29 0 52 -22.5t23 -51.5q0 -36 -38 -69l-195 -162q-21 -16 -35 -16q-19 0 -36 15t-17 38z" />
<glyph unicode="&#xb5;" horiz-adv-x="1040" d="M39 -328q0 25 8.5 39.5t32.5 38.5q32 30 56 118.5t24 166.5v909q0 34 21.5 54t56.5 20t56 -20t21 -54v-604q0 -91 57.5 -154t147.5 -63q91 0 148 62.5t57 154.5v604q0 34 21.5 54t56.5 20t56.5 -20t21.5 -54v-889q0 -27 -17.5 -44t-44.5 -17q-13 0 -26.5 7.5t-20.5 14.5 t-20 21q-1 1 -5 5.5t-5 6t-4.5 5t-5.5 5t-5 4t-5.5 3t-6 1.5t-6.5 1q-17 0 -58 -25q-31 -18 -49.5 -27.5t-56.5 -20.5t-76 -11q-41 0 -82.5 17.5t-71.5 45.5v-12q0 -119 -35.5 -232.5t-93.5 -167.5q-38 -30 -75 -30q-29 0 -50.5 19.5t-21.5 47.5z" />
<glyph unicode="&#xb6;" horiz-adv-x="976" d="M63 1059q0 98 50.5 177t122 118t145.5 39h371q24 0 40.5 -17t16.5 -47v-1372q0 -29 -19.5 -48.5t-50.5 -19.5q-32 0 -51.5 19t-19.5 49v1311h-150v-1311q0 -29 -19 -48.5t-50 -19.5q-32 0 -52 19t-20 49v772q-54 0 -109.5 23.5t-101 65t-74.5 105t-29 136.5z" />
<glyph unicode="&#xb7;" horiz-adv-x="368" d="M80 514q0 43 31.5 72.5t72.5 29.5q42 0 73.5 -29.5t31.5 -72.5q0 -44 -31 -73t-74 -29q-42 0 -73 29.5t-31 72.5z" />
<glyph unicode="&#xb8;" horiz-adv-x="493" d="M84 -322q0 22 14 36t35 14q19 0 41 -15q32 -20 57 -20q29 0 49.5 17.5t20.5 47.5q0 68 -90 68q-26 0 -39.5 14.5t-11.5 36.5l28 127h97l-13 -90q67 0 106.5 -44.5t39.5 -111.5q0 -82 -55.5 -126t-131.5 -44q-68 0 -110 31q-37 26 -37 59z" />
<glyph unicode="&#xb9;" horiz-adv-x="532" d="M45 1290q0 34 27 53l161 115q32 23 62 23q28 0 44.5 -17t16.5 -45v-706q0 -27 -17 -43.5t-44 -16.5q-28 0 -47 16.5t-19 43.5v592l-82 -58q-21 -14 -41 -14q-26 0 -43.5 15.5t-17.5 41.5z" />
<glyph unicode="&#xba;" horiz-adv-x="655" d="M94 975v207q0 98 70.5 162.5t163.5 64.5q94 0 163.5 -65.5t69.5 -161.5v-207q0 -98 -69 -162.5t-164 -64.5q-93 0 -163.5 64t-70.5 163zM100 575q0 26 14 40t38 14h352q24 0 37.5 -14t13.5 -40q0 -24 -13.5 -37.5t-37.5 -13.5h-352q-24 0 -38 13.5t-14 37.5zM209 975 q0 -54 34 -88.5t85 -34.5t84.5 35.5t33.5 87.5v207q0 53 -33.5 88t-84.5 35t-85 -35t-34 -88v-207z" />
<glyph unicode="&#xbb;" horiz-adv-x="958" d="M82 172q0 18 8 29l258 315l-258 315q-8 11 -8 29q0 19 15.5 35t35.5 16q23 0 43 -20l301 -301q33 -37 33 -74t-33 -74l-301 -301q-20 -20 -43 -20q-20 0 -35.5 16.5t-15.5 34.5zM469 172q0 18 8 29l258 315l-258 315q-8 11 -8 29q0 19 15.5 35t35.5 16q23 0 43 -20 l301 -301q33 -37 33 -74t-33 -74l-301 -301q-20 -20 -43 -20q-20 0 -35.5 16.5t-15.5 34.5z" />
<glyph unicode="&#xbc;" horiz-adv-x="1525" d="M86 1249q0 35 27 54l161 114q32 23 62 23q28 0 44.5 -17t16.5 -45v-706q0 -27 -17 -43.5t-44 -16.5q-28 0 -47 16.5t-19 43.5v592l-82 -58q-21 -14 -41 -14q-26 0 -43.5 15.5t-17.5 41.5zM313 57q0 17 6 29l736 1278q8 15 23 25t32 10q28 0 49 -19.5t21 -46.5 q0 -16 -6 -28l-738 -1278q-16 -33 -59 -33q-27 0 -45.5 18t-18.5 45zM883 178q0 15 8 31l229 541q17 38 58 38q28 0 44.5 -16.5t16.5 -42.5q0 -16 -4 -24l-199 -472h160v152q0 24 15.5 39.5t45.5 15.5q29 0 43.5 -15.5t14.5 -39.5v-152h74q26 0 41.5 -15.5t15.5 -41.5 q0 -28 -15.5 -43.5t-41.5 -15.5h-74v-109q0 -57 -58 -57q-61 0 -61 57v109h-252q-28 0 -44.5 16.5t-16.5 44.5z" />
<glyph unicode="&#xbd;" horiz-adv-x="1525" d="M90 1249q0 35 27 54l162 114q32 23 61 23q28 0 44.5 -17t16.5 -45v-706q0 -27 -17 -43.5t-44 -16.5q-28 0 -47 16.5t-19 43.5v592l-81 -58q-21 -14 -41 -14q-26 0 -44 16t-18 41zM309 57q0 17 6 29l736 1278q8 15 23 25t32 10q28 0 49 -19.5t21 -46.5q0 -14 -7 -28 l-737 -1278q-16 -33 -59 -33q-27 0 -45.5 18t-18.5 45zM961 641q0 21 22 47q86 94 207 94q96 0 168 -66t72 -165q0 -40 -16.5 -80.5t-35 -67t-51.5 -65.5l-207 -260h264q27 0 42.5 -15.5t15.5 -44.5q0 -28 -16 -43.5t-42 -15.5h-350q-33 0 -51 19t-18 53q0 17 8 36.5 t17.5 33t27.5 36.5l215 275q67 85 67 139q0 49 -32.5 82t-77.5 33q-61 0 -115 -58q-26 -26 -55 -26q-23 0 -41 17t-18 42z" />
<glyph unicode="&#xbe;" horiz-adv-x="1525" d="M94 723q0 26 16.5 42.5t41.5 16.5q26 0 51 -18q61 -41 102 -41q48 0 80.5 32t32.5 76v39q0 42 -30 71.5t-79 29.5h-69q-23 0 -40.5 15.5t-17.5 41.5q0 28 17 42.5t41 14.5h69q50 0 79.5 28.5t29.5 70.5v35q0 40 -32.5 72t-80.5 32q-41 0 -102 -41q-2 -1 -5.5 -3.5 t-5 -3.5l-4.5 -3t-4.5 -2.5t-4.5 -2t-5.5 -1.5t-5.5 -1t-6.5 -1h-7.5q-28 0 -43 15t-15 42q0 35 35 57q93 64 174 64q101 0 170.5 -66.5t69.5 -156.5v-35q0 -100 -94 -156q41 -20 67.5 -62t26.5 -96v-39q0 -92 -69.5 -159.5t-170.5 -67.5q-53 0 -91.5 14.5t-86.5 47.5 q-33 20 -33 57zM332 57q0 17 6 29l735 1278q8 15 23 25t32 10q28 0 49 -19.5t21 -46.5q0 -16 -6 -28l-737 -1278q-17 -33 -60 -33q-27 0 -45 18t-18 45zM883 178q0 15 8 31l229 541q17 38 58 38q28 0 44.5 -16.5t16.5 -42.5q0 -16 -4 -24l-199 -472h160v152q0 24 15.5 39.5 t45.5 15.5q29 0 43.5 -15.5t14.5 -39.5v-152h74q26 0 41.5 -15.5t15.5 -41.5q0 -28 -15.5 -43.5t-41.5 -15.5h-74v-109q0 -57 -58 -57q-61 0 -61 57v109h-252q-28 0 -44.5 16.5t-16.5 44.5z" />
<glyph unicode="&#xbf;" horiz-adv-x="866" d="M66 -8q0 48 11.5 90.5t26.5 70.5t44 58.5t48 46t54 41.5q11 8 35 25t35.5 26t29.5 27t26.5 34.5t15.5 41.5t7 55v55q0 34 22 56t56 22q33 0 55.5 -22.5t22.5 -55.5v-55q0 -28 -3.5 -53t-7 -44t-13.5 -39t-15.5 -32.5t-21 -29t-22 -24t-26 -22t-25 -18.5t-28 -19 t-26.5 -18q-142 -98 -142 -217q0 -98 72 -169t172 -71q96 0 199 78q46 33 69 33q29 0 50.5 -20t21.5 -48q0 -41 -35 -69q-57 -50 -136.5 -85.5t-168.5 -35.5q-163 0 -283 110t-120 277zM371 918q0 44 30.5 73t73.5 29q42 0 73.5 -29.5t31.5 -72.5t-32 -73t-73 -30 q-42 0 -73 30t-31 73z" />
<glyph unicode="&#xc0;" horiz-adv-x="1087" d="M57 66q0 14 6 32l363 1207q12 42 43.5 67t73.5 25t73 -25t43 -67l365 -1205q6 -24 6 -34q0 -30 -24 -50t-60 -20q-29 0 -48.5 15t-25.5 40l-96 336h-467l-94 -340q-6 -23 -26 -37t-48 -14q-36 0 -60 20t-24 50zM338 1739q0 29 23 51t53 22q39 0 63 -30l170 -205 q12 -15 12 -33q0 -23 -17 -38t-36 -15q-21 0 -35 14l-194 164q-39 34 -39 70zM348 526h389l-147 521l-47 178l-47 -178z" />
<glyph unicode="&#xc1;" horiz-adv-x="1087" d="M57 66q0 14 6 32l363 1207q12 42 43.5 67t73.5 25t73 -25t43 -67l365 -1205q6 -24 6 -34q0 -30 -24 -50t-60 -20q-29 0 -48.5 15t-25.5 40l-96 336h-467l-94 -340q-6 -23 -26 -37t-48 -14q-36 0 -60 20t-24 50zM348 526h389l-147 521l-47 178l-47 -178zM416 1544 q0 18 12 33l170 205q24 30 64 30q29 0 52 -22t23 -51q0 -36 -39 -70l-194 -162q-21 -16 -35 -16q-19 0 -36 15t-17 38z" />
<glyph unicode="&#xc2;" horiz-adv-x="1087" d="M57 66q0 14 6 32l363 1207q12 42 43.5 67t73.5 25t73 -25t43 -67l365 -1205q6 -24 6 -34q0 -30 -24 -50t-60 -20q-29 0 -48.5 15t-25.5 40l-96 336h-467l-94 -340q-6 -23 -26 -37t-48 -14q-36 0 -60 20t-24 50zM299 1546q0 13 8 25l162 205q31 39 74 39q42 0 73 -39 l162 -205q8 -12 8 -25q0 -21 -16 -36t-35 -15q-23 0 -41 18l-151 146l-152 -146q-18 -18 -41 -18q-19 0 -35 15t-16 36zM348 526h389l-147 521l-47 178l-47 -178z" />
<glyph unicode="&#xc3;" horiz-adv-x="1087" d="M57 66q0 14 6 32l363 1207q12 42 43.5 67t73.5 25t73 -25t43 -67l365 -1205q6 -24 6 -34q0 -30 -24 -50t-60 -20q-29 0 -48.5 15t-25.5 40l-96 336h-467l-94 -340q-6 -23 -26 -37t-48 -14q-36 0 -60 20t-24 50zM272 1585q0 68 46 117t112 49q11 0 20.5 -1.5t19.5 -5 t16.5 -6t17 -9t14.5 -9t15 -10.5t14 -10q8 -5 23 -17t23.5 -17.5t21 -11t24.5 -5.5q22 0 35.5 18t15.5 39q2 19 18 32t40 13q23 0 39 -15t16 -38q0 -68 -46 -117t-112 -49q-47 0 -117 53q-4 3 -18 14t-19.5 14.5t-16 10t-19.5 8.5t-19 2q-22 0 -35 -15.5t-16 -37.5 q-3 -20 -19 -33.5t-38 -13.5q-23 0 -39.5 13.5t-16.5 37.5zM348 526h389l-147 521l-47 178l-47 -178z" />
<glyph unicode="&#xc4;" horiz-adv-x="1087" d="M57 66q0 14 6 32l363 1207q12 42 43.5 67t73.5 25t73 -25t43 -67l365 -1205q6 -24 6 -34q0 -30 -24 -50t-60 -20q-29 0 -48.5 15t-25.5 40l-96 336h-467l-94 -340q-6 -23 -26 -37t-48 -14q-36 0 -60 20t-24 50zM291 1659q0 40 26.5 67t67.5 27q40 0 67 -27t27 -67 q0 -41 -27 -67.5t-67 -26.5q-41 0 -67.5 26.5t-26.5 67.5zM348 526h389l-147 521l-47 178l-47 -178zM594 1659q0 40 27 67t67 27q41 0 67.5 -27t26.5 -67q0 -41 -26.5 -67.5t-67.5 -26.5q-40 0 -67 26.5t-27 67.5z" />
<glyph unicode="&#xc5;" horiz-adv-x="1087" d="M57 66q0 14 6 32l363 1207q12 42 43.5 67t73.5 25t73 -25t43 -67l365 -1205q6 -24 6 -34q0 -30 -24 -50t-60 -20q-29 0 -48.5 15t-25.5 40l-96 336h-467l-94 -340q-6 -23 -26 -37t-48 -14q-36 0 -60 20t-24 50zM348 526h389l-147 521l-47 178l-47 -178zM352 1655 q0 77 54.5 128.5t136.5 51.5q79 0 134.5 -52t55.5 -128t-55.5 -128t-134.5 -52q-82 0 -136.5 51.5t-54.5 128.5zM446 1655q0 -45 25.5 -73t71.5 -28q44 0 70 28t26 73t-26 72.5t-70 27.5q-46 0 -71.5 -27.5t-25.5 -72.5z" />
<glyph unicode="&#xc6;" horiz-adv-x="1529" d="M37 63q0 21 8 37l619 1233q12 24 35.5 42t52.5 18h630q30 0 50 -20t20 -52t-20 -52t-50 -20h-479v-475h412q30 0 49.5 -20t19.5 -52t-19.5 -51.5t-49.5 -19.5h-412v-488h479q30 0 50 -19t20 -52t-20 -52.5t-50 -19.5h-559q-35 0 -57.5 21t-22.5 53v278h-405l-152 -309 q-25 -51 -73 -51q-31 0 -53.5 20t-22.5 51zM412 500h331v686z" />
<glyph unicode="&#xc7;" horiz-adv-x="974" d="M143 420v553q0 190 125 311t303 121q146 0 273 -78q26 -16 37.5 -32.5t11.5 -41.5q0 -29 -21 -49t-49 -20q-21 0 -61 22q-98 56 -191 56q-115 0 -191.5 -84t-76.5 -205v-553q0 -121 76.5 -205t191.5 -84q89 0 193 55q38 21 59 21q28 0 49 -20.5t21 -49.5q0 -25 -10.5 -40 t-36.5 -31q-121 -73 -252 -78l-10 -72q67 0 106 -44.5t39 -111.5q0 -82 -55 -125t-131 -43q-69 0 -111 31q-37 26 -37 60q0 21 14 35t35 14q18 0 41 -15q32 -20 58 -20q29 0 49 16.5t20 46.5q0 68 -90 68q-26 0 -39.5 14.5t-11.5 36.5l25 115q-152 26 -252.5 141.5 t-100.5 284.5z" />
<glyph unicode="&#xc8;" horiz-adv-x="978" d="M172 74v1245q0 32 23 53t57 21h559q30 0 50 -20t20 -52t-20 -52t-50 -20h-479v-475h411q30 0 50 -20t20 -52t-20 -51.5t-50 -19.5h-411v-488h479q30 0 50 -19t20 -52t-20 -52.5t-50 -19.5h-559q-35 0 -57.5 21t-22.5 53zM332 1739q0 29 23 51t53 22q39 0 63 -30l170 -205 q12 -15 12 -33q0 -23 -17 -38t-36 -15q-21 0 -35 14l-194 164q-39 34 -39 70z" />
<glyph unicode="&#xc9;" horiz-adv-x="978" d="M172 74v1245q0 32 23 53t57 21h559q30 0 50 -20t20 -52t-20 -52t-50 -20h-479v-475h411q30 0 50 -20t20 -52t-20 -51.5t-50 -19.5h-411v-488h479q30 0 50 -19t20 -52t-20 -52.5t-50 -19.5h-559q-35 0 -57.5 21t-22.5 53zM410 1544q0 18 12 33l170 205q24 30 63 30 q30 0 53 -22t23 -51q0 -36 -39 -70l-194 -162q-21 -16 -35 -16q-19 0 -36 15t-17 38z" />
<glyph unicode="&#xca;" horiz-adv-x="978" d="M172 74v1245q0 32 23 53t57 21h559q30 0 50 -20t20 -52t-20 -52t-50 -20h-479v-475h411q30 0 50 -20t20 -52t-20 -51.5t-50 -19.5h-411v-488h479q30 0 50 -19t20 -52t-20 -52.5t-50 -19.5h-559q-35 0 -57.5 21t-22.5 53zM293 1546q0 13 8 25l162 205q31 39 74 39 q42 0 73 -39l162 -205q8 -12 8 -25q0 -21 -16 -36t-35 -15q-23 0 -41 18l-151 146l-152 -146q-18 -18 -41 -18q-19 0 -35 15t-16 36z" />
<glyph unicode="&#xcb;" horiz-adv-x="978" d="M172 74v1245q0 32 23 53t57 21h559q30 0 50 -20t20 -52t-20 -52t-50 -20h-479v-475h411q30 0 50 -20t20 -52t-20 -51.5t-50 -19.5h-411v-488h479q30 0 50 -19t20 -52t-20 -52.5t-50 -19.5h-559q-35 0 -57.5 21t-22.5 53zM285 1659q0 40 26.5 67t67.5 27q40 0 67 -27 t27 -67q0 -41 -27 -67.5t-67 -26.5q-41 0 -67.5 26.5t-26.5 67.5zM588 1659q0 40 27 67t67 27q41 0 67.5 -27t26.5 -67q0 -41 -26.5 -67.5t-67.5 -26.5q-40 0 -67 26.5t-27 67.5z" />
<glyph unicode="&#xcc;" horiz-adv-x="512" d="M51 1739q0 29 23 51t53 22q39 0 63 -30l170 -205q13 -16 13 -33q0 -23 -17.5 -38t-36.5 -15q-20 0 -34 14l-195 164q-39 34 -39 70zM176 70v1253q0 33 22 53.5t58 20.5t58 -20.5t22 -53.5v-1253q0 -34 -21.5 -54t-58.5 -20t-58.5 20t-21.5 54z" />
<glyph unicode="&#xcd;" horiz-adv-x="512" d="M129 1544q0 18 12 33l170 205q24 30 64 30q30 0 53 -22t23 -51q0 -36 -39 -70l-195 -162q-21 -16 -35 -16q-19 0 -36 15t-17 38zM176 70v1253q0 33 22 53.5t58 20.5t58 -20.5t22 -53.5v-1253q0 -34 -21.5 -54t-58.5 -20t-58.5 20t-21.5 54z" />
<glyph unicode="&#xce;" horiz-adv-x="512" d="M12 1546q0 13 8 25l162 205q31 39 74 39t74 -39l162 -205q8 -12 8 -25q0 -21 -16 -36t-35 -15q-23 0 -41 18l-152 146l-152 -146q-18 -18 -41 -18q-19 0 -35 15t-16 36zM176 70v1253q0 33 22 53.5t58 20.5t58 -20.5t22 -53.5v-1253q0 -34 -21.5 -54t-58.5 -20t-58.5 20 t-21.5 54z" />
<glyph unicode="&#xcf;" horiz-adv-x="512" d="M4 1659q0 40 26.5 67t67.5 27q40 0 67.5 -27t27.5 -67q0 -41 -27.5 -67.5t-67.5 -26.5q-41 0 -67.5 26.5t-26.5 67.5zM176 70v1253q0 33 22 53.5t58 20.5t58 -20.5t22 -53.5v-1253q0 -34 -21.5 -54t-58.5 -20t-58.5 20t-21.5 54zM307 1659q0 40 27 67t67 27q41 0 68 -27 t27 -67q0 -41 -27 -67.5t-68 -26.5q-40 0 -67 26.5t-27 67.5z" />
<glyph unicode="&#xd0;" horiz-adv-x="1128" d="M31 709q0 26 17 44.5t40 18.5h84v547q0 33 23 53.5t57 20.5h328q186 0 302.5 -112t116.5 -298v-573q0 -186 -116.5 -298t-302.5 -112h-328q-34 0 -57 20.5t-23 53.5v571h-84q-23 0 -40 19t-17 45zM332 143h248q108 0 184 73t76 194v573q0 120 -76 193t-184 73h-248v-477 h162q23 0 40 -18.5t17 -44.5t-17 -45t-40 -19h-162v-502z" />
<glyph unicode="&#xd1;" horiz-adv-x="1208" d="M172 70v1253q0 33 23 53.5t59 20.5q61 0 90 -56l533 -1003v985q0 34 22 54t57 20q36 0 58 -20.5t22 -53.5v-1253q0 -34 -22 -54t-60 -20q-65 0 -94 59l-528 1000v-985q0 -34 -21.5 -54t-58.5 -20t-58.5 20t-21.5 54zM346 1585q0 68 46 117t112 49q11 0 20.5 -1.5t19.5 -5 t16.5 -6t17 -9t14.5 -9t15 -10.5t14 -10q8 -5 23 -17t23.5 -17.5t21 -11t24.5 -5.5q22 0 35.5 18t15.5 39q2 19 17.5 32t39.5 13t40 -15t16 -38q0 -68 -46 -117t-112 -49q-47 0 -117 53q-4 3 -18 14t-19.5 14.5t-16 10t-19.5 8.5t-19 2q-22 0 -35 -15.5t-16 -37.5 q-3 -19 -19 -33t-39 -14t-39 13.5t-16 37.5z" />
<glyph unicode="&#xd2;" horiz-adv-x="1142" d="M143 414v565q0 187 125 308.5t303 121.5t303 -121.5t125 -308.5v-565q0 -187 -125 -308.5t-303 -121.5t-303 121.5t-125 308.5zM303 414q0 -122 76 -204.5t192 -82.5q117 0 193 82t76 205v565q0 123 -76 205t-193 82t-192.5 -81.5t-75.5 -205.5v-565zM367 1739 q0 29 23 51t52 22q40 0 64 -30l170 -205q12 -15 12 -33q0 -23 -17 -38t-36 -15q-21 0 -35 14l-194 164q-39 34 -39 70z" />
<glyph unicode="&#xd3;" horiz-adv-x="1142" d="M143 414v565q0 187 125 308.5t303 121.5t303 -121.5t125 -308.5v-565q0 -187 -125 -308.5t-303 -121.5t-303 121.5t-125 308.5zM303 414q0 -122 76 -204.5t192 -82.5q117 0 193 82t76 205v565q0 123 -76 205t-193 82t-192.5 -81.5t-75.5 -205.5v-565zM444 1544 q0 17 13 33l170 205q24 30 63 30q30 0 53 -22t23 -51q0 -36 -39 -70l-195 -162q-21 -16 -34 -16q-19 0 -36.5 15t-17.5 38z" />
<glyph unicode="&#xd4;" horiz-adv-x="1142" d="M143 414v565q0 187 125 308.5t303 121.5t303 -121.5t125 -308.5v-565q0 -187 -125 -308.5t-303 -121.5t-303 121.5t-125 308.5zM303 414q0 -122 76 -204.5t192 -82.5q117 0 193 82t76 205v565q0 123 -76 205t-193 82t-192.5 -81.5t-75.5 -205.5v-565zM328 1546q0 13 8 25 l162 205q31 39 73 39q43 0 74 -39l162 -205q8 -12 8 -25q0 -21 -16 -36t-35 -15q-23 0 -41 18l-152 146l-151 -146q-18 -18 -41 -18q-19 0 -35 15t-16 36z" />
<glyph unicode="&#xd5;" horiz-adv-x="1142" d="M143 414v565q0 187 125 308.5t303 121.5t303 -121.5t125 -308.5v-565q0 -187 -125 -308.5t-303 -121.5t-303 121.5t-125 308.5zM301 1585q0 68 46 117t112 49q12 0 24.5 -2.5t20.5 -5t20.5 -9.5t16.5 -10t18 -13t16 -11q7 -5 23 -17t24.5 -17.5t21 -11t24.5 -5.5 q22 0 35.5 18t15.5 39q2 19 17.5 32t39.5 13q23 0 39 -15t16 -38q0 -68 -45.5 -117t-111.5 -49q-47 0 -117 53q-4 3 -18 14t-19.5 14.5t-16 10t-19.5 8.5t-19 2q-22 0 -35 -15.5t-16 -37.5q-3 -19 -19 -33t-39 -14t-39 13.5t-16 37.5zM303 414q0 -122 76 -204.5t192 -82.5 q117 0 193 82t76 205v565q0 123 -76 205t-193 82t-192.5 -81.5t-75.5 -205.5v-565z" />
<glyph unicode="&#xd6;" horiz-adv-x="1142" d="M143 414v565q0 187 125 308.5t303 121.5t303 -121.5t125 -308.5v-565q0 -187 -125 -308.5t-303 -121.5t-303 121.5t-125 308.5zM303 414q0 -122 76 -204.5t192 -82.5q117 0 193 82t76 205v565q0 123 -76 205t-193 82t-192.5 -81.5t-75.5 -205.5v-565zM319 1659 q0 40 27 67t68 27q40 0 67 -27t27 -67q0 -41 -27 -67.5t-67 -26.5q-41 0 -68 26.5t-27 67.5zM623 1659q0 40 27 67t67 27q41 0 67.5 -27t26.5 -67q0 -41 -26.5 -67.5t-67.5 -26.5q-40 0 -67 26.5t-27 67.5z" />
<glyph unicode="&#xd7;" d="M158 203q0 31 20 51l252 266l-250 266q-22 25 -22 52t21.5 47t45.5 20q29 0 49 -20l248 -264l250 264q20 20 49 20q24 0 46 -20t22 -47q0 -26 -23 -52l-250 -266l252 -266q21 -21 21 -51q0 -27 -19.5 -46.5t-46.5 -19.5q-30 0 -49 19l-252 266l-250 -266q-19 -19 -49 -19 q-27 0 -46 19.5t-19 46.5z" />
<glyph unicode="&#xd8;" horiz-adv-x="1142" d="M143 414v565q0 187 125 308.5t303 121.5q101 0 193 -45l24 66q13 40 54 40q26 0 43.5 -16t17.5 -39q0 -2 -6 -26l-35 -91q65 -58 101 -140.5t36 -178.5v-565q0 -187 -125 -308.5t-303 -121.5q-103 0 -194 43l-27 -70q-14 -39 -51 -39q-25 0 -43 15t-18 38q0 14 6 29 l35 94q-136 123 -136 320zM303 414q0 -87 39 -154l369 967q-61 39 -140 39q-117 0 -192.5 -81.5t-75.5 -205.5v-565zM430 166q61 -39 141 -39q117 0 193 82t76 205v565q0 88 -41 156z" />
<glyph unicode="&#xd9;" horiz-adv-x="1191" d="M168 414v909q0 33 22 53.5t58 20.5t58 -20.5t22 -53.5v-909q0 -123 76.5 -205t191.5 -82t191.5 82t76.5 205v909q0 33 22 53.5t58 20.5t58 -20.5t22 -53.5v-909q0 -123 -60.5 -223t-158 -153.5t-209.5 -53.5t-209.5 53.5t-158 153.5t-60.5 223zM391 1739q0 29 23 51 t53 22q39 0 63 -30l170 -205q13 -16 13 -33q0 -23 -17.5 -38t-36.5 -15q-20 0 -34 14l-195 164q-39 34 -39 70z" />
<glyph unicode="&#xda;" horiz-adv-x="1191" d="M168 414v909q0 33 22 53.5t58 20.5t58 -20.5t22 -53.5v-909q0 -123 76.5 -205t191.5 -82t191.5 82t76.5 205v909q0 33 22 53.5t58 20.5t58 -20.5t22 -53.5v-909q0 -123 -60.5 -223t-158 -153.5t-209.5 -53.5t-209.5 53.5t-158 153.5t-60.5 223zM469 1544q0 18 12 33 l170 205q24 30 64 30q30 0 53 -22t23 -51q0 -36 -39 -70l-195 -162q-21 -16 -35 -16q-19 0 -36 15t-17 38z" />
<glyph unicode="&#xdb;" horiz-adv-x="1191" d="M168 414v909q0 33 22 53.5t58 20.5t58 -20.5t22 -53.5v-909q0 -123 76.5 -205t191.5 -82t191.5 82t76.5 205v909q0 33 22 53.5t58 20.5t58 -20.5t22 -53.5v-909q0 -123 -60.5 -223t-158 -153.5t-209.5 -53.5t-209.5 53.5t-158 153.5t-60.5 223zM352 1546q0 13 8 25 l162 205q31 39 74 39t74 -39l161 -205q9 -13 9 -25q0 -21 -16 -36t-36 -15q-22 0 -40 18l-152 146l-152 -146q-18 -18 -41 -18q-19 0 -35 15t-16 36z" />
<glyph unicode="&#xdc;" horiz-adv-x="1191" d="M168 414v909q0 33 22 53.5t58 20.5t58 -20.5t22 -53.5v-909q0 -123 76.5 -205t191.5 -82t191.5 82t76.5 205v909q0 33 22 53.5t58 20.5t58 -20.5t22 -53.5v-909q0 -123 -60.5 -223t-158 -153.5t-209.5 -53.5t-209.5 53.5t-158 153.5t-60.5 223zM344 1659q0 40 26.5 67 t67.5 27q40 0 67 -27t27 -67q0 -41 -27 -67.5t-67 -26.5q-41 0 -67.5 26.5t-26.5 67.5zM647 1659q0 40 27 67t67 27q41 0 68 -27t27 -67q0 -41 -27 -67.5t-68 -26.5q-40 0 -67 26.5t-27 67.5z" />
<glyph unicode="&#xdd;" d="M45 1323q0 34 24.5 55t59.5 21q21 0 39.5 -12.5t26.5 -28.5l329 -596l332 598q23 39 64 39q35 0 59.5 -21t24.5 -55q0 -21 -13 -43l-387 -659v-551q0 -33 -22 -53.5t-58 -20.5t-58 20.5t-22 53.5v551l-387 659q-12 20 -12 43zM397 1544q0 17 13 33l170 205q24 30 63 30 q30 0 53 -22t23 -51q0 -36 -39 -70l-195 -162q-21 -16 -34 -16q-19 0 -36.5 15t-17.5 38z" />
<glyph unicode="&#xde;" horiz-adv-x="1050" d="M176 70v1253q0 33 22 53.5t58 20.5t58 -20.5t22 -53.5v-207h213q199 0 317.5 -105t118.5 -294q0 -194 -119 -297t-317 -103h-213v-247q0 -34 -21.5 -54t-58.5 -20t-58.5 20t-21.5 54zM336 461h213q127 0 201.5 67t74.5 189q0 123 -74 189.5t-202 66.5h-213v-512z" />
<glyph unicode="&#xdf;" horiz-adv-x="1077" d="M156 66v972q0 151 110 260t252 109q147 0 246.5 -98t99.5 -236q0 -57 -21.5 -105.5t-52 -80t-60.5 -59t-51.5 -57t-21.5 -58.5q0 -33 18.5 -60t48 -47t65 -39.5t71 -44t65 -55t48 -77.5t18.5 -107q0 -137 -89 -218t-228 -81q-80 0 -152 30q-59 26 -59 80q0 31 20.5 50.5 t51.5 19.5q24 0 68.5 -18.5t70.5 -18.5q65 0 111 41t46 115q0 38 -18.5 69t-47.5 53.5t-65 44t-71.5 45t-64.5 51.5t-47.5 69t-18.5 92q0 48 21.5 89t52 71t61.5 59t52.5 66t21.5 79q0 79 -55.5 134t-133.5 55q-80 0 -141.5 -64t-61.5 -158v-972q0 -31 -23 -51.5t-59 -20.5 q-34 0 -55.5 20.5t-21.5 51.5z" />
<glyph unicode="&#xe0;" horiz-adv-x="966" d="M106 297q0 142 101 218.5t260 76.5h197v86q0 87 -57.5 150t-143.5 63q-70 0 -158 -45q-42 -21 -61 -21q-30 0 -50 21t-20 49q0 46 55 74q116 61 234 61q147 0 251.5 -101t104.5 -251v-627q0 -28 -17 -43.5t-46 -15.5q-31 0 -64 41q-24 28 -41 28t-57 -24 q-88 -53 -164 -53q-140 0 -232 87t-92 226zM260 297q0 -82 56 -128t145 -46q88 0 145.5 48t57.5 132v162h-197q-93 0 -150 -43.5t-57 -124.5zM274 1421q0 29 23.5 51.5t52.5 22.5q39 0 64 -31l170 -204q12 -15 12 -33q0 -23 -17 -38t-36 -15q-21 0 -35 14l-195 164 q-39 34 -39 69z" />
<glyph unicode="&#xe1;" horiz-adv-x="966" d="M106 297q0 142 101 218.5t260 76.5h197v86q0 87 -57.5 150t-143.5 63q-70 0 -158 -45q-42 -21 -61 -21q-30 0 -50 21t-20 49q0 46 55 74q116 61 234 61q147 0 251.5 -101t104.5 -251v-627q0 -28 -17 -43.5t-46 -15.5q-31 0 -64 41q-24 28 -41 28t-57 -24 q-88 -53 -164 -53q-140 0 -232 87t-92 226zM260 297q0 -82 56 -128t145 -46q88 0 145.5 48t57.5 132v162h-197q-93 0 -150 -43.5t-57 -124.5zM352 1227q0 17 13 33l170 204q25 31 63 31q29 0 52.5 -22.5t23.5 -51.5q0 -35 -39 -69l-195 -162q-21 -16 -34 -16q-19 0 -36.5 15 t-17.5 38z" />
<glyph unicode="&#xe2;" horiz-adv-x="966" d="M106 297q0 142 101 218.5t260 76.5h197v86q0 87 -57.5 150t-143.5 63q-70 0 -158 -45q-42 -21 -61 -21q-30 0 -50 21t-20 49q0 46 55 74q116 61 234 61q147 0 251.5 -101t104.5 -251v-627q0 -28 -17 -43.5t-46 -15.5q-31 0 -64 41q-24 28 -41 28t-57 -24 q-88 -53 -164 -53q-140 0 -232 87t-92 226zM236 1229q0 12 8 24l162 205q31 39 73 39q43 0 74 -39l162 -205q8 -12 8 -24q0 -21 -16 -36t-35 -15q-23 0 -41 18l-152 145l-151 -145q-18 -18 -41 -18q-19 0 -35 15t-16 36zM260 297q0 -82 56 -128t145 -46q88 0 145.5 48 t57.5 132v162h-197q-93 0 -150 -43.5t-57 -124.5z" />
<glyph unicode="&#xe3;" horiz-adv-x="966" d="M106 297q0 142 101 218.5t260 76.5h197v86q0 87 -57.5 150t-143.5 63q-70 0 -158 -45q-42 -21 -61 -21q-30 0 -50 21t-20 49q0 46 55 74q116 61 234 61q147 0 251.5 -101t104.5 -251v-627q0 -28 -17 -43.5t-46 -15.5q-31 0 -64 41q-24 28 -41 28t-57 -24 q-88 -53 -164 -53q-140 0 -232 87t-92 226zM209 1268q0 68 46 117t112 49q15 0 27.5 -2.5t27 -10t20 -10.5t23 -15.5t18.5 -13.5q8 -5 23 -17t23.5 -17.5t21 -11t24.5 -5.5q22 0 36 18.5t16 39.5q2 19 17.5 32t39.5 13q23 0 39 -15.5t16 -38.5q0 -68 -45.5 -117t-111.5 -49 q-22 0 -45.5 9.5t-35.5 18t-36 26.5q-4 3 -18 14t-19.5 14.5t-16 10t-19.5 8.5t-19 2q-22 0 -35 -15.5t-16 -37.5q-3 -19 -19 -33t-39 -14t-39 13.5t-16 37.5zM260 297q0 -82 56 -128t145 -46q88 0 145.5 48t57.5 132v162h-197q-93 0 -150 -43.5t-57 -124.5z" />
<glyph unicode="&#xe4;" horiz-adv-x="966" d="M106 297q0 142 101 218.5t260 76.5h197v86q0 87 -57.5 150t-143.5 63q-70 0 -158 -45q-42 -21 -61 -21q-30 0 -50 21t-20 49q0 46 55 74q116 61 234 61q147 0 251.5 -101t104.5 -251v-627q0 -28 -17 -43.5t-46 -15.5q-31 0 -64 41q-24 28 -41 28t-57 -24 q-88 -53 -164 -53q-140 0 -232 87t-92 226zM227 1341q0 40 27 67.5t68 27.5q40 0 67 -27.5t27 -67.5q0 -41 -27 -67.5t-67 -26.5q-41 0 -68 26.5t-27 67.5zM260 297q0 -82 56 -128t145 -46q88 0 145.5 48t57.5 132v162h-197q-93 0 -150 -43.5t-57 -124.5zM530 1341 q0 40 27.5 67.5t67.5 27.5q41 0 67.5 -27.5t26.5 -67.5q0 -41 -26.5 -67.5t-67.5 -26.5q-40 0 -67.5 26.5t-27.5 67.5z" />
<glyph unicode="&#xe5;" horiz-adv-x="966" d="M106 297q0 142 101 218.5t260 76.5h197v86q0 87 -57.5 150t-143.5 63q-70 0 -158 -45q-42 -21 -61 -21q-30 0 -50 21t-20 49q0 46 55 74q116 61 234 61q147 0 251.5 -101t104.5 -251v-627q0 -28 -17 -43.5t-46 -15.5q-31 0 -64 41q-24 28 -41 28t-57 -24 q-88 -53 -164 -53q-140 0 -232 87t-92 226zM260 297q0 -82 56 -128t145 -46q88 0 145.5 48t57.5 132v162h-197q-93 0 -150 -43.5t-57 -124.5zM289 1337q0 77 54.5 129t135.5 52q79 0 135 -52.5t56 -128.5t-56 -128t-135 -52q-82 0 -136 51.5t-54 128.5zM383 1337 q0 -45 25 -72.5t71 -27.5q44 0 70 27.5t26 72.5t-26 73t-70 28q-46 0 -71 -27.5t-25 -73.5z" />
<glyph unicode="&#xe6;" horiz-adv-x="1474" d="M100 297q0 142 100 218.5t259 76.5h196v88q0 87 -60 149t-144 62q-81 0 -166 -47q-38 -19 -60 -19q-30 0 -49.5 20t-19.5 48q0 45 53 72q115 65 242 65q92 0 166.5 -39t117.5 -102q44 63 119 102t160 39q142 0 250 -100t108 -250v-135q0 -34 -23 -57t-59 -23h-479v-125 q0 -94 61 -155.5t150 -61.5q84 0 170 55q38 23 61 23q28 0 48 -21.5t20 -50.5q0 -43 -51 -74q-113 -71 -248 -71q-95 0 -173 37.5t-126 103.5q-43 -59 -121.5 -100t-159.5 -41q-145 0 -243.5 87t-98.5 226zM254 297q0 -82 56 -128t145 -46q86 0 143 53.5t57 138.5v150h-196 q-92 0 -148.5 -43.5t-56.5 -124.5zM811 592h406v88q0 88 -59 149.5t-144 61.5q-86 0 -144.5 -59.5t-58.5 -149.5v-90z" />
<glyph unicode="&#xe7;" horiz-adv-x="825" d="M131 344v326q0 162 108.5 261t258.5 99q112 0 211 -63q45 -28 45 -70q0 -28 -20 -48t-48 -20q-19 0 -49 17q-74 45 -139 45q-86 0 -148.5 -61.5t-62.5 -159.5v-326q0 -98 62.5 -159.5t148.5 -61.5q59 0 139 45q28 16 49 16q28 0 48 -19.5t20 -47.5q0 -42 -45 -70 q-91 -60 -207 -63l-8 -70q67 0 106 -44.5t39 -111.5q0 -82 -55 -126t-131 -44q-69 0 -111 31q-37 26 -37 59q0 22 14.5 36t34.5 14q18 0 41 -15q32 -20 58 -20q29 0 49 17.5t20 47.5q0 68 -90 68q-26 0 -41 14.5t-10 36.5l25 119q-120 28 -197.5 120t-77.5 228z" />
<glyph unicode="&#xe8;" horiz-adv-x="954" d="M131 340v340q0 150 108 250t250 100t250.5 -100t108.5 -250v-135q0 -34 -23 -57t-59 -23h-479v-125q0 -94 61 -155.5t150 -61.5q84 0 170 55q38 23 61 23q28 0 48 -21.5t20 -50.5q0 -42 -52 -74q-113 -71 -247 -71q-159 0 -263 100.5t-104 255.5zM285 1421q0 29 23 51.5 t52 22.5q39 0 64 -31l170 -204q12 -15 12 -33q0 -23 -17 -38t-36 -15q-21 0 -35 14l-194 164q-39 34 -39 69zM287 592h405v88q0 88 -59 149.5t-144 61.5q-86 0 -144 -60t-58 -151v-88z" />
<glyph unicode="&#xe9;" horiz-adv-x="954" d="M131 340v340q0 150 108 250t250 100t250.5 -100t108.5 -250v-135q0 -34 -23 -57t-59 -23h-479v-125q0 -94 61 -155.5t150 -61.5q84 0 170 55q38 23 61 23q28 0 48 -21.5t20 -50.5q0 -42 -52 -74q-113 -71 -247 -71q-159 0 -263 100.5t-104 255.5zM287 592h405v88 q0 88 -59 149.5t-144 61.5q-86 0 -144 -60t-58 -151v-88zM362 1227q0 17 13 33l170 204q25 31 63 31q29 0 52.5 -22.5t23.5 -51.5q0 -35 -39 -69l-194 -162q-21 -16 -35 -16q-19 0 -36.5 15t-17.5 38z" />
<glyph unicode="&#xea;" horiz-adv-x="954" d="M131 340v340q0 150 108 250t250 100t250.5 -100t108.5 -250v-135q0 -34 -23 -57t-59 -23h-479v-125q0 -94 61 -155.5t150 -61.5q84 0 170 55q38 23 61 23q28 0 48 -21.5t20 -50.5q0 -42 -52 -74q-113 -71 -247 -71q-159 0 -263 100.5t-104 255.5zM246 1229q0 12 8 24 l162 205q31 39 73 39q43 0 74 -39l162 -205q8 -12 8 -24q0 -21 -16 -36t-35 -15q-23 0 -41 18l-152 145l-151 -145q-18 -18 -41 -18q-19 0 -35 15t-16 36zM287 592h405v88q0 88 -59 149.5t-144 61.5q-86 0 -144 -60t-58 -151v-88z" />
<glyph unicode="&#xeb;" horiz-adv-x="954" d="M131 340v340q0 150 108 250t250 100t250.5 -100t108.5 -250v-135q0 -34 -23 -57t-59 -23h-479v-125q0 -94 61 -155.5t150 -61.5q84 0 170 55q38 23 61 23q28 0 48 -21.5t20 -50.5q0 -42 -52 -74q-113 -71 -247 -71q-159 0 -263 100.5t-104 255.5zM238 1341 q0 40 26.5 67.5t67.5 27.5q40 0 67 -27.5t27 -67.5q0 -41 -27 -67.5t-67 -26.5q-41 0 -67.5 26.5t-26.5 67.5zM287 592h405v88q0 88 -59 149.5t-144 61.5q-86 0 -144 -60t-58 -151v-88zM541 1341q0 40 27 67.5t67 27.5q41 0 67.5 -27.5t26.5 -67.5q0 -41 -26.5 -67.5 t-67.5 -26.5q-40 0 -67 26.5t-27 67.5z" />
<glyph unicode="&#xec;" horiz-adv-x="491" d="M84 1421q0 29 23.5 51.5t52.5 22.5q38 0 63 -31l170 -204q13 -16 13 -33q0 -23 -17.5 -38t-36.5 -15q-21 0 -35 14l-194 164q-39 34 -39 69zM168 70v874q0 34 21.5 54t56.5 20t56.5 -20t21.5 -54v-874q0 -34 -21.5 -54t-56.5 -20t-56.5 20t-21.5 54z" />
<glyph unicode="&#xed;" horiz-adv-x="491" d="M84 1227q0 18 12 33l170 204q25 31 64 31q29 0 52.5 -22.5t23.5 -51.5q0 -35 -39 -69l-195 -162q-21 -16 -35 -16q-19 0 -36 15t-17 38zM168 70v874q0 34 21.5 54t56.5 20t56.5 -20t21.5 -54v-874q0 -34 -21.5 -54t-56.5 -20t-56.5 20t-21.5 54z" />
<glyph unicode="&#xee;" horiz-adv-x="491" d="M2 1229q0 12 8 24l162 205q31 39 74 39q42 0 73 -39l162 -205q8 -12 8 -24q0 -21 -16 -36t-35 -15q-23 0 -41 18l-151 145l-152 -145q-18 -18 -41 -18q-19 0 -35 15t-16 36zM168 70v874q0 34 21.5 54t56.5 20t56.5 -20t21.5 -54v-874q0 -34 -21.5 -54t-56.5 -20t-56.5 20 t-21.5 54z" />
<glyph unicode="&#xef;" horiz-adv-x="491" d="M0 1341q0 40 26.5 67.5t67.5 27.5q40 0 67 -27.5t27 -67.5q0 -41 -27 -67.5t-67 -26.5q-41 0 -67.5 26.5t-26.5 67.5zM168 70v874q0 34 21.5 54t56.5 20t56.5 -20t21.5 -54v-874q0 -34 -21.5 -54t-56.5 -20t-56.5 20t-21.5 54zM303 1341q0 40 27 67.5t67 27.5 q41 0 68 -27.5t27 -67.5q0 -41 -27 -67.5t-68 -26.5q-40 0 -67 26.5t-27 67.5z" />
<glyph unicode="&#xf0;" horiz-adv-x="989" d="M133 340v252q0 158 99 257t243 99q93 0 160 -45q5 -3 17 -12.5t20 -14t14 -4.5q16 0 16 23v-6q-3 151 -110 289l-119 -82q-22 -14 -44.5 -10t-37.5 24q-12 17 -9.5 41.5t19.5 34.5l107 74q-33 29 -76 47q-51 20 -106 20q-32 0 -53 18.5t-21 49.5q0 29 17 47.5t46 23.5 q57 10 148 -20q87 -27 170 -100l129 90q14 11 39.5 9t38.5 -18q13 -15 11.5 -42.5t-15.5 -36.5l-121 -84q65 -81 104 -180.5t39 -198.5v-545q0 -153 -108.5 -254.5t-253.5 -101.5q-147 0 -255 99.5t-108 256.5zM289 340q0 -93 60 -155t147 -62q86 0 146 63t60 154v252 q0 92 -59.5 154.5t-146.5 62.5t-147 -62.5t-60 -154.5v-252z" />
<glyph unicode="&#xf1;" horiz-adv-x="1032" d="M160 70v886q0 28 17 45t44 17q34 0 64 -37q1 -1 4.5 -5t5 -5.5t4.5 -5t4.5 -5t4.5 -4t5.5 -3.5t5 -2.5t5.5 -2t6 -0.5q16 0 51 21q95 61 194 61q122 0 214 -100.5t92 -253.5v-606q0 -34 -21.5 -54t-56.5 -20t-56.5 20t-21.5 54v606q0 91 -58 153t-147 62 q-90 0 -147.5 -61t-57.5 -154v-606q0 -34 -21 -54t-56 -20t-56.5 20t-21.5 54zM248 1268q0 68 46 117t112 49q15 0 27.5 -2.5t27 -10t20 -10.5t23 -15.5t18.5 -13.5q8 -5 23 -17t23.5 -17.5t21 -11t24.5 -5.5q22 0 36 18.5t16 39.5q2 19 17.5 32t39.5 13q23 0 39 -15.5 t16 -38.5q0 -68 -45.5 -117t-111.5 -49q-22 0 -45.5 9.5t-35.5 18t-36 26.5q-4 3 -18 14t-19.5 14.5t-16 10t-19.5 8.5t-19 2q-22 0 -35.5 -15.5t-16.5 -37.5q-3 -20 -19 -33.5t-38 -13.5q-23 0 -39 13.5t-16 37.5z" />
<glyph unicode="&#xf2;" horiz-adv-x="987" d="M131 340v334q0 156 108 256t255 100q145 0 253.5 -101.5t108.5 -254.5v-334q0 -153 -108.5 -254.5t-253.5 -101.5q-147 0 -255 99.5t-108 256.5zM287 340q0 -93 60 -155t147 -62q86 0 146 63t60 154v334q0 92 -59.5 154.5t-146.5 62.5t-147 -62.5t-60 -154.5v-334z M289 1421q0 29 23.5 51.5t52.5 22.5q38 0 63 -31l170 -204q12 -15 12 -33q0 -23 -17 -38t-36 -15q-21 0 -35 14l-194 164q-39 34 -39 69z" />
<glyph unicode="&#xf3;" horiz-adv-x="987" d="M131 340v334q0 156 108 256t255 100q145 0 253.5 -101.5t108.5 -254.5v-334q0 -153 -108.5 -254.5t-253.5 -101.5q-147 0 -255 99.5t-108 256.5zM287 340q0 -93 60 -155t147 -62q86 0 146 63t60 154v334q0 92 -59.5 154.5t-146.5 62.5t-147 -62.5t-60 -154.5v-334z M367 1227q0 18 12 33l170 204q25 31 63 31q29 0 52.5 -22.5t23.5 -51.5q0 -35 -39 -69l-194 -162q-21 -16 -35 -16q-19 0 -36 15t-17 38z" />
<glyph unicode="&#xf4;" horiz-adv-x="987" d="M131 340v334q0 156 108 256t255 100q145 0 253.5 -101.5t108.5 -254.5v-334q0 -153 -108.5 -254.5t-253.5 -101.5q-147 0 -255 99.5t-108 256.5zM250 1229q0 12 8 24l162 205q31 39 74 39q42 0 73 -39l162 -205q8 -12 8 -24q0 -21 -16 -36t-35 -15q-23 0 -41 18l-151 145 l-152 -145q-18 -18 -41 -18q-19 0 -35 15t-16 36zM287 340q0 -93 60 -155t147 -62q86 0 146 63t60 154v334q0 92 -59.5 154.5t-146.5 62.5t-147 -62.5t-60 -154.5v-334z" />
<glyph unicode="&#xf5;" horiz-adv-x="987" d="M131 340v334q0 156 108 256t255 100q145 0 253.5 -101.5t108.5 -254.5v-334q0 -153 -108.5 -254.5t-253.5 -101.5q-147 0 -255 99.5t-108 256.5zM223 1268q0 68 46 117t112 49q12 0 24.5 -2.5t20.5 -5.5t20.5 -10t17.5 -10t18 -12.5t16 -11.5q8 -5 23 -17t23.5 -17.5 t21 -11t24.5 -5.5q21 0 35 18.5t16 39.5q2 19 17.5 32t39.5 13q23 0 39.5 -15.5t16.5 -38.5q0 -68 -46 -117t-112 -49q-22 0 -45.5 9.5t-35.5 18t-36 26.5q-4 3 -18 14t-19.5 14.5t-16 10t-19.5 8.5t-19 2q-22 0 -35 -15.5t-16 -37.5q-3 -20 -19 -33.5t-38 -13.5 q-23 0 -39.5 13.5t-16.5 37.5zM287 340q0 -93 60 -155t147 -62q86 0 146 63t60 154v334q0 92 -59.5 154.5t-146.5 62.5t-147 -62.5t-60 -154.5v-334z" />
<glyph unicode="&#xf6;" horiz-adv-x="987" d="M131 340v334q0 156 108 256t255 100q145 0 253.5 -101.5t108.5 -254.5v-334q0 -153 -108.5 -254.5t-253.5 -101.5q-147 0 -255 99.5t-108 256.5zM242 1341q0 40 26.5 67.5t67.5 27.5q40 0 67 -27.5t27 -67.5q0 -41 -27 -67.5t-67 -26.5q-41 0 -67.5 26.5t-26.5 67.5z M287 340q0 -93 60 -155t147 -62q86 0 146 63t60 154v334q0 92 -59.5 154.5t-146.5 62.5t-147 -62.5t-60 -154.5v-334zM545 1341q0 40 27 67.5t67 27.5q41 0 67.5 -27.5t26.5 -67.5q0 -41 -26.5 -67.5t-67.5 -26.5q-40 0 -67 26.5t-27 67.5z" />
<glyph unicode="&#xf7;" d="M119 518q0 31 19.5 51.5t47.5 20.5h678q28 0 48 -21t20 -51t-20 -51t-48 -21h-678q-28 0 -47.5 20.5t-19.5 51.5zM430 180q0 43 32 73t73 30q42 0 73 -30t31 -73q0 -44 -30.5 -73t-73.5 -29q-42 0 -73.5 29.5t-31.5 72.5zM430 879q0 43 32 72.5t73 29.5q42 0 73 -29.5 t31 -72.5q0 -44 -30.5 -73.5t-73.5 -29.5q-42 0 -73.5 30t-31.5 73z" />
<glyph unicode="&#xf8;" horiz-adv-x="987" d="M131 340v334q0 156 108 256t255 100q81 0 153 -35l23 52q5 12 17.5 21t27.5 9q20 0 35.5 -14.5t15.5 -34.5q0 -12 -4 -20l-29 -68q123 -105 123 -266v-334q0 -153 -108.5 -254.5t-253.5 -101.5q-88 0 -160 34l-23 -53q-11 -26 -43 -26q-20 0 -35.5 13.5t-15.5 35.5 q0 12 4 20l29 66q-119 101 -119 266zM287 340q0 -64 28 -115l277 639q-52 27 -98 27q-87 0 -147 -62.5t-60 -154.5v-334zM391 150q49 -27 103 -27q86 0 146 63t60 154v334q0 64 -32 117z" />
<glyph unicode="&#xf9;" horiz-adv-x="1040" d="M160 340v604q0 34 21.5 54t56.5 20t56 -20t21 -54v-604q0 -91 57.5 -154t147.5 -63q91 0 148 62.5t57 154.5v604q0 34 21.5 54t56.5 20t56.5 -20t21.5 -54v-889q0 -27 -17.5 -44t-44.5 -17q-13 0 -27 8t-18.5 13t-19.5 22q-27 31 -45 31q-17 0 -58 -25 q-31 -18 -49.5 -27.5t-56.5 -20.5t-76 -11q-128 0 -218.5 101.5t-90.5 254.5zM315 1421q0 29 23.5 51.5t52.5 22.5q39 0 64 -31l170 -204q12 -15 12 -33q0 -23 -17 -38t-36 -15q-21 0 -35 14l-195 164q-39 34 -39 69z" />
<glyph unicode="&#xfa;" horiz-adv-x="1040" d="M160 340v604q0 34 21.5 54t56.5 20t56 -20t21 -54v-604q0 -91 57.5 -154t147.5 -63q91 0 148 62.5t57 154.5v604q0 34 21.5 54t56.5 20t56.5 -20t21.5 -54v-889q0 -27 -17.5 -44t-44.5 -17q-13 0 -27 8t-18.5 13t-19.5 22q-27 31 -45 31q-17 0 -58 -25 q-31 -18 -49.5 -27.5t-56.5 -20.5t-76 -11q-128 0 -218.5 101.5t-90.5 254.5zM393 1227q0 17 13 33l169 204q25 31 64 31q29 0 52.5 -22.5t23.5 -51.5q0 -35 -39 -69l-195 -162q-21 -16 -35 -16q-19 0 -36 15t-17 38z" />
<glyph unicode="&#xfb;" horiz-adv-x="1040" d="M160 340v604q0 34 21.5 54t56.5 20t56 -20t21 -54v-604q0 -91 57.5 -154t147.5 -63q91 0 148 62.5t57 154.5v604q0 34 21.5 54t56.5 20t56.5 -20t21.5 -54v-889q0 -27 -17.5 -44t-44.5 -17q-13 0 -27 8t-18.5 13t-19.5 22q-27 31 -45 31q-17 0 -58 -25 q-31 -18 -49.5 -27.5t-56.5 -20.5t-76 -11q-128 0 -218.5 101.5t-90.5 254.5zM276 1229q0 11 9 24l161 205q31 39 74 39t74 -39l162 -205q8 -12 8 -24q0 -21 -16 -36t-35 -15q-23 0 -41 18l-152 145l-151 -145q-18 -18 -41 -18q-20 0 -36 15t-16 36z" />
<glyph unicode="&#xfc;" horiz-adv-x="1040" d="M160 340v604q0 34 21.5 54t56.5 20t56 -20t21 -54v-604q0 -91 57.5 -154t147.5 -63q91 0 148 62.5t57 154.5v604q0 34 21.5 54t56.5 20t56.5 -20t21.5 -54v-889q0 -27 -17.5 -44t-44.5 -17q-13 0 -27 8t-18.5 13t-19.5 22q-27 31 -45 31q-17 0 -58 -25 q-31 -18 -49.5 -27.5t-56.5 -20.5t-76 -11q-128 0 -218.5 101.5t-90.5 254.5zM268 1341q0 40 26.5 67.5t67.5 27.5q40 0 67.5 -27.5t27.5 -67.5q0 -41 -27.5 -67.5t-67.5 -26.5q-41 0 -67.5 26.5t-26.5 67.5zM571 1341q0 40 27.5 67.5t67.5 27.5q41 0 67.5 -27.5t26.5 -67.5 q0 -41 -26.5 -67.5t-67.5 -26.5q-40 0 -67.5 26.5t-27.5 67.5z" />
<glyph unicode="&#xfd;" horiz-adv-x="933" d="M74 948q0 27 23.5 48.5t56.5 21.5q57 0 73 -53l215 -666l25 -82l25 82l215 666q16 53 73 53q33 0 56.5 -21.5t23.5 -48.5q0 -15 -6 -33l-375 -1058q-38 -109 -108.5 -177.5t-151.5 -68.5q-35 0 -55.5 19.5t-20.5 52.5q0 29 16.5 48.5t43.5 24.5q38 7 72.5 43.5t54.5 89.5 l57 152l-307 874q-6 18 -6 33zM342 1227q0 18 12 33l170 204q25 31 64 31q29 0 52.5 -22.5t23.5 -51.5q0 -35 -39 -69l-195 -162q-21 -16 -35 -16q-19 0 -36 15t-17 38z" />
<glyph unicode="&#xfe;" horiz-adv-x="1015" d="M160 -326v1715q0 34 21.5 53.5t56.5 19.5t56 -19.5t21 -53.5v-422q0 -9 5 -16t12 -7q9 0 33 19q85 67 186 67q143 0 238.5 -99t95.5 -257v-334q0 -159 -99.5 -257.5t-244.5 -98.5q-98 0 -181 67q-20 15 -28 15q-17 0 -17 -23v-369q0 -34 -21 -53.5t-56 -19.5t-56.5 19.5 t-21.5 53.5zM315 340q0 -94 62 -155.5t145 -61.5q82 0 144.5 62t62.5 155v334q0 90 -60.5 153.5t-146.5 63.5t-146.5 -63t-60.5 -154v-334z" />
<glyph unicode="&#xff;" horiz-adv-x="933" d="M74 948q0 27 23.5 48.5t56.5 21.5q57 0 73 -53l215 -666l25 -82l25 82l215 666q16 53 73 53q33 0 56.5 -21.5t23.5 -48.5q0 -15 -6 -33l-375 -1058q-38 -109 -108.5 -177.5t-151.5 -68.5q-35 0 -55.5 19.5t-20.5 52.5q0 29 16.5 48.5t43.5 24.5q38 7 72.5 43.5t54.5 89.5 l57 152l-307 874q-6 18 -6 33zM217 1341q0 40 26.5 67.5t67.5 27.5q40 0 67.5 -27.5t27.5 -67.5q0 -41 -27.5 -67.5t-67.5 -26.5q-41 0 -67.5 26.5t-26.5 67.5zM520 1341q0 40 27 67.5t67 27.5q41 0 68 -27.5t27 -67.5q0 -41 -27 -67.5t-68 -26.5q-40 0 -67 26.5t-27 67.5z " />
<glyph unicode="&#x152;" horiz-adv-x="1570" d="M131 432v529q0 189 122.5 310.5t319.5 121.5h842q30 0 50 -20t20 -52t-20 -52t-50 -20h-479v-475h412q30 0 49.5 -20t19.5 -52t-19.5 -51.5t-49.5 -19.5h-412v-488h479q30 0 50 -19t20 -52t-20 -52.5t-50 -19.5h-842q-197 0 -319.5 121.5t-122.5 310.5zM291 432 q0 -126 78.5 -207.5t203.5 -81.5h203v1106h-203q-124 0 -203 -81.5t-79 -206.5v-529z" />
<glyph unicode="&#x153;" horiz-adv-x="1499" d="M119 340v334q0 156 108 256t254 100q87 0 162.5 -40t122.5 -105q47 66 121.5 105.5t159.5 39.5q142 0 250 -100t108 -250v-135q0 -34 -23 -57t-59 -23h-479v-125q0 -94 61 -155.5t150 -61.5q84 0 170 55q38 23 61 23q28 0 48 -21.5t20 -50.5q0 -43 -51 -74 q-113 -71 -248 -71q-92 0 -167.5 39t-121.5 104q-48 -66 -123.5 -104.5t-161.5 -38.5q-147 0 -254.5 99.5t-107.5 256.5zM274 340q0 -93 60 -155t147 -62q84 0 145.5 64t61.5 153v334q0 91 -61.5 154t-145.5 63q-87 0 -147 -62.5t-60 -154.5v-334zM844 592h405v88 q0 87 -59 149t-143 62q-85 0 -144 -60t-59 -155v-84z" />
<glyph unicode="&#x178;" d="M45 1323q0 34 24.5 55t59.5 21q21 0 39.5 -12.5t26.5 -28.5l329 -596l332 598q23 39 64 39q35 0 59.5 -21t24.5 -55q0 -21 -13 -43l-387 -659v-551q0 -33 -22 -53.5t-58 -20.5t-58 20.5t-22 53.5v551l-387 659q-12 20 -12 43zM272 1659q0 40 27 67t68 27q40 0 67 -27 t27 -67q0 -41 -27 -67.5t-67 -26.5q-41 0 -68 26.5t-27 67.5zM575 1659q0 40 27.5 67t67.5 27q41 0 67.5 -27t26.5 -67q0 -41 -26.5 -67.5t-67.5 -26.5q-40 0 -67.5 26.5t-27.5 67.5z" />
<glyph unicode="&#x2c6;" horiz-adv-x="569" d="M41 1229q0 12 8 24l162 205q31 39 74 39q42 0 73 -39l162 -205q8 -12 8 -24q0 -21 -16 -36t-35 -15q-23 0 -41 18l-151 145l-152 -145q-18 -18 -41 -18q-19 0 -35 15t-16 36z" />
<glyph unicode="&#x2dc;" horiz-adv-x="622" d="M47 1268q0 68 46 117t112 49q12 0 24.5 -2.5t20.5 -5.5t20.5 -10t17.5 -10t18 -12.5t16 -11.5q8 -5 23 -17t23.5 -17.5t21 -11t24.5 -5.5q21 0 35 18.5t16 39.5q2 19 17.5 32t39.5 13q23 0 39.5 -15.5t16.5 -38.5q0 -68 -46 -117t-112 -49q-22 0 -45.5 9.5t-35.5 18 t-36 26.5q-4 3 -18 14t-19.5 14.5t-16 10t-19.5 8.5t-19 2q-22 0 -35 -15.5t-16 -37.5q-3 -19 -19 -33t-39 -14t-39 13.5t-16 37.5z" />
<glyph unicode="&#x2000;" horiz-adv-x="917" />
<glyph unicode="&#x2001;" horiz-adv-x="1835" />
<glyph unicode="&#x2002;" horiz-adv-x="917" />
<glyph unicode="&#x2003;" horiz-adv-x="1835" />
<glyph unicode="&#x2004;" horiz-adv-x="611" />
<glyph unicode="&#x2005;" horiz-adv-x="458" />
<glyph unicode="&#x2006;" horiz-adv-x="305" />
<glyph unicode="&#x2007;" horiz-adv-x="305" />
<glyph unicode="&#x2008;" horiz-adv-x="229" />
<glyph unicode="&#x2009;" horiz-adv-x="367" />
<glyph unicode="&#x200a;" horiz-adv-x="101" />
<glyph unicode="&#x2010;" horiz-adv-x="638" d="M70 516q0 31 18.5 50.5t46.5 19.5h369q28 0 46.5 -20.5t18.5 -49.5t-18.5 -49.5t-46.5 -20.5h-369q-28 0 -46.5 19.5t-18.5 50.5z" />
<glyph unicode="&#x2011;" horiz-adv-x="638" d="M70 516q0 31 18.5 50.5t46.5 19.5h369q28 0 46.5 -20.5t18.5 -49.5t-18.5 -49.5t-46.5 -20.5h-369q-28 0 -46.5 19.5t-18.5 50.5z" />
<glyph unicode="&#x2012;" horiz-adv-x="638" d="M70 516q0 31 18.5 50.5t46.5 19.5h369q28 0 46.5 -20.5t18.5 -49.5t-18.5 -49.5t-46.5 -20.5h-369q-28 0 -46.5 19.5t-18.5 50.5z" />
<glyph unicode="&#x2013;" horiz-adv-x="1024" d="M66 518q0 29 18.5 48.5t44.5 19.5h766q26 0 44.5 -20t18.5 -48t-18.5 -47.5t-44.5 -19.5h-766q-27 0 -45 19t-18 48z" />
<glyph unicode="&#x2014;" horiz-adv-x="2048" d="M66 518q0 29 18.5 48.5t44.5 19.5h1790q26 0 44.5 -20t18.5 -48t-18.5 -47.5t-44.5 -19.5h-1790q-27 0 -45 19t-18 48z" />
<glyph unicode="&#x2018;" horiz-adv-x="370" d="M82 1174q0 140 125 268q22 22 49 22q19 0 32 -12t13 -31q0 -14 -8 -30q-51 -76 -51 -140q0 -17 14 -45.5t14 -54.5q0 -38 -26.5 -63t-63.5 -25q-42 0 -70 30.5t-28 80.5z" />
<glyph unicode="&#x2019;" horiz-adv-x="370" d="M70 1108q0 15 8 31q51 76 51 139q0 17 -14.5 45.5t-14.5 54.5q0 38 26.5 63t63.5 25q42 0 70.5 -30t28.5 -80q0 -141 -125 -269q-22 -22 -49 -22q-19 0 -32 12t-13 31z" />
<glyph unicode="&#x201a;" horiz-adv-x="370" d="M70 -174q0 15 8 31q51 76 51 139q0 17 -14.5 45.5t-14.5 54.5q0 38 26.5 63t63.5 25q42 0 70.5 -30t28.5 -80q0 -141 -125 -269q-22 -22 -49 -22q-19 0 -32 12t-13 31z" />
<glyph unicode="&#x201c;" horiz-adv-x="647" d="M78 1176q0 140 125 268q22 22 49 22q19 0 32 -12t13 -31q0 -14 -8 -30q-51 -76 -51 -140q0 -17 14 -45.5t14 -54.5q0 -38 -26.5 -63t-63.5 -25q-42 0 -70 30.5t-28 80.5zM367 1176q0 140 125 268q22 22 49 22q19 0 32 -12t13 -31q0 -14 -8 -30q-52 -77 -52 -140 q0 -17 14.5 -45.5t14.5 -54.5q0 -38 -26.5 -63t-63.5 -25q-42 0 -70 30.5t-28 80.5z" />
<glyph unicode="&#x201d;" horiz-adv-x="647" d="M61 1108q0 13 9 31q51 76 51 139q0 17 -14.5 45.5t-14.5 54.5q0 38 26.5 63t63.5 25q42 0 70.5 -30t28.5 -80q0 -141 -125 -269q-22 -22 -50 -22q-19 0 -32 12t-13 31zM350 1108q0 15 8 31q52 77 52 139q0 17 -14.5 45.5t-14.5 54.5q0 38 26.5 63t63.5 25q42 0 70 -30 t28 -80q0 -141 -125 -269q-22 -22 -49 -22q-19 0 -32 12t-13 31z" />
<glyph unicode="&#x201e;" horiz-adv-x="647" d="M61 -174q0 13 9 31q51 76 51 139q0 17 -14.5 45.5t-14.5 54.5q0 38 26.5 63t63.5 25q42 0 70.5 -30t28.5 -80q0 -141 -125 -269q-22 -22 -50 -22q-19 0 -32 12t-13 31zM350 -174q0 15 8 31q52 77 52 139q0 17 -14.5 45.5t-14.5 54.5q0 38 26.5 63t63.5 25q42 0 70 -30 t28 -80q0 -141 -125 -269q-22 -22 -49 -22q-19 0 -32 12t-13 31z" />
<glyph unicode="&#x2022;" horiz-adv-x="669" d="M74 516q0 123 75 197.5t191 74.5t190 -74.5t74 -197.5t-74 -197.5t-190 -74.5t-191 74.5t-75 197.5z" />
<glyph unicode="&#x2026;" horiz-adv-x="1024" d="M72 94q0 43 31.5 73t72.5 30q42 0 73.5 -30t31.5 -73q0 -44 -31 -73t-74 -29q-42 0 -73 29.5t-31 72.5zM408 94q0 43 31.5 73t72.5 30q42 0 73 -30t31 -73q0 -44 -30.5 -73t-73.5 -29q-42 0 -73 29.5t-31 72.5zM743 94q0 43 32 73t73 30q42 0 73 -30t31 -73 q0 -44 -30.5 -73t-73.5 -29q-42 0 -73.5 29.5t-31.5 72.5z" />
<glyph unicode="&#x202f;" horiz-adv-x="367" />
<glyph unicode="&#x2039;" horiz-adv-x="571" d="M61 516q0 37 33 74l301 301q20 20 43 20q20 0 35.5 -16t15.5 -35q0 -18 -8 -29l-258 -315l258 -315q8 -11 8 -29t-15.5 -34.5t-35.5 -16.5q-23 0 -43 20l-301 301q-33 37 -33 74z" />
<glyph unicode="&#x203a;" horiz-adv-x="571" d="M82 172q0 18 8 29l258 315l-258 315q-8 11 -8 29q0 19 15.5 35t35.5 16q23 0 43 -20l301 -301q33 -37 33 -74t-33 -74l-301 -301q-20 -20 -43 -20q-20 0 -35.5 16.5t-15.5 34.5z" />
<glyph unicode="&#x205f;" horiz-adv-x="458" />
<glyph unicode="&#x20ac;" d="M74 563q0 26 17 44t40 18h125v139h-100q-22 0 -40 18t-18 43q0 26 18 44t40 18h100v106q0 183 120 296.5t298 113.5q127 0 248 -68q49 -27 49 -78q0 -27 -18.5 -46t-45.5 -21q-21 0 -65 22q-94 48 -168 48q-112 0 -185 -75.5t-73 -191.5v-106h354q22 0 38.5 -18t16.5 -44 t-16.5 -43.5t-38.5 -17.5h-354v-139h329q22 0 39 -18t17 -44t-15.5 -43.5t-40.5 -17.5h-329v-103q0 -116 73 -191t185 -75q76 0 168 47q46 23 65 23q27 -2 45.5 -21.5t18.5 -46.5q0 -51 -49 -78q-120 -67 -248 -67q-178 0 -298 113t-120 296v103h-125q-24 0 -40.5 17.5 t-16.5 43.5z" />
<glyph unicode="&#x2122;" horiz-adv-x="950" d="M12 1352q0 18 10 29.5t27 11.5h322q17 0 27 -11.5t10 -29.5q0 -19 -10 -30t-27 -11h-117v-496q0 -17 -13 -30t-32 -13q-22 0 -33.5 12t-11.5 31v496h-115q-17 0 -27 11t-10 30zM465 815v539q0 18 13 29.5t32 11.5q30 0 45 -31l119 -213l123 213q15 31 49 31q19 0 31 -11 t12 -30v-539q0 -18 -12 -30.5t-33 -12.5t-33 12.5t-12 30.5v385l-74 -123q-18 -33 -51 -33q-31 0 -49 33l-70 123v-385q0 -17 -13 -30t-32 -13q-21 0 -33 12.5t-12 30.5z" />
<glyph unicode="&#x25fc;" horiz-adv-x="1013" d="M0 0v1014h1014v-1014h-1014z" />
</font>
</defs>
</svg>
