<svg xmlns="http://www.w3.org/2000/svg" width="80" height="80" viewBox="0 0 80 80"><path fill="#FF7A34" d="M-195.822 73.34c-.254-.192-.31-.634-.31-.97 0 .336.056.8.31.99.26.195.733.208 1.058.155l9.372-10.353-9.373 10.353c-.326.053-.798.02-1.057-.176zM-202.636 17.58l-.01.93zM-138.525 11h-60.394c-2.292 0-4.08 1.458-4.08 3.75v1.9l-4.462-.04c-2.5 0-3.538 1.215-3.538 3.716v40.857c0 .925.028 2.12.776 2.895.755.782 1.915.922 2.947.922H-198v7.367c0 1.385.582 2.104 1.066 2.465.56.418 1.223.53 1.774.53.592 0 1.063-.13 1.154-.158l.25-.042 9.19-10.162h28.362l4.182 4.605.276.05c.044.013.44.1.957.1.897 0 1.558-.283 2.08-.81.536-.536.71-1.292.71-2.23V59h9.525c2.403 0 3.475-1.1 3.475-3.438V14.866c0-2.543-1.084-3.866-3.525-3.866zm-46.868 52l-9.372 10.434c-.325.053-.734.08-.993-.114-.254-.19-.243-.613-.243-.95V63h-11.278c-.86 0-1.333-.07-1.54-.283-.195-.203-.184-.672-.184-1.5v-40.89c0-1.46.332-1.86 1.783-1.86l4.426.043-.206-.93v38.06c0 2.298 1.754 3.36 4.094 3.36h37.676l3.35 4h-27.513zM-137 54.588c0 1.336-.17 2.412-1.513 2.412H-150v9.72c0 .43.076.76-.096.932-.287.29-.75.503-1.04.472L-160.402 57h-38.492c-1.32 0-2.106-1.074-2.106-2.36V14.75c0-1.268.813-1.75 2.08-1.75h60.395c1.234 0 1.525.187 1.525 1.866v39.722zM-202.646 18.51l-4.642-.042 4.642.042zM-179.42 32.33c-2.04 0-3.7 1.66-3.7 3.698 0 2.04 1.66 3.7 3.7 3.7s3.7-1.66 3.7-3.7-1.66-3.698-3.7-3.698zm0 5.54c-1.017 0-1.842-.825-1.842-1.84 0-1.017.825-1.84 1.842-1.84 1.018 0 1.842.824 1.842 1.84 0 1.015-.824 1.84-1.842 1.84zM-169.188 32.33c-2.04 0-3.7 1.66-3.7 3.698 0 2.04 1.66 3.7 3.7 3.7s3.7-1.66 3.7-3.7c.002-2.04-1.66-3.698-3.7-3.698zm0 5.54c-1.018 0-1.843-.825-1.843-1.84 0-1.017.824-1.84 1.842-1.84s1.842.824 1.842 1.84c0 1.015-.824 1.84-1.842 1.84zM-158.94 32.33c-2.04 0-3.7 1.66-3.7 3.698 0 2.04 1.66 3.7 3.7 3.7s3.7-1.66 3.7-3.7-1.66-3.698-3.7-3.698zm0 5.54c-1.018 0-1.843-.825-1.843-1.84 0-1.017.825-1.84 1.842-1.84 1.017 0 1.84.824 1.84 1.84 0 1.015-.824 1.84-1.84 1.84zM-101 12h15v26h2V10h-19v36h2zM-84 61h-2v13h-15V61h-2v15h19zM-47 76h20V39h-20v37zm2-35h16v33h-16V41zM33.23 43.484l-3.13-3.117L8.166 62.21c-1.59 1.582-2.5 3.745-2.5 5.936 0 2.05.788 3.962 2.22 5.39 1.687 1.678 3.896 2.642 6.062 2.642 1.913 0 3.647-.72 5.017-2.085l22.5-22.406-3-2.987 26.77-28.062c1.42.413 2.643.083 3.283-.924l4.998-8.206L70.83 8.82l-8.28 5.05c-.953.72-1.278 1.927-.905 3.244L33.23 43.484zm5.68 8.202L17.693 72.814c-1.024 1.02-2.32 1.56-3.744 1.56h-.002c-1.693 0-3.44-.772-4.79-2.118-1.09-1.085-1.69-2.545-1.69-4.11 0-1.714.72-3.413 1.97-4.66L30.1 42.91l8.81 8.776zm24.867-34.092l-.26-.587c-.158-.362-.467-1.253.047-1.646l6.994-4.262.68.68-4.253 6.98c-.24.382-1 .276-1.646.002l-.575-.242-27.577 28.906-2.68-2.666 29.27-27.164zM21.303 29.23l-4.16-4.162 3.398-3.403 11.523 14.163 7.41-7.418-13.252-10.444c-1.075-1.116-.33-2.27-.106-2.562l3.836-3.837-.133-9.736-8.335 8.384-4.095-1.3-4.1 4.105 1.296 4.133-2.67 2.685-3.603-3.603-5.783 5.783L15.52 35.012l5.783-5.783zm-3.416-18.266l2.164.688-4.03 4.057-.687-2.19 2.554-2.556zm-2.695 8.133l.034.108 8.284-8.346-.098-.032 4.66-4.687.063 4.69-3.396 3.4c-.75.912-1.668 3.14.236 5.044l11.787 9.296-4.565 4.57-11.52-14.164-4.813 4.816-2.678-2.678 2.005-2.017zm-6.882-.313L18.753 29.23 15.52 32.46 5.076 22.018l3.235-3.234zM53.42 42.25l-8.417 8.418 19.843 22.9c1.52 1.516 3.6 2.385 5.704 2.386 1.97 0 3.81-.753 5.183-2.12 1.616-1.61 2.543-3.724 2.54-5.795 0-1.83-.693-3.49-2.034-4.823L53.42 42.25zM74.46 72.56c-1.032 1.027-2.42 1.594-3.91 1.594-1.63 0-3.246-.678-4.387-1.812l-18.7-21.584 6.01-6.007 21.52 19.77c.966.964 1.478 2.18 1.478 3.52.002 1.595-.733 3.24-2.01 4.518zM-88.72 48.305c-1.243-1.156-2.902-1.87-4.73-1.87-3.838 0-6.96 3.13-6.96 6.974 0 3.846 3.122 6.974 6.96 6.974 3.84 0 6.964-3.128 6.964-6.975 0-1.344-.388-2.597-1.048-3.663l17.304-11.722c1.27 1.716 3.3 2.835 5.59 2.835 3.84 0 6.963-3.13 6.963-6.975 0-.414-.042-.817-.112-1.21l14.363-3.352c.843 2.902 3.517 5.03 6.682 5.03 3.84 0 6.963-3.127 6.963-6.973s-3.124-6.974-6.963-6.974-6.962 3.128-6.962 6.974c0 .033.004.065.005.098l-14.655 3.42c-1.12-2.353-3.51-3.987-6.28-3.987-3.84 0-6.964 3.13-6.964 6.975 0 .883.17 1.726.47 2.504l-17.59 11.915zm-4.728 10.22c-2.814 0-5.104-2.296-5.104-5.117 0-2.82 2.29-5.114 5.104-5.114 2.815 0 5.104 2.294 5.104 5.114s-2.29 5.116-5.104 5.116zm56.703-36.26c2.814 0 5.104 2.294 5.104 5.115 0 2.82-2.29 5.115-5.105 5.115-2.813 0-5.104-2.295-5.104-5.115 0-2.82 2.29-5.116 5.105-5.116zM-64.64 28.77c2.815 0 5.105 2.295 5.105 5.115 0 2.82-2.29 5.116-5.104 5.116s-5.103-2.294-5.103-5.115c0-2.82 2.29-5.115 5.104-5.115zM-75 76h20V45h-20v31zm2-29h16v27h-16V47z"/></svg>