<svg width="1320" height="524" viewBox="0 0 1320 524" xmlns="http://www.w3.org/2000/svg"><title>Image Computer</title><desc>Created with Sketch.</desc><g fill="none"><g><g><g><path d="M1040 24.993C1040 11.19 1028.816 0 1014.997 0H305.003C291.193 0 280 11.19 280 24.993V504h760V24.993" fill="#0B0B0A"/><path fill="#2D3542" d="M301 30h716v450H301z"/><path d="M189 504s0 20 10.898 20H1119c10 0 10-20 10-20H189z" fill="#DCDEE0"/><path d="M594 504l2.117 5.822c1.04 2.86 4.35 5.178 7.38 5.178h116.005c3.037 0 6.337-2.306 7.38-5.178L729 504H594z" fill="#B4B9BC"/></g><g><g transform="translate(330 45)"><rect fill="#fff" y="32" width="660" height="403" rx="4"/><path d="M7.6 8.992c0 .35.28.634.64.634h6.55c.353 0 .64-.282.64-.634 0-.35-.28-.634-.64-.634H8.24c-.353 0-.64.28-.64.634zm0-3.343c0 .35.28.632.64.632h6.55c.353 0 .64-.28.64-.633 0-.35-.28-.635-.64-.635H8.24c-.353 0-.64.28-.64.634zm9.87-3.156l1.01 10.056c.045.454-.265.822-.7.822 0 0-3.133-.004-3.133 0 .12 1.142 0 4.144 0 4.144l-4.124-4.143h-5.28c-.427 0-.737-.376-.692-.823L5.56 2.494c.046-.454.434-.822.872-.822H16.6c.434 0 .825.376.87.822zM17.39 0c.863 0 1.65.738 1.758 1.66l1.864 15.92c.16 1.37-.762 2.48-2.05 2.48H4.07c-1.294 0-2.212-1.108-2.052-2.48L3.883 1.66C3.99.742 4.773 0 5.64 0h11.75z" fill="#fff"/><path d="M132.5 32.5v402.06" stroke="#D1D7E0" fill="#636B76"/><path d="M133.5 73.5h526.004" id="Line" stroke="#D1D7E0" stroke-linecap="square"/><path d="M133.5 153.5h526.004" stroke="#D1D7E0" stroke-linecap="square"/><path d="M133.5 233.5h526.004" stroke="#D1D7E0" stroke-linecap="square"/><path d="M133.5 313.5h526.004" stroke="#D1D7E0" stroke-linecap="square"/><g id="Group" transform="translate(26 46)"><g transform="translate(0 13)"><circle stroke="#5CB0E7" cx="5" cy="5" r="5"/><circle stroke="#D1D7E0" cx="5" cy="25" r="5"/><circle stroke="#D1D7E0" cx="5" cy="45" r="5"/><circle stroke="#D1D7E0" cx="5" cy="85" r="5"/><circle stroke="#D1D7E0" cx="5" cy="105" r="5"/><circle stroke="#D1D7E0" cx="5" cy="145" r="5"/><circle id="Oval-9" stroke="#D1D7E0" cx="5" cy="165" r="5"/><path opacity=".499" fill="#5CB0E7" d="M19 2h38v6H19z"/><path opacity=".499" fill="#D1D7E0" d="M19 22h58v6H19z"/><path opacity=".499" fill="#D1D7E0" d="M19 42h28v6H19z"/><path opacity=".499" fill="#D1D7E0" d="M19 82h38v6H19z"/><path opacity=".499" fill="#D1D7E0" d="M19 102h18v6H19z"/><path opacity=".499" fill="#D1D7E0" d="M19 142h28v6H19z"/><path opacity=".499" fill="#D1D7E0" d="M19 162h18v6H19z"/></g><rect stroke="#D1D7E0" x="120" width="11" height="11" rx="2"/><rect stroke="#D1D7E0" x="120" y="40" width="11" height="11" rx="2"/><rect stroke="#D1D7E0" x="120" y="120" width="11" height="11" rx="2"/><rect stroke="#D1D7E0" x="120" y="200" width="11" height="11" rx="2"/><rect stroke="#D1D7E0" x="120" y="280" width="11" height="11" rx="2"/></g><g id="Group"><g transform="translate(171 84)"><path opacity=".499" fill="#D1D7E0" d="M0 25h363v8H0z"/><path id="Rectangle-32" opacity=".233" fill="#45759D" d="M23 4h20v8H23z"/><path opacity=".233" fill="#45759D" d="M48 4h40v8H48z"/><path id="Rectangle-33" opacity=".499" fill="#D1D7E0" d="M470 3h8v7h-8z"/><path opacity=".499" fill="#D1D7E0" d="M0 39h213v8H0z"/><path opacity=".499" fill="#D1D7E0" d="M0 106h363v8H0z"/><path opacity=".499" fill="#D1D7E0" d="M0 120h163v8H0z"/><path opacity=".499" fill="#D1D7E0" d="M0 183h363v8H0z"/><path opacity=".499" fill="#D1D7E0" d="M0 197h233v8H0z"/><path opacity=".499" fill="#D1D7E0" d="M0 263h363v8H0z"/><path opacity=".499" fill="#D1D7E0" d="M0 277h313v8H0z"/><path d="M13.68 14.49C15.69 13.035 17 10.67 17 8c0-4.418-3.582-8-8-8S1 3.582 1 8c0 2.67 1.31 5.036 3.32 6.49 1.313-.98 3.116-2.06 4.68-2.06 1.564 0 3.367 1.08 4.68 2.06zM5.5 8.142V6.43C5.5 4.54 7.07 3 9 3s3.5 1.54 3.5 3.43v1.713c0 1.89-1.57 3.428-3.5 3.428s-3.5-1.537-3.5-3.427z" id="Oval-9" fill="#C3CED7"/><circle fill="#D1D7E0" cx="461" cy="7" r="3"/></g><g transform="translate(171 84) translate(1 79)"><path id="Rectangle-32" opacity=".233" fill="#45759D" d="M23 3h33v8H23z"/><path opacity=".233" fill="#45759D" d="M61 3h23v8H61z"/><path id="Rectangle-33" opacity=".499" fill="#D1D7E0" d="M469 3h8v7h-8z"/><circle id="Oval-9" fill="#C3CED7" cx="8" cy="8" r="8"/><path d="M14.516 16.037C14.366 15.89 10.8 12.43 8 12.43c-2.8 0-6.366 3.46-6.516 3.607-.297.292-.484.885-.484 1.534v1.716c0 .947.392 1.714.875 1.714h12.25c.483 0 .875-.767.875-1.714V17.57c0-.648-.187-1.24-.484-1.533zM4.5 8.143V6.43C4.5 4.54 6.07 3 8 3s3.5 1.54 3.5 3.43v1.713c0 1.89-1.57 3.428-3.5 3.428s-3.5-1.537-3.5-3.427z" fill="#fff"/><path d="M14.516 16.037C14.366 15.89 10.8 12.43 8 12.43c-2.8 0-6.366 3.46-6.516 3.607-.297.292-.484.885-.484 1.534v1.716c0 .947.392 1.714.875 1.714h12.25c.483 0 .875-.767.875-1.714V17.57c0-.648-.187-1.24-.484-1.533zM4.5 8.143V6.43C4.5 4.54 6.07 3 8 3s3.5 1.54 3.5 3.43v1.713c0 1.89-1.57 3.428-3.5 3.428s-3.5-1.537-3.5-3.427z" fill="#fff"/><circle fill="#51C47D" cx="460" cy="7" r="3"/></g><g transform="translate(171 84) translate(1 159)"><path id="Rectangle-32" opacity=".233" fill="#45759D" d="M23 3h53v8H23z"/><path opacity=".233" fill="#45759D" d="M81 3h33v8H81z"/><path id="Rectangle-33" opacity=".499" fill="#D1D7E0" d="M469 3h8v7h-8z"/><circle id="Oval-9" fill="#C3CED7" cx="8" cy="8" r="8"/><circle fill="#D1D7E0" cx="460" cy="7" r="3"/></g><g transform="translate(171 84) translate(1 240)"><path opacity=".233" fill="#45759D" d="M23 3h23v8H23z"/><path opacity=".233" fill="#45759D" d="M51 3h43v8H51z"/><path opacity=".499" fill="#D1D7E0" d="M469 3h8v7h-8z"/><path opacity=".499" fill="#D1D7E0" d="M21 99h46v4H21z"/><path opacity=".499" fill="#D1D7E0" d="M71 99h6v4h-6z"/><circle id="Oval-9" fill="#C3CED7" cx="8" cy="8" r="8"/><circle fill="#F2561A" cx="460" cy="7" r="3"/></g><g transform="translate(171 84) translate(1 320)"><circle fill="#C3CED7" cx="8" cy="8" r="8"/><path d="M14.516 16.037C14.366 15.89 10.8 12.43 8 12.43c-2.8 0-6.366 3.46-6.516 3.607-.297.292-.484.885-.484 1.534v1.716c0 .947.392 1.714.875 1.714h12.25c.483 0 .875-.767.875-1.714V17.57c0-.648-.187-1.24-.484-1.533zM4.5 8.143V6.43C4.5 4.54 6.07 3 8 3s3.5 1.54 3.5 3.43v1.713c0 1.89-1.57 3.428-3.5 3.428s-3.5-1.537-3.5-3.427z" fill="#fff"/></g><path d="M186.516 259.037c-.15-.146-3.717-3.608-6.516-3.608-2.8 0-6.366 3.46-6.516 3.607-.297.292-.484.885-.484 1.534v1.716c0 .947.392 1.714.875 1.714h12.25c.483 0 .875-.767.875-1.714v-1.715c0-.648-.187-1.24-.484-1.533zM-165.5 83.143v-1.714c0-1.89 1.57-3.43 3.5-3.43s3.5 1.54 3.5 3.43v1.713c0 1.89-1.57 3.428-3.5 3.428s-3.5-1.537-3.5-3.427z" fill="#fff"/><path d="M186.516 340.037c-.15-.146-3.717-3.608-6.516-3.608-2.8 0-6.366 3.46-6.516 3.607-.297.292-.484.885-.484 1.534v1.716c0 .947.392 1.714.875 1.714h12.25c.483 0 .875-.767.875-1.714v-1.715c0-.648-.187-1.24-.484-1.533zM-165.5 164.143v-1.714c0-1.89 1.57-3.43 3.5-3.43s3.5 1.54 3.5 3.43v1.713c0 1.89-1.57 3.428-3.5 3.428s-3.5-1.537-3.5-3.427z" fill="#fff"/><path opacity=".499" fill="#D1D7E0" d="M193 404h455v15H193z"/><path d="M180 391.5v9.94" id="Line" stroke="#D1D7E0" stroke-linecap="square"/><path d="M180 423.5v9.94" stroke="#D1D7E0" stroke-linecap="square"/></g><path d="M646.273 234.22l13.883 13.892v-14.215l-13.883.323z" fill="#51C47D"/><g id="Group" transform="translate(530 2)"><path fill="#636B76" d="M28 2h55v10H28z"/><circle stroke="#616772" cx="101" cy="7" r="5"/><circle stroke="#616772" cx="121" cy="7" r="5"/><path d="M12.68 14.49C14.69 13.035 16 10.67 16 8c0-4.418-3.582-8-8-8S0 3.582 0 8c0 2.67 1.31 5.036 3.32 6.49 1.313-.98 3.116-2.06 4.68-2.06 1.564 0 3.367 1.08 4.68 2.06zM4.5 8.142V6.43C4.5 4.54 6.07 3 8 3s3.5 1.54 3.5 3.43v1.713c0 1.89-1.57 3.428-3.5 3.428s-3.5-1.537-3.5-3.427z" fill="#606772"/></g><path d="M170.587 57v-8.566h.598V57h-.598zm7.318 0v-4.13c0-.64-.134-1.107-.404-1.398-.27-.29-.687-.437-1.253-.437-.762 0-1.32.193-1.673.577-.353.385-.53 1.01-.53 1.872V57h-.58v-6.37h.492l.11.874h.037c.414-.664 1.15-.996 2.21-.996 1.444 0 2.166.775 2.166 2.326V57h-.575zm5.326-6.492c.892 0 1.563.28 2.014.84.45.56.677 1.38.677 2.46 0 1.057-.236 1.874-.71 2.448-.476.574-1.143.86-2.002.86-.453 0-.86-.093-1.225-.28-.363-.188-.65-.453-.86-.797h-.054l-.165.96h-.363v-9.117h.58v2.29c0 .345-.008.66-.023.95l-.02.498h.042c.242-.382.534-.663.876-.843.342-.18.753-.27 1.233-.27zm-.01.527c-.75 0-1.287.215-1.612.645-.324.43-.486 1.138-.486 2.127v.1c0 .96.17 1.65.507 2.068.337.418.863.627 1.578.627.695 0 1.22-.244 1.57-.73.352-.486.528-1.18.528-2.077 0-1.84-.696-2.76-2.086-2.76zm9.732 2.772c0 1.04-.252 1.85-.756 2.434-.504.585-1.2.877-2.086.877-.558 0-1.05-.135-1.476-.404-.426-.27-.752-.656-.98-1.16-.225-.504-.34-1.086-.34-1.746 0-1.04.253-1.85.757-2.43.505-.58 1.197-.87 2.076-.87.875 0 1.56.295 2.06.883.497.588.746 1.393.746 2.417zm-5.027 0c0 .875.192 1.557.577 2.047.385.49.93.736 1.632.736.703 0 1.247-.245 1.632-.736.384-.49.577-1.172.577-2.047 0-.88-.195-1.56-.583-2.045-.39-.485-.935-.727-1.638-.727-.703 0-1.245.24-1.626.724-.38.48-.57 1.164-.57 2.047zm8.355-.082l-2.22-3.094h.668l1.898 2.684 1.88-2.683h.64l-2.186 3.095L199.304 57h-.674l-2.004-2.842L194.61 57h-.638l2.308-3.275z" fill-opacity=".735" fill="#636B76"/></g><g><path stroke="#D1D7E0" d="M862 87h117v20H862z"/><path fill="#51C47D" d="M958 87h21v20h-21z"/></g><g transform="translate(965 93)" stroke="#fff"><ellipse cx="3.2" cy="3.273" rx="3.2" ry="3.273"/><path d="M5.2 6.136L7.6 8.59" id="Line"/></g><g><path fill="#5767A6" d="M501 183h6v6h-6z"/><path fill="#00AFF0" d="M501 263h6v6h-6z"/><path fill="#5767A6" d="M501 343h6v6h-6z"/><path fill="#00AFF0" d="M501 423h6v6h-6z"/><path d="M514.5 186.5h48.29" stroke="#D1D7E0" stroke-width="3" stroke-linecap="square" opacity=".507"/><path d="M514.5 266.5h48.29" stroke="#D1D7E0" stroke-width="3" stroke-linecap="square" opacity=".507"/><path d="M514.5 346.5h48.29" stroke="#D1D7E0" stroke-width="3" stroke-linecap="square" opacity=".507"/><path d="M514.5 426.5h48.29" stroke="#D1D7E0" stroke-width="3" stroke-linecap="square" opacity=".507"/><path fill="#79528E" d="M462 278h2v80h-2z"/></g></g></g><g><g id="BB-Line"><path d="M1200.49 77.645c-3.436-4.282-5.49-9.72-5.49-15.635 0-13.813 11.197-25.01 25.01-25.01 13.813 0 25.01 11.197 25.01 25.01 0 13.812-11.197 25.01-25.01 25.01-4.458 0-8.644-1.167-12.27-3.212-2.49.786-5.147 1.21-7.907 1.21-.636 0-1.266-.022-1.89-.066 1.217-2.254 2.09-4.712 2.546-7.307z" id="Oval-48" fill="#BFCDE1"/><path d="M1220.49 37.005c13.58.26 24.51 11.356 24.51 25.005 0 13.812-11.193 25.01-25 25.01-.335 0-.668-.007-1-.02h1.49V37.005z" id="Oval-50" opacity=".2" fill="#fff"/><path d="M1207 65c-.552 0-1 .444-1 1v3c0 .552.455 1 1 1h15c.552 0 1-.444 1-1v-3c0-.552-.455-1-1-1h-15zm-1195.003-49c-.55 0-.997.444-.997 1v3c0 .552.44 1 .997 1h26.006c.55 0 .997-.444.997-1v-3c0-.552-.44-1-.997-1H11.997z" id="Rectangle-2" fill="#fff"/></g><g id="BB-Line"><path d="M179.49 433.645c-3.436-4.282-5.49-9.72-5.49-15.635 0-13.813 11.197-25.01 25.01-25.01 13.813 0 25.01 11.197 25.01 25.01 0 13.812-11.197 25.01-25.01 25.01-4.458 0-8.644-1.167-12.27-3.212-2.49.786-5.147 1.21-7.907 1.21-.636 0-1.266-.022-1.89-.066 1.217-2.254 2.09-4.712 2.546-7.307z" id="Oval-48" fill="#BFCDE1"/><path d="M199.49 393.005c13.58.26 24.51 11.356 24.51 25.005 0 13.812-11.193 25.01-25 25.01-.335 0-.668-.007-1-.02h1.49v-49.995z" id="Oval-50" opacity=".2" fill="#fff"/><path d="M186 421c-.552 0-1 .444-1 1v3c0 .552.455 1 1 1h15c.552 0 1-.444 1-1v-3c0-.552-.455-1-1-1h-15zm-174.003-405c-.55 0-.997.444-.997 1v3c0 .552.44 1 .997 1h26.006c.55 0 .997-.444.997-1v-3c0-.552-.44-1-.997-1H11.997z" id="Rectangle-2" fill="#fff"/></g><g><path d="M53.49 77.645C50.053 73.363 48 67.925 48 62.01 48 48.197 59.197 37 73.01 37c13.813 0 25.01 11.197 25.01 25.01 0 13.812-11.197 25.01-25.01 25.01-4.458 0-8.644-1.167-12.27-3.212-2.49.786-5.147 1.21-7.907 1.21-.636 0-1.266-.022-1.89-.066 1.217-2.254 2.09-4.712 2.546-7.307z" id="Oval-48" fill="#677FE0"/><path d="M73.49 37.005C87.07 37.265 98 48.36 98 62.01c0 13.812-11.193 25.01-25 25.01-.335 0-.668-.007-1-.02h1.49V37.005z" id="Oval-50" opacity=".2" fill="#fff"/><path d="M60 65c-.552 0-1 .444-1 1v3c0 .552.455 1 1 1h15c.552 0 1-.444 1-1v-3c0-.552-.455-1-1-1H60zm-48.003-49c-.55 0-.997.444-.997 1v3c0 .552.44 1 .997 1h26.006c.55 0 .997-.444.997-1v-3c0-.552-.44-1-.997-1H11.997z" fill="#fff"/></g><g id="BB-Facebook"><path d="M1225.49 305.645c-3.436-4.282-5.49-9.72-5.49-15.635 0-13.813 11.197-25.01 25.01-25.01 13.813 0 25.01 11.197 25.01 25.01 0 13.812-11.197 25.01-25.01 25.01-4.458 0-8.644-1.167-12.27-3.212-2.49.786-5.147 1.21-7.907 1.21-.636 0-1.266-.022-1.89-.066 1.217-2.254 2.09-4.712 2.546-7.307z" id="Oval-48" fill="#BFCDE1"/><path d="M1239 285.664h2.712v-2.635c0-1.164.03-2.955.873-4.066.89-1.175 2.11-1.973 4.21-1.973 3.42 0 4.86.488 4.86.488l-.677 4.017s-1.13-.326-2.185-.326c-1.054 0-1.998.377-1.998 1.43v3.064h4.324l-.304 3.923h-4.02v13.63h-5.084v-13.63H1239v-3.923" id="Fill-173" fill="#fff"/><path d="M1245.49 265.005c13.58.26 24.51 11.356 24.51 25.005 0 13.812-11.193 25.01-25 25.01-.335 0-.668-.007-1-.02h1.49v-49.995z" id="Oval-50" opacity=".2" fill="#fff"/></g><g><path d="M179.49 202.645c-3.436-4.282-5.49-9.72-5.49-15.635 0-13.813 11.197-25.01 25.01-25.01 13.813 0 25.01 11.197 25.01 25.01 0 13.812-11.197 25.01-25.01 25.01-4.458 0-8.644-1.167-12.27-3.212-2.49.786-5.147 1.21-7.907 1.21-.636 0-1.266-.022-1.89-.066 1.217-2.254 2.09-4.712 2.546-7.307z" id="Oval-48" fill="#BFCDE1"/><path d="M193 182.664h2.712v-2.635c0-1.164.03-2.955.873-4.066.89-1.175 2.11-1.973 4.21-1.973 3.42 0 4.86.488 4.86.488l-.677 4.017s-1.13-.326-2.185-.326c-1.054 0-1.998.377-1.998 1.43v3.064h4.324l-.304 3.923h-4.02v13.63h-5.084v-13.63H193v-3.923" fill="#fff"/><path d="M199.49 162.005c13.58.26 24.51 11.356 24.51 25.005 0 13.812-11.193 25.01-25 25.01-.335 0-.668-.007-1-.02h1.49v-49.995z" id="Oval-50" opacity=".2" fill="#fff"/></g><g id="BB--Twitter"><path d="M78.49 330.645c-3.436-4.282-5.49-9.72-5.49-15.635C73 301.197 84.197 290 98.01 290c13.813 0 25.01 11.197 25.01 25.01 0 13.812-11.197 25.01-25.01 25.01-4.458 0-8.644-1.167-12.27-3.212-2.49.786-5.147 1.21-7.907 1.21-.636 0-1.266-.022-1.89-.066 1.217-2.254 2.09-4.712 2.546-7.307z" id="Oval-48" fill="#52CCCC"/><path d="M112 307.005c-.957.425-1.987.713-3.068.84 1.104-.66 1.95-1.706 2.35-2.954-1.034.613-2.176 1.058-3.396 1.296-.972-1.038-2.36-1.686-3.9-1.686-2.948 0-5.34 2.392-5.34 5.343 0 .418.046.825.137 1.216-4.44-.224-8.377-2.35-11.014-5.585-.46.792-.724 1.71-.724 2.69 0 1.852.944 3.488 2.377 4.446-.874-.025-1.7-.268-2.42-.665v.065c0 2.59 1.84 4.75 4.287 5.24-.448.124-.92.187-1.408.187-.344 0-.68-.032-1.006-.095.68 2.122 2.652 3.667 4.99 3.71-1.827 1.433-4.132 2.287-6.635 2.287-.43 0-.856-.025-1.274-.074 2.365 1.513 5.175 2.398 8.19 2.398 9.83 0 15.203-8.14 15.203-15.2 0-.233-.005-.465-.014-.693 1.044-.753 1.95-1.693 2.664-2.765" id="Fill-169" fill="#fff"/><path d="M98.49 290.005c13.58.26 24.51 11.356 24.51 25.005 0 13.812-11.193 25.01-25 25.01-.335 0-.668-.007-1-.02h1.49v-49.995z" id="Oval-50" opacity=".2" fill="#fff"/></g><g id="BB--Twitter"><path d="M1102.49 227.645c-3.436-4.282-5.49-9.72-5.49-15.635 0-13.813 11.197-25.01 25.01-25.01 13.813 0 25.01 11.197 25.01 25.01 0 13.812-11.197 25.01-25.01 25.01-4.458 0-8.644-1.167-12.27-3.212-2.49.786-5.147 1.21-7.907 1.21-.636 0-1.266-.022-1.89-.066 1.217-2.254 2.09-4.712 2.546-7.307z" id="Oval-48" fill="#52CCCC"/><path d="M1136 204.005c-.957.425-1.987.713-3.068.84 1.104-.66 1.95-1.706 2.35-2.954-1.034.613-2.176 1.058-3.396 1.296-.972-1.038-2.36-1.686-3.9-1.686-2.948 0-5.34 2.392-5.34 5.343 0 .418.046.825.137 1.216-4.44-.224-8.377-2.35-11.014-5.585-.46.792-.724 1.71-.724 2.69 0 1.852.944 3.488 2.377 4.446-.874-.025-1.7-.268-2.42-.665v.065c0 2.59 1.84 4.75 4.287 5.24-.448.124-.92.187-1.408.187-.344 0-.68-.032-1.006-.095.68 2.122 2.652 3.667 4.99 3.71-1.827 1.433-4.132 2.287-6.635 2.287-.43 0-.856-.025-1.274-.074 2.365 1.513 5.175 2.398 8.19 2.398 9.83 0 15.203-8.14 15.203-15.2 0-.233-.005-.465-.014-.693 1.044-.753 1.95-1.693 2.664-2.765" id="Fill-169" fill="#fff"/><path d="M1122.49 187.005c13.58.26 24.51 11.356 24.51 25.005 0 13.812-11.193 25.01-25 25.01-.335 0-.668-.007-1-.02h1.49v-49.995z" id="Oval-50" opacity=".2" fill="#fff"/></g><g><path d="M1152.49 458.645c-3.436-4.282-5.49-9.72-5.49-15.635 0-13.813 11.197-25.01 25.01-25.01 13.813 0 25.01 11.197 25.01 25.01 0 13.812-11.197 25.01-25.01 25.01-4.458 0-8.644-1.167-12.27-3.212-2.49.786-5.147 1.21-7.907 1.21-.636 0-1.266-.022-1.89-.066 1.217-2.254 2.09-4.712 2.546-7.307z" fill="#677FE0"/><path d="M1186 435.005c-.957.425-1.987.713-3.068.84 1.104-.66 1.95-1.706 2.35-2.954-1.034.613-2.176 1.058-3.396 1.296-.972-1.038-2.36-1.686-3.9-1.686-2.948 0-5.34 2.392-5.34 5.343 0 .418.046.825.137 1.216-4.44-.224-8.377-2.35-11.014-5.585-.46.792-.724 1.71-.724 2.69 0 1.852.944 3.488 2.377 4.446-.874-.025-1.7-.268-2.42-.665v.065c0 2.59 1.84 4.75 4.287 5.24-.448.124-.92.187-1.408.187-.344 0-.68-.032-1.006-.095.68 2.122 2.652 3.667 4.99 3.71-1.827 1.433-4.132 2.287-6.635 2.287-.43 0-.856-.025-1.274-.074 2.365 1.513 5.175 2.398 8.19 2.398 9.83 0 15.203-8.14 15.203-15.2 0-.233-.005-.465-.014-.693 1.044-.753 1.95-1.693 2.664-2.765" fill="#fff"/><path d="M1172.49 418.005c13.58.26 24.51 11.356 24.51 25.005 0 13.812-11.193 25.01-25 25.01-.335 0-.668-.007-1-.02h1.49v-49.995z" opacity=".2" fill="#fff"/></g></g></g><path d="M365.064 64.627c-1.763 0-3.207-.494-4.543-1.554-.082-.067-.136-.164-.15-.27-.01-.108.02-.215.086-.3l.39-.488c.066-.085.164-.14.27-.15.107-.01.214.022.296.092.976.82 2.238 1.253 3.652 1.253 1.508 0 3.12-.64 3.12-2.437 0-1.18-.865-1.788-3.302-2.323-2.69-.62-4.246-1.406-4.246-3.6 0-2.208 1.623-3.634 4.136-3.634 1.416 0 2.687.45 3.884 1.38.174.135.207.385.076.562l-.364.49c-.065.086-.162.143-.27.157-.107.014-.215-.017-.3-.085-.93-.75-1.856-1.087-3-1.087-1.03 0-2.757.288-2.757 2.217 0 1.172.68 1.65 3.162 2.226 2.632.6 4.387 1.46 4.387 3.697 0 2.27-1.862 3.854-4.526 3.854m7.425 0h-.638c-.232 0-.42-.18-.42-.404v-17.82c0-.222.188-.403.42-.403h.637c.23 0 .418.18.418.404v17.82c0 .222-.188.403-.42.403m3.74-7.45h8.85c-.235-2.73-1.91-4.47-4.356-4.47-2.444 0-4.21 1.778-4.495 4.47m4.84 7.45c-3.836 0-6.315-2.627-6.315-6.693 0-3.956 2.456-6.718 5.974-6.718 3.485 0 5.827 2.64 5.827 6.57v.368c0 .223-.18.403-.402.403h-9.963c.216 2.922 2.017 4.653 4.88 4.653 2.278 0 3.553-1.164 4.11-1.857.07-.085.168-.138.275-.15.108-.01.215.024.298.094l.464.392c.168.14.192.39.055.56-1.23 1.533-3.08 2.377-5.202 2.377m8.804-7.45h8.85c-.233-2.73-1.91-4.47-4.355-4.47-2.444 0-4.21 1.778-4.495 4.47m4.84 7.45c-3.836 0-6.315-2.627-6.315-6.693 0-3.956 2.457-6.718 5.974-6.718 3.487 0 5.83 2.64 5.83 6.57v.368c0 .223-.18.403-.404.403h-9.964c.217 2.922 2.017 4.653 4.88 4.653 2.28 0 3.554-1.164 4.11-1.857.07-.085.168-.138.276-.15.108-.01.215.024.298.094l.464.392c.167.14.19.39.054.56-1.23 1.533-3.077 2.377-5.2 2.377m16.89 0h-.743c-.125 0-.243-.06-.317-.164l-3.86-5.373-3.36 5.352c-.074.115-.2.185-.333.185h-.552c-.22 0-.395-.18-.395-.404v-17.82c0-.222.176-.403.395-.403h.6c.218 0 .395.18.395.404v15.262l6.16-9.82c.072-.116.198-.186.332-.186h.696c.146 0 .28.08.348.21.07.13.063.29-.015.414l-3.476 5.513 4.446 6.187c.088.122.102.286.034.422-.067.136-.203.22-.352.22" fill="#fff"/></g></svg>